<?xml version="1.0" encoding="UTF-8" standalone="no"?><svg xmlns="http://www.w3.org/2000/svg" xmlns:xlink="http://www.w3.org/1999/xlink" clip-rule="evenodd" stroke-miterlimit="10" viewBox="0 0 1024 768"><desc>SVG generated by Keynote</desc><defs></defs><g transform="matrix(1.00, 0.00, -0.00, -1.00, 0.0, 768.0)"><path d="M 0.0 768.0 L 1024.0 768.0 L 1024.0 0.0 L 0.0 0.0 Z M 0.0 768.0 " fill="#FEFFFF"></path><text xml:space="preserve" font-family="Courier-Oblique,Courier" font-style="italic" font-size="26.0" fill="#4E9192" transform="matrix(1.00, 0.00, -0.00, -1.00, 77.7, 447.9)">/</text><text xml:space="preserve" font-family="Courier-Oblique,Courier" font-style="italic" font-size="26.0" fill="#4E9192" transform="matrix(1.00, 0.00, -0.00, -1.00, 93.3, 447.9)">/</text><text xml:space="preserve" font-family="Courier-Oblique,Courier" font-style="italic" font-size="26.0" fill="#4E9192" transform="matrix(1.00, 0.00, -0.00, -1.00, 108.9, 447.9)"> </text><text xml:space="preserve" font-family="Courier-Oblique,Courier" font-style="italic" font-size="26.0" fill="#4E9192" transform="matrix(1.00, 0.00, -0.00, -1.00, 124.5, 447.9)">C</text><text xml:space="preserve" font-family="Courier-Oblique,Courier" font-style="italic" font-size="26.0" fill="#4E9192" transform="matrix(1.00, 0.00, -0.00, -1.00, 140.1, 447.9)">u</text><text xml:space="preserve" font-family="Courier-Oblique,Courier" font-style="italic" font-size="26.0" fill="#4E9192" transform="matrix(1.00, 0.00, -0.00, -1.00, 155.7, 447.9)">s</text><text xml:space="preserve" font-family="Courier-Oblique,Courier" font-style="italic" font-size="26.0" fill="#4E9192" transform="matrix(1.00, 0.00, -0.00, -1.00, 171.3, 447.9)">t</text><text xml:space="preserve" font-family="Courier-Oblique,Courier" font-style="italic" font-size="26.0" fill="#4E9192" transform="matrix(1.00, 0.00, -0.00, -1.00, 186.9, 447.9)">o</text><text xml:space="preserve" font-family="Courier-Oblique,Courier" font-style="italic" font-size="26.0" fill="#4E9192" transform="matrix(1.00, 0.00, -0.00, -1.00, 202.5, 447.9)">m</text><text xml:space="preserve" font-family="Courier-Oblique,Courier" font-style="italic" font-size="26.0" fill="#4E9192" transform="matrix(1.00, 0.00, -0.00, -1.00, 218.1, 447.9)"> </text><text xml:space="preserve" font-family="Courier-Oblique,Courier" font-style="italic" font-size="26.0" fill="#4E9192" transform="matrix(1.00, 0.00, -0.00, -1.00, 233.7, 447.9)">c</text><text xml:space="preserve" font-family="Courier-Oblique,Courier" font-style="italic" font-size="26.0" fill="#4E9192" transform="matrix(1.00, 0.00, -0.00, -1.00, 249.3, 447.9)">a</text><text xml:space="preserve" font-family="Courier-Oblique,Courier" font-style="italic" font-size="26.0" fill="#4E9192" transform="matrix(1.00, 0.00, -0.00, -1.00, 264.9, 447.9)">l</text><text xml:space="preserve" font-family="Courier-Oblique,Courier" font-style="italic" font-size="26.0" fill="#4E9192" transform="matrix(1.00, 0.00, -0.00, -1.00, 280.5, 447.9)">l</text><text xml:space="preserve" font-family="Courier-Oblique,Courier" font-style="italic" font-size="26.0" fill="#4E9192" transform="matrix(1.00, 0.00, -0.00, -1.00, 296.1, 447.9)">b</text><text xml:space="preserve" font-family="Courier-Oblique,Courier" font-style="italic" font-size="26.0" fill="#4E9192" transform="matrix(1.00, 0.00, -0.00, -1.00, 311.7, 447.9)">a</text><text xml:space="preserve" font-family="Courier-Oblique,Courier" font-style="italic" font-size="26.0" fill="#4E9192" transform="matrix(1.00, 0.00, -0.00, -1.00, 327.3, 447.9)">c</text><text xml:space="preserve" font-family="Courier-Oblique,Courier" font-style="italic" font-size="26.0" fill="#4E9192" transform="matrix(1.00, 0.00, -0.00, -1.00, 342.9, 447.9)">k</text><text xml:space="preserve" font-family="Courier-Oblique,Courier" font-style="italic" font-size="26.0" fill="#4E9192" transform="matrix(1.00, 0.00, -0.00, -1.00, 358.5, 447.9)"> </text><text xml:space="preserve" font-family="Courier-Oblique,Courier" font-style="italic" font-size="26.0" fill="#4E9192" transform="matrix(1.00, 0.00, -0.00, -1.00, 374.1, 447.9)">f</text><text xml:space="preserve" font-family="Courier-Oblique,Courier" font-style="italic" font-size="26.0" fill="#4E9192" transform="matrix(1.00, 0.00, -0.00, -1.00, 389.7, 447.9)">o</text><text xml:space="preserve" font-family="Courier-Oblique,Courier" font-style="italic" font-size="26.0" fill="#4E9192" transform="matrix(1.00, 0.00, -0.00, -1.00, 405.3, 447.9)">r</text><text xml:space="preserve" font-family="Courier-Oblique,Courier" font-style="italic" font-size="26.0" fill="#4E9192" transform="matrix(1.00, 0.00, -0.00, -1.00, 420.9, 447.9)"> </text><text xml:space="preserve" font-family="Courier-Oblique,Courier" font-style="italic" font-size="26.0" fill="#4E9192" transform="matrix(1.00, 0.00, -0.00, -1.00, 436.5, 447.9)">t</text><text xml:space="preserve" font-family="Courier-Oblique,Courier" font-style="italic" font-size="26.0" fill="#4E9192" transform="matrix(1.00, 0.00, -0.00, -1.00, 452.1, 447.9)">h</text><text xml:space="preserve" font-family="Courier-Oblique,Courier" font-style="italic" font-size="26.0" fill="#4E9192" transform="matrix(1.00, 0.00, -0.00, -1.00, 467.7, 447.9)">e</text><text xml:space="preserve" font-family="Courier-Oblique,Courier" font-style="italic" font-size="26.0" fill="#4E9192" transform="matrix(1.00, 0.00, -0.00, -1.00, 483.3, 447.9)"> </text><text xml:space="preserve" font-family="Courier-Oblique,Courier" font-style="italic" font-size="26.0" fill="#4E9192" transform="matrix(1.00, 0.00, -0.00, -1.00, 498.9, 447.9)">w</text><text xml:space="preserve" font-family="Courier-Oblique,Courier" font-style="italic" font-size="26.0" fill="#4E9192" transform="matrix(1.00, 0.00, -0.00, -1.00, 514.6, 447.9)">a</text><text xml:space="preserve" font-family="Courier-Oblique,Courier" font-style="italic" font-size="26.0" fill="#4E9192" transform="matrix(1.00, 0.00, -0.00, -1.00, 530.2, 447.9)">t</text><text xml:space="preserve" font-family="Courier-Oblique,Courier" font-style="italic" font-size="26.0" fill="#4E9192" transform="matrix(1.00, 0.00, -0.00, -1.00, 545.8, 447.9)">c</text><text xml:space="preserve" font-family="Courier-Oblique,Courier" font-style="italic" font-size="26.0" fill="#4E9192" transform="matrix(1.00, 0.00, -0.00, -1.00, 561.4, 447.9)">h</text><text xml:space="preserve" font-family="Courier-Oblique,Courier" font-style="italic" font-size="26.0" fill="#4E9192" transform="matrix(1.00, 0.00, -0.00, -1.00, 577.0, 447.9)"> </text><text xml:space="preserve" font-family="Courier-Oblique,Courier" font-style="italic" font-size="26.0" fill="#4E9192" transform="matrix(1.00, 0.00, -0.00, -1.00, 592.6, 447.9)">e</text><text xml:space="preserve" font-family="Courier-Oblique,Courier" font-style="italic" font-size="26.0" fill="#4E9192" transform="matrix(1.00, 0.00, -0.00, -1.00, 608.2, 447.9)">v</text><text xml:space="preserve" font-family="Courier-Oblique,Courier" font-style="italic" font-size="26.0" fill="#4E9192" transform="matrix(1.00, 0.00, -0.00, -1.00, 623.8, 447.9)">e</text><text xml:space="preserve" font-family="Courier-Oblique,Courier" font-style="italic" font-size="26.0" fill="#4E9192" transform="matrix(1.00, 0.00, -0.00, -1.00, 639.4, 447.9)">n</text><text xml:space="preserve" font-family="Courier-Oblique,Courier" font-style="italic" font-size="26.0" fill="#4E9192" transform="matrix(1.00, 0.00, -0.00, -1.00, 655.0, 447.9)">t</text><text xml:space="preserve" font-family="Courier,Courier" font-size="26.0" fill="#000000" transform="matrix(1.00, 0.00, -0.00, -1.00, 77.7, 416.9)">g</text><text xml:space="preserve" font-family="Courier,Courier" font-size="26.0" fill="#000000" transform="matrix(1.00, 0.00, -0.00, -1.00, 93.3, 416.9)">r</text><text xml:space="preserve" font-family="Courier,Courier" font-size="26.0" fill="#000000" transform="matrix(1.00, 0.00, -0.00, -1.00, 108.9, 416.9)">u</text><text xml:space="preserve" font-family="Courier,Courier" font-size="26.0" fill="#000000" transform="matrix(1.00, 0.00, -0.00, -1.00, 124.5, 416.9)">n</text><text xml:space="preserve" font-family="Courier,Courier" font-size="26.0" fill="#000000" transform="matrix(1.00, 0.00, -0.00, -1.00, 140.1, 416.9)">t</text><text xml:space="preserve" font-family="Courier,Courier" font-size="26.0" fill="#000000" transform="matrix(1.00, 0.00, -0.00, -1.00, 155.7, 416.9)">.</text><text xml:space="preserve" font-family="Courier,Courier" font-size="26.0" fill="#000000" transform="matrix(1.00, 0.00, -0.00, -1.00, 171.3, 416.9)">e</text><text xml:space="preserve" font-family="Courier,Courier" font-size="26.0" fill="#000000" transform="matrix(1.00, 0.00, -0.00, -1.00, 186.9, 416.9)">v</text><text xml:space="preserve" font-family="Courier,Courier" font-size="26.0" fill="#000000" transform="matrix(1.00, 0.00, -0.00, -1.00, 202.5, 416.9)">e</text><text xml:space="preserve" font-family="Courier,Courier" font-size="26.0" fill="#000000" transform="matrix(1.00, 0.00, -0.00, -1.00, 218.1, 416.9)">n</text><text xml:space="preserve" font-family="Courier,Courier" font-size="26.0" fill="#000000" transform="matrix(1.00, 0.00, -0.00, -1.00, 233.7, 416.9)">t</text><text xml:space="preserve" font-family="Courier,Courier" font-size="26.0" fill="#000000" transform="matrix(1.00, 0.00, -0.00, -1.00, 249.3, 416.9)">.</text><text xml:space="preserve" font-family="Courier,Courier" font-size="26.0" fill="#000000" transform="matrix(1.00, 0.00, -0.00, -1.00, 264.9, 416.9)">o</text><text xml:space="preserve" font-family="Courier,Courier" font-size="26.0" fill="#000000" transform="matrix(1.00, 0.00, -0.00, -1.00, 280.5, 416.9)">n</text><text xml:space="preserve" font-family="Courier,Courier" font-size="26.0" fill="#000000" transform="matrix(1.00, 0.00, -0.00, -1.00, 296.1, 416.9)">(</text><text xml:space="preserve" font-family="Courier,Courier" font-size="26.0" fill="#C8352B" transform="matrix(1.00, 0.00, -0.00, -1.00, 311.7, 416.9)">'</text><text xml:space="preserve" font-family="Courier,Courier" font-size="26.0" fill="#C8352B" transform="matrix(1.00, 0.00, -0.00, -1.00, 327.3, 416.9)">w</text><text xml:space="preserve" font-family="Courier,Courier" font-size="26.0" fill="#C8352B" transform="matrix(1.00, 0.00, -0.00, -1.00, 342.9, 416.9)">a</text><text xml:space="preserve" font-family="Courier,Courier" font-size="26.0" fill="#C8352B" transform="matrix(1.00, 0.00, -0.00, -1.00, 358.5, 416.9)">t</text><text xml:space="preserve" font-family="Courier,Courier" font-size="26.0" fill="#C8352B" transform="matrix(1.00, 0.00, -0.00, -1.00, 374.1, 416.9)">c</text><text xml:space="preserve" font-family="Courier,Courier" font-size="26.0" fill="#C8352B" transform="matrix(1.00, 0.00, -0.00, -1.00, 389.7, 416.9)">h</text><text xml:space="preserve" font-family="Courier,Courier" font-size="26.0" fill="#C8352B" transform="matrix(1.00, 0.00, -0.00, -1.00, 405.3, 416.9)">'</text><text xml:space="preserve" font-family="Courier,Courier" font-size="26.0" fill="#000000" transform="matrix(1.00, 0.00, -0.00, -1.00, 420.9, 416.9)">,</text><text xml:space="preserve" font-family="Courier,Courier" font-size="26.0" fill="#000000" transform="matrix(1.00, 0.00, -0.00, -1.00, 436.5, 416.9)"> </text><text xml:space="preserve" font-family="Courier-Bold,Courier" font-weight="bold" font-size="26.0" fill="#008E00" transform="matrix(1.00, 0.00, -0.00, -1.00, 452.1, 416.9)">f</text><text xml:space="preserve" font-family="Courier-Bold,Courier" font-weight="bold" font-size="26.0" fill="#008E00" transform="matrix(1.00, 0.00, -0.00, -1.00, 467.7, 416.9)">u</text><text xml:space="preserve" font-family="Courier-Bold,Courier" font-weight="bold" font-size="26.0" fill="#008E00" transform="matrix(1.00, 0.00, -0.00, -1.00, 483.3, 416.9)">n</text><text xml:space="preserve" font-family="Courier-Bold,Courier" font-weight="bold" font-size="26.0" fill="#008E00" transform="matrix(1.00, 0.00, -0.00, -1.00, 498.9, 416.9)">c</text><text xml:space="preserve" font-family="Courier-Bold,Courier" font-weight="bold" font-size="26.0" fill="#008E00" transform="matrix(1.00, 0.00, -0.00, -1.00, 514.5, 416.9)">t</text><text xml:space="preserve" font-family="Courier-Bold,Courier" font-weight="bold" font-size="26.0" fill="#008E00" transform="matrix(1.00, 0.00, -0.00, -1.00, 530.1, 416.9)">i</text><text xml:space="preserve" font-family="Courier-Bold,Courier" font-weight="bold" font-size="26.0" fill="#008E00" transform="matrix(1.00, 0.00, -0.00, -1.00, 545.7, 416.9)">o</text><text xml:space="preserve" font-family="Courier-Bold,Courier" font-weight="bold" font-size="26.0" fill="#008E00" transform="matrix(1.00, 0.00, -0.00, -1.00, 561.3, 416.9)">n</text><text xml:space="preserve" font-family="Courier,Courier" font-size="26.0" fill="#000000" transform="matrix(1.00, 0.00, -0.00, -1.00, 576.9, 416.9)">(</text><text xml:space="preserve" font-family="Courier,Courier" font-size="26.0" fill="#000000" transform="matrix(1.00, 0.00, -0.00, -1.00, 592.5, 416.9)">a</text><text xml:space="preserve" font-family="Courier,Courier" font-size="26.0" fill="#000000" transform="matrix(1.00, 0.00, -0.00, -1.00, 608.2, 416.9)">c</text><text xml:space="preserve" font-family="Courier,Courier" font-size="26.0" fill="#000000" transform="matrix(1.00, 0.00, -0.00, -1.00, 623.8, 416.9)">t</text><text xml:space="preserve" font-family="Courier,Courier" font-size="26.0" fill="#000000" transform="matrix(1.00, 0.00, -0.00, -1.00, 639.4, 416.9)">i</text><text xml:space="preserve" font-family="Courier,Courier" font-size="26.0" fill="#000000" transform="matrix(1.00, 0.00, -0.00, -1.00, 655.0, 416.9)">o</text><text xml:space="preserve" font-family="Courier,Courier" font-size="26.0" fill="#000000" transform="matrix(1.00, 0.00, -0.00, -1.00, 670.6, 416.9)">n</text><text xml:space="preserve" font-family="Courier,Courier" font-size="26.0" fill="#000000" transform="matrix(1.00, 0.00, -0.00, -1.00, 686.2, 416.9)">,</text><text xml:space="preserve" font-family="Courier,Courier" font-size="26.0" fill="#000000" transform="matrix(1.00, 0.00, -0.00, -1.00, 701.8, 416.9)"> </text><text xml:space="preserve" font-family="Courier,Courier" font-size="26.0" fill="#000000" transform="matrix(1.00, 0.00, -0.00, -1.00, 717.4, 416.9)">f</text><text xml:space="preserve" font-family="Courier,Courier" font-size="26.0" fill="#000000" transform="matrix(1.00, 0.00, -0.00, -1.00, 733.0, 416.9)">i</text><text xml:space="preserve" font-family="Courier,Courier" font-size="26.0" fill="#000000" transform="matrix(1.00, 0.00, -0.00, -1.00, 748.6, 416.9)">l</text><text xml:space="preserve" font-family="Courier,Courier" font-size="26.0" fill="#000000" transform="matrix(1.00, 0.00, -0.00, -1.00, 764.2, 416.9)">e</text><text xml:space="preserve" font-family="Courier,Courier" font-size="26.0" fill="#000000" transform="matrix(1.00, 0.00, -0.00, -1.00, 779.8, 416.9)">p</text><text xml:space="preserve" font-family="Courier,Courier" font-size="26.0" fill="#000000" transform="matrix(1.00, 0.00, -0.00, -1.00, 795.4, 416.9)">a</text><text xml:space="preserve" font-family="Courier,Courier" font-size="26.0" fill="#000000" transform="matrix(1.00, 0.00, -0.00, -1.00, 811.0, 416.9)">t</text><text xml:space="preserve" font-family="Courier,Courier" font-size="26.0" fill="#000000" transform="matrix(1.00, 0.00, -0.00, -1.00, 826.6, 416.9)">h</text><text xml:space="preserve" font-family="Courier,Courier" font-size="26.0" fill="#000000" transform="matrix(1.00, 0.00, -0.00, -1.00, 842.2, 416.9)">)</text><text xml:space="preserve" font-family="Courier,Courier" font-size="26.0" fill="#000000" transform="matrix(1.00, 0.00, -0.00, -1.00, 857.8, 416.9)"> </text><text xml:space="preserve" font-family="Courier,Courier" font-size="26.0" fill="#000000" transform="matrix(1.00, 0.00, -0.00, -1.00, 873.4, 416.9)">{</text><text xml:space="preserve" font-family="Courier,Courier" font-size="26.0" fill="#000000" transform="matrix(1.00, 0.00, -0.00, -1.00, 77.7, 385.9)"> </text><text xml:space="preserve" font-family="Courier,Courier" font-size="26.0" fill="#000000" transform="matrix(1.00, 0.00, -0.00, -1.00, 93.3, 385.9)"> </text><text xml:space="preserve" font-family="Courier-Bold,Courier" font-weight="bold" font-size="26.0" fill="#008E00" transform="matrix(1.00, 0.00, -0.00, -1.00, 108.9, 385.9)">v</text><text xml:space="preserve" font-family="Courier-Bold,Courier" font-weight="bold" font-size="26.0" fill="#008E00" transform="matrix(1.00, 0.00, -0.00, -1.00, 124.5, 385.9)">a</text><text xml:space="preserve" font-family="Courier-Bold,Courier" font-weight="bold" font-size="26.0" fill="#008E00" transform="matrix(1.00, 0.00, -0.00, -1.00, 140.1, 385.9)">r</text><text xml:space="preserve" font-family="Courier,Courier" font-size="26.0" fill="#000000" transform="matrix(1.00, 0.00, -0.00, -1.00, 155.7, 385.9)"> </text><text xml:space="preserve" font-family="Courier,Courier" font-size="26.0" fill="#000000" transform="matrix(1.00, 0.00, -0.00, -1.00, 171.3, 385.9)">e</text><text xml:space="preserve" font-family="Courier,Courier" font-size="26.0" fill="#000000" transform="matrix(1.00, 0.00, -0.00, -1.00, 186.9, 385.9)">x</text><text xml:space="preserve" font-family="Courier,Courier" font-size="26.0" fill="#000000" transform="matrix(1.00, 0.00, -0.00, -1.00, 202.5, 385.9)">t</text><text xml:space="preserve" font-family="Courier,Courier" font-size="26.0" fill="#000000" transform="matrix(1.00, 0.00, -0.00, -1.00, 218.1, 385.9)"> </text><text xml:space="preserve" font-family="Courier,Courier" font-size="26.0" fill="#797979" transform="matrix(1.00, 0.00, -0.00, -1.00, 233.7, 385.9)">=</text><text xml:space="preserve" font-family="Courier,Courier" font-size="26.0" fill="#000000" transform="matrix(1.00, 0.00, -0.00, -1.00, 249.3, 385.9)"> </text><text xml:space="preserve" font-family="Courier,Courier" font-size="26.0" fill="#000000" transform="matrix(1.00, 0.00, -0.00, -1.00, 264.9, 385.9)">p</text><text xml:space="preserve" font-family="Courier,Courier" font-size="26.0" fill="#000000" transform="matrix(1.00, 0.00, -0.00, -1.00, 280.5, 385.9)">a</text><text xml:space="preserve" font-family="Courier,Courier" font-size="26.0" fill="#000000" transform="matrix(1.00, 0.00, -0.00, -1.00, 296.1, 385.9)">t</text><text xml:space="preserve" font-family="Courier,Courier" font-size="26.0" fill="#000000" transform="matrix(1.00, 0.00, -0.00, -1.00, 311.7, 385.9)">h</text><text xml:space="preserve" font-family="Courier,Courier" font-size="26.0" fill="#000000" transform="matrix(1.00, 0.00, -0.00, -1.00, 327.3, 385.9)">.</text><text xml:space="preserve" font-family="Courier,Courier" font-size="26.0" fill="#000000" transform="matrix(1.00, 0.00, -0.00, -1.00, 342.9, 385.9)">e</text><text xml:space="preserve" font-family="Courier,Courier" font-size="26.0" fill="#000000" transform="matrix(1.00, 0.00, -0.00, -1.00, 358.5, 385.9)">x</text><text xml:space="preserve" font-family="Courier,Courier" font-size="26.0" fill="#000000" transform="matrix(1.00, 0.00, -0.00, -1.00, 374.1, 385.9)">t</text><text xml:space="preserve" font-family="Courier,Courier" font-size="26.0" fill="#000000" transform="matrix(1.00, 0.00, -0.00, -1.00, 389.7, 385.9)">n</text><text xml:space="preserve" font-family="Courier,Courier" font-size="26.0" fill="#000000" transform="matrix(1.00, 0.00, -0.00, -1.00, 405.3, 385.9)">a</text><text xml:space="preserve" font-family="Courier,Courier" font-size="26.0" fill="#000000" transform="matrix(1.00, 0.00, -0.00, -1.00, 420.9, 385.9)">m</text><text xml:space="preserve" font-family="Courier,Courier" font-size="26.0" fill="#000000" transform="matrix(1.00, 0.00, -0.00, -1.00, 436.5, 385.9)">e</text><text xml:space="preserve" font-family="Courier,Courier" font-size="26.0" fill="#000000" transform="matrix(1.00, 0.00, -0.00, -1.00, 452.1, 385.9)">(</text><text xml:space="preserve" font-family="Courier,Courier" font-size="26.0" fill="#000000" transform="matrix(1.00, 0.00, -0.00, -1.00, 467.7, 385.9)">f</text><text xml:space="preserve" font-family="Courier,Courier" font-size="26.0" fill="#000000" transform="matrix(1.00, 0.00, -0.00, -1.00, 483.3, 385.9)">i</text><text xml:space="preserve" font-family="Courier,Courier" font-size="26.0" fill="#000000" transform="matrix(1.00, 0.00, -0.00, -1.00, 498.9, 385.9)">l</text><text xml:space="preserve" font-family="Courier,Courier" font-size="26.0" fill="#000000" transform="matrix(1.00, 0.00, -0.00, -1.00, 514.5, 385.9)">e</text><text xml:space="preserve" font-family="Courier,Courier" font-size="26.0" fill="#000000" transform="matrix(1.00, 0.00, -0.00, -1.00, 530.1, 385.9)">p</text><text xml:space="preserve" font-family="Courier,Courier" font-size="26.0" fill="#000000" transform="matrix(1.00, 0.00, -0.00, -1.00, 545.7, 385.9)">a</text><text xml:space="preserve" font-family="Courier,Courier" font-size="26.0" fill="#000000" transform="matrix(1.00, 0.00, -0.00, -1.00, 561.3, 385.9)">t</text><text xml:space="preserve" font-family="Courier,Courier" font-size="26.0" fill="#000000" transform="matrix(1.00, 0.00, -0.00, -1.00, 576.9, 385.9)">h</text><text xml:space="preserve" font-family="Courier,Courier" font-size="26.0" fill="#000000" transform="matrix(1.00, 0.00, -0.00, -1.00, 592.6, 385.9)">)</text><text xml:space="preserve" font-family="Courier,Courier" font-size="26.0" fill="#000000" transform="matrix(1.00, 0.00, -0.00, -1.00, 608.2, 385.9)">;</text><text xml:space="preserve" font-family="Courier,Courier" font-size="26.0" fill="#000000" transform="matrix(1.00, 0.00, -0.00, -1.00, 77.7, 323.9)"> </text><text xml:space="preserve" font-family="Courier,Courier" font-size="26.0" fill="#000000" transform="matrix(1.00, 0.00, -0.00, -1.00, 93.3, 323.9)"> </text><text xml:space="preserve" font-family="Courier-Bold,Courier" font-weight="bold" font-size="26.0" fill="#008E00" transform="matrix(1.00, 0.00, -0.00, -1.00, 108.9, 323.9)">i</text><text xml:space="preserve" font-family="Courier-Bold,Courier" font-weight="bold" font-size="26.0" fill="#008E00" transform="matrix(1.00, 0.00, -0.00, -1.00, 124.5, 323.9)">f</text><text xml:space="preserve" font-family="Courier,Courier" font-size="26.0" fill="#000000" transform="matrix(1.00, 0.00, -0.00, -1.00, 140.1, 323.9)"> </text><text xml:space="preserve" font-family="Courier,Courier" font-size="26.0" fill="#000000" transform="matrix(1.00, 0.00, -0.00, -1.00, 155.7, 323.9)">(</text><text xml:space="preserve" font-family="Courier,Courier" font-size="26.0" fill="#000000" transform="matrix(1.00, 0.00, -0.00, -1.00, 171.3, 323.9)">a</text><text xml:space="preserve" font-family="Courier,Courier" font-size="26.0" fill="#000000" transform="matrix(1.00, 0.00, -0.00, -1.00, 186.9, 323.9)">c</text><text xml:space="preserve" font-family="Courier,Courier" font-size="26.0" fill="#000000" transform="matrix(1.00, 0.00, -0.00, -1.00, 202.5, 323.9)">t</text><text xml:space="preserve" font-family="Courier,Courier" font-size="26.0" fill="#000000" transform="matrix(1.00, 0.00, -0.00, -1.00, 218.1, 323.9)">i</text><text xml:space="preserve" font-family="Courier,Courier" font-size="26.0" fill="#000000" transform="matrix(1.00, 0.00, -0.00, -1.00, 233.7, 323.9)">o</text><text xml:space="preserve" font-family="Courier,Courier" font-size="26.0" fill="#000000" transform="matrix(1.00, 0.00, -0.00, -1.00, 249.3, 323.9)">n</text><text xml:space="preserve" font-family="Courier,Courier" font-size="26.0" fill="#000000" transform="matrix(1.00, 0.00, -0.00, -1.00, 264.9, 323.9)"> </text><text xml:space="preserve" font-family="Courier,Courier" font-size="26.0" fill="#797979" transform="matrix(1.00, 0.00, -0.00, -1.00, 280.5, 323.9)">=</text><text xml:space="preserve" font-family="Courier,Courier" font-size="26.0" fill="#797979" transform="matrix(1.00, 0.00, -0.00, -1.00, 296.1, 323.9)">=</text><text xml:space="preserve" font-family="Courier,Courier" font-size="26.0" fill="#797979" transform="matrix(1.00, 0.00, -0.00, -1.00, 311.7, 323.9)">=</text><text xml:space="preserve" font-family="Courier,Courier" font-size="26.0" fill="#000000" transform="matrix(1.00, 0.00, -0.00, -1.00, 327.3, 323.9)"> </text><text xml:space="preserve" font-family="Courier,Courier" font-size="26.0" fill="#C8352B" transform="matrix(1.00, 0.00, -0.00, -1.00, 342.9, 323.9)">'</text><text xml:space="preserve" font-family="Courier,Courier" font-size="26.0" fill="#C8352B" transform="matrix(1.00, 0.00, -0.00, -1.00, 358.5, 323.9)">a</text><text xml:space="preserve" font-family="Courier,Courier" font-size="26.0" fill="#C8352B" transform="matrix(1.00, 0.00, -0.00, -1.00, 374.1, 323.9)">d</text><text xml:space="preserve" font-family="Courier,Courier" font-size="26.0" fill="#C8352B" transform="matrix(1.00, 0.00, -0.00, -1.00, 389.7, 323.9)">d</text><text xml:space="preserve" font-family="Courier,Courier" font-size="26.0" fill="#C8352B" transform="matrix(1.00, 0.00, -0.00, -1.00, 405.3, 323.9)">e</text><text xml:space="preserve" font-family="Courier,Courier" font-size="26.0" fill="#C8352B" transform="matrix(1.00, 0.00, -0.00, -1.00, 420.9, 323.9)">d</text><text xml:space="preserve" font-family="Courier,Courier" font-size="26.0" fill="#C8352B" transform="matrix(1.00, 0.00, -0.00, -1.00, 436.5, 323.9)">'</text><text xml:space="preserve" font-family="Courier,Courier" font-size="26.0" fill="#000000" transform="matrix(1.00, 0.00, -0.00, -1.00, 452.1, 323.9)">)</text><text xml:space="preserve" font-family="Courier,Courier" font-size="26.0" fill="#000000" transform="matrix(1.00, 0.00, -0.00, -1.00, 467.7, 323.9)"> </text><text xml:space="preserve" font-family="Courier,Courier" font-size="26.0" fill="#000000" transform="matrix(1.00, 0.00, -0.00, -1.00, 483.3, 323.9)">{</text><text xml:space="preserve" font-family="Courier,Courier" font-size="26.0" fill="#000000" transform="matrix(1.00, 0.00, -0.00, -1.00, 77.7, 292.9)"> </text><text xml:space="preserve" font-family="Courier,Courier" font-size="26.0" fill="#000000" transform="matrix(1.00, 0.00, -0.00, -1.00, 93.3, 292.9)"> </text><text xml:space="preserve" font-family="Courier,Courier" font-size="26.0" fill="#000000" transform="matrix(1.00, 0.00, -0.00, -1.00, 108.9, 292.9)"> </text><text xml:space="preserve" font-family="Courier,Courier" font-size="26.0" fill="#000000" transform="matrix(1.00, 0.00, -0.00, -1.00, 124.5, 292.9)"> </text><text xml:space="preserve" font-family="Courier,Courier" font-size="26.0" fill="#000000" transform="matrix(1.00, 0.00, -0.00, -1.00, 140.1, 292.9)">p</text><text xml:space="preserve" font-family="Courier,Courier" font-size="26.0" fill="#000000" transform="matrix(1.00, 0.00, -0.00, -1.00, 155.7, 292.9)">r</text><text xml:space="preserve" font-family="Courier,Courier" font-size="26.0" fill="#000000" transform="matrix(1.00, 0.00, -0.00, -1.00, 171.3, 292.9)">o</text><text xml:space="preserve" font-family="Courier,Courier" font-size="26.0" fill="#000000" transform="matrix(1.00, 0.00, -0.00, -1.00, 186.9, 292.9)">c</text><text xml:space="preserve" font-family="Courier,Courier" font-size="26.0" fill="#000000" transform="matrix(1.00, 0.00, -0.00, -1.00, 202.5, 292.9)">e</text><text xml:space="preserve" font-family="Courier,Courier" font-size="26.0" fill="#000000" transform="matrix(1.00, 0.00, -0.00, -1.00, 218.1, 292.9)">s</text><text xml:space="preserve" font-family="Courier,Courier" font-size="26.0" fill="#000000" transform="matrix(1.00, 0.00, -0.00, -1.00, 233.7, 292.9)">s</text><text xml:space="preserve" font-family="Courier,Courier" font-size="26.0" fill="#000000" transform="matrix(1.00, 0.00, -0.00, -1.00, 249.3, 292.9)">.</text><text xml:space="preserve" font-family="Courier,Courier" font-size="26.0" fill="#000000" transform="matrix(1.00, 0.00, -0.00, -1.00, 264.9, 292.9)">s</text><text xml:space="preserve" font-family="Courier,Courier" font-size="26.0" fill="#000000" transform="matrix(1.00, 0.00, -0.00, -1.00, 280.5, 292.9)">e</text><text xml:space="preserve" font-family="Courier,Courier" font-size="26.0" fill="#000000" transform="matrix(1.00, 0.00, -0.00, -1.00, 296.1, 292.9)">n</text><text xml:space="preserve" font-family="Courier,Courier" font-size="26.0" fill="#000000" transform="matrix(1.00, 0.00, -0.00, -1.00, 311.7, 292.9)">d</text><text xml:space="preserve" font-family="Courier,Courier" font-size="26.0" fill="#000000" transform="matrix(1.00, 0.00, -0.00, -1.00, 327.3, 292.9)">(</text><text xml:space="preserve" font-family="Courier,Courier" font-size="26.0" fill="#C8352B" transform="matrix(1.00, 0.00, -0.00, -1.00, 342.9, 292.9)">'</text><text xml:space="preserve" font-family="Courier,Courier" font-size="26.0" fill="#C8352B" transform="matrix(1.00, 0.00, -0.00, -1.00, 358.5, 292.9)">E</text><text xml:space="preserve" font-family="Courier,Courier" font-size="26.0" fill="#C8352B" transform="matrix(1.00, 0.00, -0.00, -1.00, 374.1, 292.9)">X</text><text xml:space="preserve" font-family="Courier,Courier" font-size="26.0" fill="#C8352B" transform="matrix(1.00, 0.00, -0.00, -1.00, 389.7, 292.9)">T</text><text xml:space="preserve" font-family="Courier,Courier" font-size="26.0" fill="#C8352B" transform="matrix(1.00, 0.00, -0.00, -1.00, 405.3, 292.9)">A</text><text xml:space="preserve" font-family="Courier,Courier" font-size="26.0" fill="#C8352B" transform="matrix(1.00, 0.00, -0.00, -1.00, 420.9, 292.9)">D</text><text xml:space="preserve" font-family="Courier,Courier" font-size="26.0" fill="#C8352B" transform="matrix(1.00, 0.00, -0.00, -1.00, 436.5, 292.9)">D</text><text xml:space="preserve" font-family="Courier,Courier" font-size="26.0" fill="#C8352B" transform="matrix(1.00, 0.00, -0.00, -1.00, 452.1, 292.9)">E</text><text xml:space="preserve" font-family="Courier,Courier" font-size="26.0" fill="#C8352B" transform="matrix(1.00, 0.00, -0.00, -1.00, 467.7, 292.9)">D</text><text xml:space="preserve" font-family="Courier,Courier" font-size="26.0" fill="#C8352B" transform="matrix(1.00, 0.00, -0.00, -1.00, 483.3, 292.9)">:</text><text xml:space="preserve" font-family="Courier,Courier" font-size="26.0" fill="#C8352B" transform="matrix(1.00, 0.00, -0.00, -1.00, 498.9, 292.9)">'</text><text xml:space="preserve" font-family="Courier,Courier" font-size="26.0" fill="#000000" transform="matrix(1.00, 0.00, -0.00, -1.00, 514.5, 292.9)"> </text><text xml:space="preserve" font-family="Courier,Courier" font-size="26.0" fill="#797979" transform="matrix(1.00, 0.00, -0.00, -1.00, 530.1, 292.9)">+</text><text xml:space="preserve" font-family="Courier,Courier" font-size="26.0" fill="#000000" transform="matrix(1.00, 0.00, -0.00, -1.00, 545.7, 292.9)"> </text><text xml:space="preserve" font-family="Courier,Courier" font-size="26.0" fill="#000000" transform="matrix(1.00, 0.00, -0.00, -1.00, 561.3, 292.9)">e</text><text xml:space="preserve" font-family="Courier,Courier" font-size="26.0" fill="#000000" transform="matrix(1.00, 0.00, -0.00, -1.00, 576.9, 292.9)">x</text><text xml:space="preserve" font-family="Courier,Courier" font-size="26.0" fill="#000000" transform="matrix(1.00, 0.00, -0.00, -1.00, 592.6, 292.9)">t</text><text xml:space="preserve" font-family="Courier,Courier" font-size="26.0" fill="#000000" transform="matrix(1.00, 0.00, -0.00, -1.00, 608.2, 292.9)">)</text><text xml:space="preserve" font-family="Courier,Courier" font-size="26.0" fill="#000000" transform="matrix(1.00, 0.00, -0.00, -1.00, 623.8, 292.9)">;</text><text xml:space="preserve" font-family="Courier,Courier" font-size="26.0" fill="#000000" transform="matrix(1.00, 0.00, -0.00, -1.00, 77.7, 261.9)"> </text><text xml:space="preserve" font-family="Courier,Courier" font-size="26.0" fill="#000000" transform="matrix(1.00, 0.00, -0.00, -1.00, 93.3, 261.9)"> </text><text xml:space="preserve" font-family="Courier,Courier" font-size="26.0" fill="#000000" transform="matrix(1.00, 0.00, -0.00, -1.00, 108.9, 261.9)">}</text><text xml:space="preserve" font-family="Courier,Courier" font-size="26.0" fill="#000000" transform="matrix(1.00, 0.00, -0.00, -1.00, 77.7, 230.9)">}</text><text xml:space="preserve" font-family="Courier,Courier" font-size="26.0" fill="#000000" transform="matrix(1.00, 0.00, -0.00, -1.00, 93.3, 230.9)">)</text><text xml:space="preserve" font-family="Courier,Courier" font-size="26.0" fill="#000000" transform="matrix(1.00, 0.00, -0.00, -1.00, 108.9, 230.9)">;</text><image xlink:href="../../0099E750-43F4-4A1E-80C1-2076B752852F/assets/5920F148D175DE72B6F6E244C369D8BD.png" width="512.00" height="512.00" transform="matrix(0.44, 0.00, -0.00, -0.44, 791.8, 753.0)"></image><image xlink:href="../../DDE25826-6E6E-4732-BB3D-044A67A15FDB/assets/993E17493ED497FDDD3A1A3F1106828C.png" width="600.00" height="275.00" transform="matrix(-0.47, -0.05, -0.05, 0.48, 841.7, 618.4)"></image></g></svg>