<?xml version="1.0" encoding="UTF-8" standalone="no"?><svg xmlns="http://www.w3.org/2000/svg" xmlns:xlink="http://www.w3.org/1999/xlink" clip-rule="evenodd" stroke-miterlimit="10" viewBox="0 0 1024 768"><desc>SVG generated by Keynote</desc><defs></defs><g transform="matrix(1.00, 0.00, -0.00, -1.00, 0.0, 768.0)"><path d="M 0.0 768.0 L 1024.0 768.0 L 1024.0 0.0 L 0.0 0.0 Z M 0.0 768.0 " fill="#FEFFFF"></path><text xml:space="preserve" font-family="Helvetica-Bold,Helvetica" font-weight="bold" font-size="46.0" fill="#000000" transform="matrix(1.00, 0.00, -0.00, -1.00, 459.6, 543.9)">A</text><text xml:space="preserve" font-family="Helvetica-Bold,Helvetica" font-weight="bold" font-size="46.0" fill="#000000" transform="matrix(1.00, 0.00, -0.00, -1.00, 492.9, 543.9)">M</text><text xml:space="preserve" font-family="Helvetica-Bold,Helvetica" font-weight="bold" font-size="46.0" fill="#000000" transform="matrix(1.00, 0.00, -0.00, -1.00, 531.2, 543.9)">D</text><g><clipPath id="clip0x7fa0c93828f0"><path d="M 111.4 648.9 L 197.9 648.9 L 197.9 716.6 L 111.4 716.6 Z M 111.4 648.9 "></path></clipPath><g clip-path="url(#clip0x7fa0c93828f0)"><image xlink:href="../../0099E750-43F4-4A1E-80C1-2076B752852F/assets/FF7649F6400E4A84E351B98983CB9446.png" width="528.00" height="413.00" transform="matrix(0.16, 0.00, -0.00, -0.16, 111.4, 716.6)"></image></g></g><g><clipPath id="clip0x7fa0c9469c00"><path d="M 233.4 635.2 L 900.4 635.2 L 900.4 730.2 L 233.4 730.2 Z M 233.4 635.2 "></path></clipPath><g clip-path="url(#clip0x7fa0c9469c00)"><text xml:space="preserve" font-family="Helvetica-Light,Helvetica" font-size="56.0" fill="#000000" transform="matrix(1.00, 0.00, -0.00, -1.00, 247.4, 662.1)">D</text><text xml:space="preserve" font-family="Helvetica-Light,Helvetica" font-size="56.0" fill="#000000" transform="matrix(1.00, 0.00, -0.00, -1.00, 287.8, 662.1)">e</text><text xml:space="preserve" font-family="Helvetica-Light,Helvetica" font-size="56.0" fill="#000000" transform="matrix(1.00, 0.00, -0.00, -1.00, 318.9, 662.1)">t</text><text xml:space="preserve" font-family="Helvetica-Light,Helvetica" font-size="56.0" fill="#000000" transform="matrix(1.00, 0.00, -0.00, -1.00, 334.5, 662.1)">e</text><text xml:space="preserve" font-family="Helvetica-Light,Helvetica" font-size="56.0" fill="#000000" transform="matrix(1.00, 0.00, -0.00, -1.00, 365.6, 662.1)">c</text><text xml:space="preserve" font-family="Helvetica-Light,Helvetica" font-size="56.0" fill="#000000" transform="matrix(1.00, 0.00, -0.00, -1.00, 396.8, 662.1)">t</text><text xml:space="preserve" font-family="Helvetica-Light,Helvetica" font-size="56.0" fill="#000000" transform="matrix(1.00, 0.00, -0.00, -1.00, 412.3, 662.1)"> </text><text xml:space="preserve" font-family="Helvetica-Light,Helvetica" font-size="56.0" fill="#000000" transform="matrix(1.00, 0.00, -0.00, -1.00, 427.9, 662.1)">t</text><text xml:space="preserve" font-family="Helvetica-Light,Helvetica" font-size="56.0" fill="#000000" transform="matrix(1.00, 0.00, -0.00, -1.00, 443.5, 662.1)">h</text><text xml:space="preserve" font-family="Helvetica-Light,Helvetica" font-size="56.0" fill="#000000" transform="matrix(1.00, 0.00, -0.00, -1.00, 474.6, 662.1)">e</text><text xml:space="preserve" font-family="Helvetica-Light,Helvetica" font-size="56.0" fill="#000000" transform="matrix(1.00, 0.00, -0.00, -1.00, 505.8, 662.1)"> </text><text xml:space="preserve" font-family="Helvetica-Light,Helvetica" font-size="56.0" fill="#000000" transform="matrix(1.00, 0.00, -0.00, -1.00, 521.3, 662.1)">m</text><text xml:space="preserve" font-family="Helvetica-Light,Helvetica" font-size="56.0" fill="#000000" transform="matrix(1.00, 0.00, -0.00, -1.00, 568.0, 662.1)">o</text><text xml:space="preserve" font-family="Helvetica-Light,Helvetica" font-size="56.0" fill="#000000" transform="matrix(1.00, 0.00, -0.00, -1.00, 599.1, 662.1)">d</text><text xml:space="preserve" font-family="Helvetica-Light,Helvetica" font-size="56.0" fill="#000000" transform="matrix(1.00, 0.00, -0.00, -1.00, 633.3, 662.1)">u</text><text xml:space="preserve" font-family="Helvetica-Light,Helvetica" font-size="56.0" fill="#000000" transform="matrix(1.00, 0.00, -0.00, -1.00, 664.5, 662.1)">l</text><text xml:space="preserve" font-family="Helvetica-Light,Helvetica" font-size="56.0" fill="#000000" transform="matrix(1.00, 0.00, -0.00, -1.00, 676.9, 662.1)">e</text><text xml:space="preserve" font-family="Helvetica-Light,Helvetica" font-size="56.0" fill="#000000" transform="matrix(1.00, 0.00, -0.00, -1.00, 708.0, 662.1)"> </text><text xml:space="preserve" font-family="Helvetica-Light,Helvetica" font-size="56.0" fill="#000000" transform="matrix(1.00, 0.00, -0.00, -1.00, 723.6, 662.1)">s</text><text xml:space="preserve" font-family="Helvetica-Light,Helvetica" font-size="56.0" fill="#000000" transform="matrix(1.00, 0.00, -0.00, -1.00, 751.6, 662.1)">y</text><text xml:space="preserve" font-family="Helvetica-Light,Helvetica" font-size="56.0" fill="#000000" transform="matrix(1.00, 0.00, -0.00, -1.00, 779.6, 662.1)">n</text><text xml:space="preserve" font-family="Helvetica-Light,Helvetica" font-size="56.0" fill="#000000" transform="matrix(1.00, 0.00, -0.00, -1.00, 810.7, 662.1)">t</text><text xml:space="preserve" font-family="Helvetica-Light,Helvetica" font-size="56.0" fill="#000000" transform="matrix(1.00, 0.00, -0.00, -1.00, 826.3, 662.1)">a</text><text xml:space="preserve" font-family="Helvetica-Light,Helvetica" font-size="56.0" fill="#000000" transform="matrix(1.00, 0.00, -0.00, -1.00, 857.4, 662.1)">x</text></g></g><text xml:space="preserve" font-family="Courier,Courier" font-size="38.0" fill="#000000" transform="matrix(1.00, 0.00, -0.00, -1.00, 428.9, 460.1)">d</text><text xml:space="preserve" font-family="Courier,Courier" font-size="38.0" fill="#000000" transform="matrix(1.00, 0.00, -0.00, -1.00, 451.7, 460.1)">e</text><text xml:space="preserve" font-family="Courier,Courier" font-size="38.0" fill="#000000" transform="matrix(1.00, 0.00, -0.00, -1.00, 474.6, 460.1)">f</text><text xml:space="preserve" font-family="Courier,Courier" font-size="38.0" fill="#000000" transform="matrix(1.00, 0.00, -0.00, -1.00, 497.4, 460.1)">i</text><text xml:space="preserve" font-family="Courier,Courier" font-size="38.0" fill="#000000" transform="matrix(1.00, 0.00, -0.00, -1.00, 520.2, 460.1)">n</text><text xml:space="preserve" font-family="Courier,Courier" font-size="38.0" fill="#000000" transform="matrix(1.00, 0.00, -0.00, -1.00, 543.0, 460.1)">e</text><text xml:space="preserve" font-family="Courier,Courier" font-size="38.0" fill="#000000" transform="matrix(1.00, 0.00, -0.00, -1.00, 565.8, 460.1)">(</text><text xml:space="preserve" font-family="Courier,Courier" font-size="38.0" fill="#000000" transform="matrix(1.00, 0.00, -0.00, -1.00, 588.6, 460.1)">)</text></g></svg>