<?xml version="1.0" encoding="UTF-8" standalone="no"?><svg xmlns="http://www.w3.org/2000/svg" xmlns:xlink="http://www.w3.org/1999/xlink" clip-rule="evenodd" stroke-miterlimit="10" viewBox="0 0 450 170"><desc>SVG generated by Keynote</desc><defs></defs><g transform="matrix(1.00, 0.00, -0.00, -1.00, 0.0, 170.0)"><text xml:space="preserve" font-family="Courier,Courier" font-size="24.0" fill="#000000" transform="matrix(1.00, 0.00, -0.00, -1.00, 1.8, 151.2)"> </text><text xml:space="preserve" font-family="Courier,Courier" font-size="24.0" fill="#000000" transform="matrix(1.00, 0.00, -0.00, -1.00, 16.2, 151.2)"> </text><text xml:space="preserve" font-family="Courier,Courier" font-size="24.0" fill="#000000" transform="matrix(1.00, 0.00, -0.00, -1.00, 30.6, 151.2)"> </text><text xml:space="preserve" font-family="Courier,Courier" font-size="24.0" fill="#000000" transform="matrix(1.00, 0.00, -0.00, -1.00, 45.0, 151.2)"> </text><text xml:space="preserve" font-family="Courier,Courier" font-size="24.0" fill="#C8352B" transform="matrix(1.00, 0.00, -0.00, -1.00, 59.4, 151.2)">"</text><text xml:space="preserve" font-family="Courier,Courier" font-size="24.0" fill="#C8352B" transform="matrix(1.00, 0.00, -0.00, -1.00, 73.8, 151.2)">e</text><text xml:space="preserve" font-family="Courier,Courier" font-size="24.0" fill="#C8352B" transform="matrix(1.00, 0.00, -0.00, -1.00, 88.2, 151.2)">x</text><text xml:space="preserve" font-family="Courier,Courier" font-size="24.0" fill="#C8352B" transform="matrix(1.00, 0.00, -0.00, -1.00, 102.6, 151.2)">p</text><text xml:space="preserve" font-family="Courier,Courier" font-size="24.0" fill="#C8352B" transform="matrix(1.00, 0.00, -0.00, -1.00, 117.0, 151.2)">r</text><text xml:space="preserve" font-family="Courier,Courier" font-size="24.0" fill="#C8352B" transform="matrix(1.00, 0.00, -0.00, -1.00, 131.4, 151.2)">e</text><text xml:space="preserve" font-family="Courier,Courier" font-size="24.0" fill="#C8352B" transform="matrix(1.00, 0.00, -0.00, -1.00, 145.8, 151.2)">s</text><text xml:space="preserve" font-family="Courier,Courier" font-size="24.0" fill="#C8352B" transform="matrix(1.00, 0.00, -0.00, -1.00, 160.2, 151.2)">s</text><text xml:space="preserve" font-family="Courier,Courier" font-size="24.0" fill="#C8352B" transform="matrix(1.00, 0.00, -0.00, -1.00, 174.6, 151.2)">i</text><text xml:space="preserve" font-family="Courier,Courier" font-size="24.0" fill="#C8352B" transform="matrix(1.00, 0.00, -0.00, -1.00, 189.0, 151.2)">o</text><text xml:space="preserve" font-family="Courier,Courier" font-size="24.0" fill="#C8352B" transform="matrix(1.00, 0.00, -0.00, -1.00, 203.4, 151.2)">n</text><text xml:space="preserve" font-family="Courier,Courier" font-size="24.0" fill="#C8352B" transform="matrix(1.00, 0.00, -0.00, -1.00, 217.8, 151.2)">"</text><text xml:space="preserve" font-family="Courier,Courier" font-size="24.0" fill="#797979" transform="matrix(1.00, 0.00, -0.00, -1.00, 232.2, 151.2)">:</text><text xml:space="preserve" font-family="Courier,Courier" font-size="24.0" fill="#000000" transform="matrix(1.00, 0.00, -0.00, -1.00, 246.6, 151.2)"> </text><text xml:space="preserve" font-family="Courier,Courier" font-size="24.0" fill="#000000" transform="matrix(1.00, 0.00, -0.00, -1.00, 261.0, 151.2)">{</text><text xml:space="preserve" font-family="Courier,Courier" font-size="24.0" fill="#000000" transform="matrix(1.00, 0.00, -0.00, -1.00, 1.8, 122.2)"> </text><text xml:space="preserve" font-family="Courier,Courier" font-size="24.0" fill="#000000" transform="matrix(1.00, 0.00, -0.00, -1.00, 16.2, 122.2)"> </text><text xml:space="preserve" font-family="Courier,Courier" font-size="24.0" fill="#000000" transform="matrix(1.00, 0.00, -0.00, -1.00, 30.6, 122.2)"> </text><text xml:space="preserve" font-family="Courier,Courier" font-size="24.0" fill="#000000" transform="matrix(1.00, 0.00, -0.00, -1.00, 45.0, 122.2)"> </text><text xml:space="preserve" font-family="Courier,Courier" font-size="24.0" fill="#000000" transform="matrix(1.00, 0.00, -0.00, -1.00, 59.4, 122.2)"> </text><text xml:space="preserve" font-family="Courier,Courier" font-size="24.0" fill="#000000" transform="matrix(1.00, 0.00, -0.00, -1.00, 73.8, 122.2)"> </text><text xml:space="preserve" font-family="Courier,Courier" font-size="24.0" fill="#C8352B" transform="matrix(1.00, 0.00, -0.00, -1.00, 88.2, 122.2)">"</text><text xml:space="preserve" font-family="Courier,Courier" font-size="24.0" fill="#C8352B" transform="matrix(1.00, 0.00, -0.00, -1.00, 102.6, 122.2)">t</text><text xml:space="preserve" font-family="Courier,Courier" font-size="24.0" fill="#C8352B" transform="matrix(1.00, 0.00, -0.00, -1.00, 117.0, 122.2)">y</text><text xml:space="preserve" font-family="Courier,Courier" font-size="24.0" fill="#C8352B" transform="matrix(1.00, 0.00, -0.00, -1.00, 131.4, 122.2)">p</text><text xml:space="preserve" font-family="Courier,Courier" font-size="24.0" fill="#C8352B" transform="matrix(1.00, 0.00, -0.00, -1.00, 145.8, 122.2)">e</text><text xml:space="preserve" font-family="Courier,Courier" font-size="24.0" fill="#C8352B" transform="matrix(1.00, 0.00, -0.00, -1.00, 160.2, 122.2)">"</text><text xml:space="preserve" font-family="Courier,Courier" font-size="24.0" fill="#797979" transform="matrix(1.00, 0.00, -0.00, -1.00, 174.6, 122.2)">:</text><text xml:space="preserve" font-family="Courier,Courier" font-size="24.0" fill="#000000" transform="matrix(1.00, 0.00, -0.00, -1.00, 189.0, 122.2)"> </text><text xml:space="preserve" font-family="Courier,Courier" font-size="24.0" fill="#C8352B" transform="matrix(1.00, 0.00, -0.00, -1.00, 203.4, 122.2)">"</text><text xml:space="preserve" font-family="Courier,Courier" font-size="24.0" fill="#C8352B" transform="matrix(1.00, 0.00, -0.00, -1.00, 217.8, 122.2)">C</text><text xml:space="preserve" font-family="Courier,Courier" font-size="24.0" fill="#C8352B" transform="matrix(1.00, 0.00, -0.00, -1.00, 232.2, 122.2)">a</text><text xml:space="preserve" font-family="Courier,Courier" font-size="24.0" fill="#C8352B" transform="matrix(1.00, 0.00, -0.00, -1.00, 246.6, 122.2)">l</text><text xml:space="preserve" font-family="Courier,Courier" font-size="24.0" fill="#C8352B" transform="matrix(1.00, 0.00, -0.00, -1.00, 261.0, 122.2)">l</text><text xml:space="preserve" font-family="Courier,Courier" font-size="24.0" fill="#C8352B" transform="matrix(1.00, 0.00, -0.00, -1.00, 275.4, 122.2)">E</text><text xml:space="preserve" font-family="Courier,Courier" font-size="24.0" fill="#C8352B" transform="matrix(1.00, 0.00, -0.00, -1.00, 289.8, 122.2)">x</text><text xml:space="preserve" font-family="Courier,Courier" font-size="24.0" fill="#C8352B" transform="matrix(1.00, 0.00, -0.00, -1.00, 304.2, 122.2)">p</text><text xml:space="preserve" font-family="Courier,Courier" font-size="24.0" fill="#C8352B" transform="matrix(1.00, 0.00, -0.00, -1.00, 318.6, 122.2)">r</text><text xml:space="preserve" font-family="Courier,Courier" font-size="24.0" fill="#C8352B" transform="matrix(1.00, 0.00, -0.00, -1.00, 333.0, 122.2)">e</text><text xml:space="preserve" font-family="Courier,Courier" font-size="24.0" fill="#C8352B" transform="matrix(1.00, 0.00, -0.00, -1.00, 347.4, 122.2)">s</text><text xml:space="preserve" font-family="Courier,Courier" font-size="24.0" fill="#C8352B" transform="matrix(1.00, 0.00, -0.00, -1.00, 361.8, 122.2)">s</text><text xml:space="preserve" font-family="Courier,Courier" font-size="24.0" fill="#C8352B" transform="matrix(1.00, 0.00, -0.00, -1.00, 376.2, 122.2)">i</text><text xml:space="preserve" font-family="Courier,Courier" font-size="24.0" fill="#C8352B" transform="matrix(1.00, 0.00, -0.00, -1.00, 390.7, 122.2)">o</text><text xml:space="preserve" font-family="Courier,Courier" font-size="24.0" fill="#C8352B" transform="matrix(1.00, 0.00, -0.00, -1.00, 405.1, 122.2)">n</text><text xml:space="preserve" font-family="Courier,Courier" font-size="24.0" fill="#C8352B" transform="matrix(1.00, 0.00, -0.00, -1.00, 419.5, 122.2)">"</text><text xml:space="preserve" font-family="Courier,Courier" font-size="24.0" fill="#000000" transform="matrix(1.00, 0.00, -0.00, -1.00, 433.9, 122.2)">,</text><text xml:space="preserve" font-family="Courier,Courier" font-size="24.0" fill="#000000" transform="matrix(1.00, 0.00, -0.00, -1.00, 1.8, 93.2)"> </text><text xml:space="preserve" font-family="Courier,Courier" font-size="24.0" fill="#000000" transform="matrix(1.00, 0.00, -0.00, -1.00, 16.2, 93.2)"> </text><text xml:space="preserve" font-family="Courier,Courier" font-size="24.0" fill="#000000" transform="matrix(1.00, 0.00, -0.00, -1.00, 30.6, 93.2)"> </text><text xml:space="preserve" font-family="Courier,Courier" font-size="24.0" fill="#000000" transform="matrix(1.00, 0.00, -0.00, -1.00, 45.0, 93.2)"> </text><text xml:space="preserve" font-family="Courier,Courier" font-size="24.0" fill="#000000" transform="matrix(1.00, 0.00, -0.00, -1.00, 59.4, 93.2)"> </text><text xml:space="preserve" font-family="Courier,Courier" font-size="24.0" fill="#000000" transform="matrix(1.00, 0.00, -0.00, -1.00, 73.8, 93.2)"> </text><text xml:space="preserve" font-family="Courier,Courier" font-size="24.0" fill="#C8352B" transform="matrix(1.00, 0.00, -0.00, -1.00, 88.2, 93.2)">"</text><text xml:space="preserve" font-family="Courier,Courier" font-size="24.0" fill="#C8352B" transform="matrix(1.00, 0.00, -0.00, -1.00, 102.6, 93.2)">c</text><text xml:space="preserve" font-family="Courier,Courier" font-size="24.0" fill="#C8352B" transform="matrix(1.00, 0.00, -0.00, -1.00, 117.0, 93.2)">a</text><text xml:space="preserve" font-family="Courier,Courier" font-size="24.0" fill="#C8352B" transform="matrix(1.00, 0.00, -0.00, -1.00, 131.4, 93.2)">l</text><text xml:space="preserve" font-family="Courier,Courier" font-size="24.0" fill="#C8352B" transform="matrix(1.00, 0.00, -0.00, -1.00, 145.8, 93.2)">l</text><text xml:space="preserve" font-family="Courier,Courier" font-size="24.0" fill="#C8352B" transform="matrix(1.00, 0.00, -0.00, -1.00, 160.2, 93.2)">e</text><text xml:space="preserve" font-family="Courier,Courier" font-size="24.0" fill="#C8352B" transform="matrix(1.00, 0.00, -0.00, -1.00, 174.6, 93.2)">e</text><text xml:space="preserve" font-family="Courier,Courier" font-size="24.0" fill="#C8352B" transform="matrix(1.00, 0.00, -0.00, -1.00, 189.0, 93.2)">"</text><text xml:space="preserve" font-family="Courier,Courier" font-size="24.0" fill="#797979" transform="matrix(1.00, 0.00, -0.00, -1.00, 203.4, 93.2)">:</text><text xml:space="preserve" font-family="Courier,Courier" font-size="24.0" fill="#000000" transform="matrix(1.00, 0.00, -0.00, -1.00, 217.8, 93.2)"> </text><text xml:space="preserve" font-family="Courier,Courier" font-size="24.0" fill="#000000" transform="matrix(1.00, 0.00, -0.00, -1.00, 232.2, 93.2)">{</text><text xml:space="preserve" font-family="Courier,Courier" font-size="24.0" fill="#000000" transform="matrix(1.00, 0.00, -0.00, -1.00, 1.8, 64.2)"> </text><text xml:space="preserve" font-family="Courier,Courier" font-size="24.0" fill="#000000" transform="matrix(1.00, 0.00, -0.00, -1.00, 16.2, 64.2)"> </text><text xml:space="preserve" font-family="Courier,Courier" font-size="24.0" fill="#000000" transform="matrix(1.00, 0.00, -0.00, -1.00, 30.6, 64.2)"> </text><text xml:space="preserve" font-family="Courier,Courier" font-size="24.0" fill="#000000" transform="matrix(1.00, 0.00, -0.00, -1.00, 45.0, 64.2)"> </text><text xml:space="preserve" font-family="Courier,Courier" font-size="24.0" fill="#000000" transform="matrix(1.00, 0.00, -0.00, -1.00, 59.4, 64.2)"> </text><text xml:space="preserve" font-family="Courier,Courier" font-size="24.0" fill="#000000" transform="matrix(1.00, 0.00, -0.00, -1.00, 73.8, 64.2)"> </text><text xml:space="preserve" font-family="Courier,Courier" font-size="24.0" fill="#000000" transform="matrix(1.00, 0.00, -0.00, -1.00, 88.2, 64.2)"> </text><text xml:space="preserve" font-family="Courier,Courier" font-size="24.0" fill="#000000" transform="matrix(1.00, 0.00, -0.00, -1.00, 102.6, 64.2)"> </text><text xml:space="preserve" font-family="Courier,Courier" font-size="24.0" fill="#000000" transform="matrix(1.00, 0.00, -0.00, -1.00, 117.0, 64.2)"> </text><text xml:space="preserve" font-family="Courier,Courier" font-size="24.0" fill="#000000" transform="matrix(1.00, 0.00, -0.00, -1.00, 131.4, 64.2)"> </text><text xml:space="preserve" font-family="Courier,Courier" font-size="24.0" fill="#C8352B" transform="matrix(1.00, 0.00, -0.00, -1.00, 145.8, 64.2)">"</text><text xml:space="preserve" font-family="Courier,Courier" font-size="24.0" fill="#C8352B" transform="matrix(1.00, 0.00, -0.00, -1.00, 160.2, 64.2)">t</text><text xml:space="preserve" font-family="Courier,Courier" font-size="24.0" fill="#C8352B" transform="matrix(1.00, 0.00, -0.00, -1.00, 174.6, 64.2)">y</text><text xml:space="preserve" font-family="Courier,Courier" font-size="24.0" fill="#C8352B" transform="matrix(1.00, 0.00, -0.00, -1.00, 189.0, 64.2)">p</text><text xml:space="preserve" font-family="Courier,Courier" font-size="24.0" fill="#C8352B" transform="matrix(1.00, 0.00, -0.00, -1.00, 203.4, 64.2)">e</text><text xml:space="preserve" font-family="Courier,Courier" font-size="24.0" fill="#C8352B" transform="matrix(1.00, 0.00, -0.00, -1.00, 217.8, 64.2)">"</text><text xml:space="preserve" font-family="Courier,Courier" font-size="24.0" fill="#797979" transform="matrix(1.00, 0.00, -0.00, -1.00, 232.2, 64.2)">:</text><text xml:space="preserve" font-family="Courier,Courier" font-size="24.0" fill="#000000" transform="matrix(1.00, 0.00, -0.00, -1.00, 246.6, 64.2)"> </text><text xml:space="preserve" font-family="Courier,Courier" font-size="24.0" fill="#C8352B" transform="matrix(1.00, 0.00, -0.00, -1.00, 261.0, 64.2)">"</text><text xml:space="preserve" font-family="Courier,Courier" font-size="24.0" fill="#C8352B" transform="matrix(1.00, 0.00, -0.00, -1.00, 275.4, 64.2)">I</text><text xml:space="preserve" font-family="Courier,Courier" font-size="24.0" fill="#C8352B" transform="matrix(1.00, 0.00, -0.00, -1.00, 289.8, 64.2)">d</text><text xml:space="preserve" font-family="Courier,Courier" font-size="24.0" fill="#C8352B" transform="matrix(1.00, 0.00, -0.00, -1.00, 304.2, 64.2)">e</text><text xml:space="preserve" font-family="Courier,Courier" font-size="24.0" fill="#C8352B" transform="matrix(1.00, 0.00, -0.00, -1.00, 318.6, 64.2)">n</text><text xml:space="preserve" font-family="Courier,Courier" font-size="24.0" fill="#C8352B" transform="matrix(1.00, 0.00, -0.00, -1.00, 333.0, 64.2)">t</text><text xml:space="preserve" font-family="Courier,Courier" font-size="24.0" fill="#C8352B" transform="matrix(1.00, 0.00, -0.00, -1.00, 347.4, 64.2)">i</text><text xml:space="preserve" font-family="Courier,Courier" font-size="24.0" fill="#C8352B" transform="matrix(1.00, 0.00, -0.00, -1.00, 361.8, 64.2)">f</text><text xml:space="preserve" font-family="Courier,Courier" font-size="24.0" fill="#C8352B" transform="matrix(1.00, 0.00, -0.00, -1.00, 376.2, 64.2)">i</text><text xml:space="preserve" font-family="Courier,Courier" font-size="24.0" fill="#C8352B" transform="matrix(1.00, 0.00, -0.00, -1.00, 390.7, 64.2)">e</text><text xml:space="preserve" font-family="Courier,Courier" font-size="24.0" fill="#C8352B" transform="matrix(1.00, 0.00, -0.00, -1.00, 405.1, 64.2)">r</text><text xml:space="preserve" font-family="Courier,Courier" font-size="24.0" fill="#C8352B" transform="matrix(1.00, 0.00, -0.00, -1.00, 419.5, 64.2)">"</text><text xml:space="preserve" font-family="Courier,Courier" font-size="24.0" fill="#000000" transform="matrix(1.00, 0.00, -0.00, -1.00, 433.9, 64.2)">,</text><text xml:space="preserve" font-family="Courier,Courier" font-size="24.0" fill="#000000" transform="matrix(1.00, 0.00, -0.00, -1.00, 1.8, 35.2)"> </text><text xml:space="preserve" font-family="Courier,Courier" font-size="24.0" fill="#000000" transform="matrix(1.00, 0.00, -0.00, -1.00, 16.2, 35.2)"> </text><text xml:space="preserve" font-family="Courier,Courier" font-size="24.0" fill="#000000" transform="matrix(1.00, 0.00, -0.00, -1.00, 30.6, 35.2)"> </text><text xml:space="preserve" font-family="Courier,Courier" font-size="24.0" fill="#000000" transform="matrix(1.00, 0.00, -0.00, -1.00, 45.0, 35.2)"> </text><text xml:space="preserve" font-family="Courier,Courier" font-size="24.0" fill="#000000" transform="matrix(1.00, 0.00, -0.00, -1.00, 59.4, 35.2)"> </text><text xml:space="preserve" font-family="Courier,Courier" font-size="24.0" fill="#000000" transform="matrix(1.00, 0.00, -0.00, -1.00, 73.8, 35.2)"> </text><text xml:space="preserve" font-family="Courier,Courier" font-size="24.0" fill="#000000" transform="matrix(1.00, 0.00, -0.00, -1.00, 88.2, 35.2)"> </text><text xml:space="preserve" font-family="Courier,Courier" font-size="24.0" fill="#000000" transform="matrix(1.00, 0.00, -0.00, -1.00, 102.6, 35.2)"> </text><text xml:space="preserve" font-family="Courier,Courier" font-size="24.0" fill="#000000" transform="matrix(1.00, 0.00, -0.00, -1.00, 117.0, 35.2)"> </text><text xml:space="preserve" font-family="Courier,Courier" font-size="24.0" fill="#000000" transform="matrix(1.00, 0.00, -0.00, -1.00, 131.4, 35.2)"> </text><text xml:space="preserve" font-family="Courier,Courier" font-size="24.0" fill="#C8352B" transform="matrix(1.00, 0.00, -0.00, -1.00, 145.8, 35.2)">"</text><text xml:space="preserve" font-family="Courier,Courier" font-size="24.0" fill="#C8352B" transform="matrix(1.00, 0.00, -0.00, -1.00, 160.2, 35.2)">n</text><text xml:space="preserve" font-family="Courier,Courier" font-size="24.0" fill="#C8352B" transform="matrix(1.00, 0.00, -0.00, -1.00, 174.6, 35.2)">a</text><text xml:space="preserve" font-family="Courier,Courier" font-size="24.0" fill="#C8352B" transform="matrix(1.00, 0.00, -0.00, -1.00, 189.0, 35.2)">m</text><text xml:space="preserve" font-family="Courier,Courier" font-size="24.0" fill="#C8352B" transform="matrix(1.00, 0.00, -0.00, -1.00, 203.4, 35.2)">e</text><text xml:space="preserve" font-family="Courier,Courier" font-size="24.0" fill="#C8352B" transform="matrix(1.00, 0.00, -0.00, -1.00, 217.8, 35.2)">"</text><text xml:space="preserve" font-family="Courier,Courier" font-size="24.0" fill="#797979" transform="matrix(1.00, 0.00, -0.00, -1.00, 232.2, 35.2)">:</text><text xml:space="preserve" font-family="Courier,Courier" font-size="24.0" fill="#000000" transform="matrix(1.00, 0.00, -0.00, -1.00, 246.6, 35.2)"> </text><text xml:space="preserve" font-family="Courier,Courier" font-size="24.0" fill="#C8352B" transform="matrix(1.00, 0.00, -0.00, -1.00, 261.0, 35.2)">"</text><text xml:space="preserve" font-family="Courier,Courier" font-size="24.0" fill="#C8352B" transform="matrix(1.00, 0.00, -0.00, -1.00, 275.4, 35.2)">d</text><text xml:space="preserve" font-family="Courier,Courier" font-size="24.0" fill="#C8352B" transform="matrix(1.00, 0.00, -0.00, -1.00, 289.8, 35.2)">e</text><text xml:space="preserve" font-family="Courier,Courier" font-size="24.0" fill="#C8352B" transform="matrix(1.00, 0.00, -0.00, -1.00, 304.2, 35.2)">f</text><text xml:space="preserve" font-family="Courier,Courier" font-size="24.0" fill="#C8352B" transform="matrix(1.00, 0.00, -0.00, -1.00, 318.6, 35.2)">i</text><text xml:space="preserve" font-family="Courier,Courier" font-size="24.0" fill="#C8352B" transform="matrix(1.00, 0.00, -0.00, -1.00, 333.0, 35.2)">n</text><text xml:space="preserve" font-family="Courier,Courier" font-size="24.0" fill="#C8352B" transform="matrix(1.00, 0.00, -0.00, -1.00, 347.4, 35.2)">e</text><text xml:space="preserve" font-family="Courier,Courier" font-size="24.0" fill="#C8352B" transform="matrix(1.00, 0.00, -0.00, -1.00, 361.8, 35.2)">"</text><text xml:space="preserve" font-family="Courier,Courier" font-size="24.0" fill="#000000" transform="matrix(1.00, 0.00, -0.00, -1.00, 1.8, 6.2)"> </text><text xml:space="preserve" font-family="Courier,Courier" font-size="24.0" fill="#000000" transform="matrix(1.00, 0.00, -0.00, -1.00, 16.2, 6.2)"> </text><text xml:space="preserve" font-family="Courier,Courier" font-size="24.0" fill="#000000" transform="matrix(1.00, 0.00, -0.00, -1.00, 30.6, 6.2)"> </text><text xml:space="preserve" font-family="Courier,Courier" font-size="24.0" fill="#000000" transform="matrix(1.00, 0.00, -0.00, -1.00, 45.0, 6.2)"> </text><text xml:space="preserve" font-family="Courier,Courier" font-size="24.0" fill="#000000" transform="matrix(1.00, 0.00, -0.00, -1.00, 59.4, 6.2)"> </text><text xml:space="preserve" font-family="Courier,Courier" font-size="24.0" fill="#000000" transform="matrix(1.00, 0.00, -0.00, -1.00, 73.8, 6.2)"> </text><text xml:space="preserve" font-family="Courier,Courier" font-size="24.0" fill="#000000" transform="matrix(1.00, 0.00, -0.00, -1.00, 88.2, 6.2)">}</text><text xml:space="preserve" font-family="Courier,Courier" font-size="24.0" fill="#000000" transform="matrix(1.00, 0.00, -0.00, -1.00, 102.6, 6.2)">,</text></g></svg>