<?xml version="1.0" encoding="UTF-8" standalone="no"?><svg xmlns="http://www.w3.org/2000/svg" xmlns:xlink="http://www.w3.org/1999/xlink" clip-rule="evenodd" stroke-miterlimit="10" viewBox="0 0 388 26"><desc>SVG generated by Keynote</desc><defs></defs><g transform="matrix(1.00, 0.00, -0.00, -1.00, 0.0, 26.0)"><text xml:space="preserve" font-family="Courier-Bold,Courier" font-weight="bold" font-size="26.0" fill="#008E00" transform="matrix(1.00, 0.00, -0.00, -1.00, -0.1, 6.9)">i</text><text xml:space="preserve" font-family="Courier-Bold,Courier" font-weight="bold" font-size="26.0" fill="#008E00" transform="matrix(1.00, 0.00, -0.00, -1.00, 15.5, 6.9)">f</text><text xml:space="preserve" font-family="Courier,Courier" font-size="26.0" fill="#000000" transform="matrix(1.00, 0.00, -0.00, -1.00, 31.1, 6.9)"> </text><text xml:space="preserve" font-family="Courier,Courier" font-size="26.0" fill="#000000" transform="matrix(1.00, 0.00, -0.00, -1.00, 46.7, 6.9)">(</text><text xml:space="preserve" font-family="Courier,Courier" font-size="26.0" fill="#000000" transform="matrix(1.00, 0.00, -0.00, -1.00, 62.3, 6.9)">a</text><text xml:space="preserve" font-family="Courier,Courier" font-size="26.0" fill="#000000" transform="matrix(1.00, 0.00, -0.00, -1.00, 77.9, 6.9)">c</text><text xml:space="preserve" font-family="Courier,Courier" font-size="26.0" fill="#000000" transform="matrix(1.00, 0.00, -0.00, -1.00, 93.5, 6.9)">t</text><text xml:space="preserve" font-family="Courier,Courier" font-size="26.0" fill="#000000" transform="matrix(1.00, 0.00, -0.00, -1.00, 109.1, 6.9)">i</text><text xml:space="preserve" font-family="Courier,Courier" font-size="26.0" fill="#000000" transform="matrix(1.00, 0.00, -0.00, -1.00, 124.7, 6.9)">o</text><text xml:space="preserve" font-family="Courier,Courier" font-size="26.0" fill="#000000" transform="matrix(1.00, 0.00, -0.00, -1.00, 140.3, 6.9)">n</text><text xml:space="preserve" font-family="Courier,Courier" font-size="26.0" fill="#000000" transform="matrix(1.00, 0.00, -0.00, -1.00, 155.9, 6.9)"> </text><text xml:space="preserve" font-family="Courier,Courier" font-size="26.0" fill="#797979" transform="matrix(1.00, 0.00, -0.00, -1.00, 171.5, 6.9)">=</text><text xml:space="preserve" font-family="Courier,Courier" font-size="26.0" fill="#797979" transform="matrix(1.00, 0.00, -0.00, -1.00, 187.1, 6.9)">=</text><text xml:space="preserve" font-family="Courier,Courier" font-size="26.0" fill="#797979" transform="matrix(1.00, 0.00, -0.00, -1.00, 202.7, 6.9)">=</text><text xml:space="preserve" font-family="Courier,Courier" font-size="26.0" fill="#000000" transform="matrix(1.00, 0.00, -0.00, -1.00, 218.3, 6.9)"> </text><text xml:space="preserve" font-family="Courier,Courier" font-size="26.0" fill="#C8352B" transform="matrix(1.00, 0.00, -0.00, -1.00, 233.9, 6.9)">'</text><text xml:space="preserve" font-family="Courier,Courier" font-size="26.0" fill="#C8352B" transform="matrix(1.00, 0.00, -0.00, -1.00, 249.5, 6.9)">a</text><text xml:space="preserve" font-family="Courier,Courier" font-size="26.0" fill="#C8352B" transform="matrix(1.00, 0.00, -0.00, -1.00, 265.1, 6.9)">d</text><text xml:space="preserve" font-family="Courier,Courier" font-size="26.0" fill="#C8352B" transform="matrix(1.00, 0.00, -0.00, -1.00, 280.7, 6.9)">d</text><text xml:space="preserve" font-family="Courier,Courier" font-size="26.0" fill="#C8352B" transform="matrix(1.00, 0.00, -0.00, -1.00, 296.3, 6.9)">e</text><text xml:space="preserve" font-family="Courier,Courier" font-size="26.0" fill="#C8352B" transform="matrix(1.00, 0.00, -0.00, -1.00, 311.9, 6.9)">d</text><text xml:space="preserve" font-family="Courier,Courier" font-size="26.0" fill="#C8352B" transform="matrix(1.00, 0.00, -0.00, -1.00, 327.5, 6.9)">'</text><text xml:space="preserve" font-family="Courier,Courier" font-size="26.0" fill="#000000" transform="matrix(1.00, 0.00, -0.00, -1.00, 343.1, 6.9)">)</text><text xml:space="preserve" font-family="Courier,Courier" font-size="26.0" fill="#000000" transform="matrix(1.00, 0.00, -0.00, -1.00, 358.7, 6.9)"> </text><text xml:space="preserve" font-family="Courier,Courier" font-size="26.0" fill="#000000" transform="matrix(1.00, 0.00, -0.00, -1.00, 374.3, 6.9)">{</text></g></svg>