<?xml version="1.0" encoding="UTF-8" standalone="no"?><svg xmlns="http://www.w3.org/2000/svg" xmlns:xlink="http://www.w3.org/1999/xlink" clip-rule="evenodd" stroke-miterlimit="10" viewBox="0 0 513 26"><desc>SVG generated by Keynote</desc><defs></defs><g transform="matrix(1.00, 0.00, -0.00, -1.00, 0.0, 26.0)"><text xml:space="preserve" font-family="Courier-Bold,Courier" font-weight="bold" font-size="26.0" fill="#008E00" transform="matrix(1.00, 0.00, -0.00, -1.00, 1.9, 6.9)">v</text><text xml:space="preserve" font-family="Courier-Bold,Courier" font-weight="bold" font-size="26.0" fill="#008E00" transform="matrix(1.00, 0.00, -0.00, -1.00, 17.5, 6.9)">a</text><text xml:space="preserve" font-family="Courier-Bold,Courier" font-weight="bold" font-size="26.0" fill="#008E00" transform="matrix(1.00, 0.00, -0.00, -1.00, 33.1, 6.9)">r</text><text xml:space="preserve" font-family="Courier,Courier" font-size="26.0" fill="#000000" transform="matrix(1.00, 0.00, -0.00, -1.00, 48.7, 6.9)"> </text><text xml:space="preserve" font-family="Courier,Courier" font-size="26.0" fill="#000000" transform="matrix(1.00, 0.00, -0.00, -1.00, 64.3, 6.9)">e</text><text xml:space="preserve" font-family="Courier,Courier" font-size="26.0" fill="#000000" transform="matrix(1.00, 0.00, -0.00, -1.00, 79.9, 6.9)">x</text><text xml:space="preserve" font-family="Courier,Courier" font-size="26.0" fill="#000000" transform="matrix(1.00, 0.00, -0.00, -1.00, 95.5, 6.9)">t</text><text xml:space="preserve" font-family="Courier,Courier" font-size="26.0" fill="#000000" transform="matrix(1.00, 0.00, -0.00, -1.00, 111.1, 6.9)"> </text><text xml:space="preserve" font-family="Courier,Courier" font-size="26.0" fill="#797979" transform="matrix(1.00, 0.00, -0.00, -1.00, 126.7, 6.9)">=</text><text xml:space="preserve" font-family="Courier,Courier" font-size="26.0" fill="#000000" transform="matrix(1.00, 0.00, -0.00, -1.00, 142.3, 6.9)"> </text><text xml:space="preserve" font-family="Courier,Courier" font-size="26.0" fill="#000000" transform="matrix(1.00, 0.00, -0.00, -1.00, 157.9, 6.9)">p</text><text xml:space="preserve" font-family="Courier,Courier" font-size="26.0" fill="#000000" transform="matrix(1.00, 0.00, -0.00, -1.00, 173.5, 6.9)">a</text><text xml:space="preserve" font-family="Courier,Courier" font-size="26.0" fill="#000000" transform="matrix(1.00, 0.00, -0.00, -1.00, 189.1, 6.9)">t</text><text xml:space="preserve" font-family="Courier,Courier" font-size="26.0" fill="#000000" transform="matrix(1.00, 0.00, -0.00, -1.00, 204.7, 6.9)">h</text><text xml:space="preserve" font-family="Courier,Courier" font-size="26.0" fill="#000000" transform="matrix(1.00, 0.00, -0.00, -1.00, 220.3, 6.9)">.</text><text xml:space="preserve" font-family="Courier,Courier" font-size="26.0" fill="#000000" transform="matrix(1.00, 0.00, -0.00, -1.00, 235.9, 6.9)">e</text><text xml:space="preserve" font-family="Courier,Courier" font-size="26.0" fill="#000000" transform="matrix(1.00, 0.00, -0.00, -1.00, 251.5, 6.9)">x</text><text xml:space="preserve" font-family="Courier,Courier" font-size="26.0" fill="#000000" transform="matrix(1.00, 0.00, -0.00, -1.00, 267.1, 6.9)">t</text><text xml:space="preserve" font-family="Courier,Courier" font-size="26.0" fill="#000000" transform="matrix(1.00, 0.00, -0.00, -1.00, 282.7, 6.9)">n</text><text xml:space="preserve" font-family="Courier,Courier" font-size="26.0" fill="#000000" transform="matrix(1.00, 0.00, -0.00, -1.00, 298.3, 6.9)">a</text><text xml:space="preserve" font-family="Courier,Courier" font-size="26.0" fill="#000000" transform="matrix(1.00, 0.00, -0.00, -1.00, 313.9, 6.9)">m</text><text xml:space="preserve" font-family="Courier,Courier" font-size="26.0" fill="#000000" transform="matrix(1.00, 0.00, -0.00, -1.00, 329.5, 6.9)">e</text><text xml:space="preserve" font-family="Courier,Courier" font-size="26.0" fill="#000000" transform="matrix(1.00, 0.00, -0.00, -1.00, 345.1, 6.9)">(</text><text xml:space="preserve" font-family="Courier,Courier" font-size="26.0" fill="#000000" transform="matrix(1.00, 0.00, -0.00, -1.00, 360.7, 6.9)">f</text><text xml:space="preserve" font-family="Courier,Courier" font-size="26.0" fill="#000000" transform="matrix(1.00, 0.00, -0.00, -1.00, 376.3, 6.9)">i</text><text xml:space="preserve" font-family="Courier,Courier" font-size="26.0" fill="#000000" transform="matrix(1.00, 0.00, -0.00, -1.00, 391.9, 6.9)">l</text><text xml:space="preserve" font-family="Courier,Courier" font-size="26.0" fill="#000000" transform="matrix(1.00, 0.00, -0.00, -1.00, 407.5, 6.9)">e</text><text xml:space="preserve" font-family="Courier,Courier" font-size="26.0" fill="#000000" transform="matrix(1.00, 0.00, -0.00, -1.00, 423.1, 6.9)">p</text><text xml:space="preserve" font-family="Courier,Courier" font-size="26.0" fill="#000000" transform="matrix(1.00, 0.00, -0.00, -1.00, 438.7, 6.9)">a</text><text xml:space="preserve" font-family="Courier,Courier" font-size="26.0" fill="#000000" transform="matrix(1.00, 0.00, -0.00, -1.00, 454.3, 6.9)">t</text><text xml:space="preserve" font-family="Courier,Courier" font-size="26.0" fill="#000000" transform="matrix(1.00, 0.00, -0.00, -1.00, 469.9, 6.9)">h</text><text xml:space="preserve" font-family="Courier,Courier" font-size="26.0" fill="#000000" transform="matrix(1.00, 0.00, -0.00, -1.00, 485.6, 6.9)">)</text><text xml:space="preserve" font-family="Courier,Courier" font-size="26.0" fill="#000000" transform="matrix(1.00, 0.00, -0.00, -1.00, 501.2, 6.9)">;</text></g></svg>