<?xml version="1.0" encoding="UTF-8" standalone="no"?><svg xmlns="http://www.w3.org/2000/svg" xmlns:xlink="http://www.w3.org/1999/xlink" clip-rule="evenodd" stroke-miterlimit="10" viewBox="0 0 497 26"><desc>SVG generated by Keynote</desc><defs></defs><g transform="matrix(1.00, 0.00, -0.00, -1.00, 0.0, 26.0)"><text xml:space="preserve" font-family="Courier,Courier" font-size="26.0" fill="#000000" transform="matrix(1.00, 0.00, -0.00, -1.00, 1.1, 6.9)">p</text><text xml:space="preserve" font-family="Courier,Courier" font-size="26.0" fill="#000000" transform="matrix(1.00, 0.00, -0.00, -1.00, 16.7, 6.9)">r</text><text xml:space="preserve" font-family="Courier,Courier" font-size="26.0" fill="#000000" transform="matrix(1.00, 0.00, -0.00, -1.00, 32.3, 6.9)">o</text><text xml:space="preserve" font-family="Courier,Courier" font-size="26.0" fill="#000000" transform="matrix(1.00, 0.00, -0.00, -1.00, 47.9, 6.9)">c</text><text xml:space="preserve" font-family="Courier,Courier" font-size="26.0" fill="#000000" transform="matrix(1.00, 0.00, -0.00, -1.00, 63.5, 6.9)">e</text><text xml:space="preserve" font-family="Courier,Courier" font-size="26.0" fill="#000000" transform="matrix(1.00, 0.00, -0.00, -1.00, 79.1, 6.9)">s</text><text xml:space="preserve" font-family="Courier,Courier" font-size="26.0" fill="#000000" transform="matrix(1.00, 0.00, -0.00, -1.00, 94.7, 6.9)">s</text><text xml:space="preserve" font-family="Courier,Courier" font-size="26.0" fill="#000000" transform="matrix(1.00, 0.00, -0.00, -1.00, 110.3, 6.9)">.</text><text xml:space="preserve" font-family="Courier,Courier" font-size="26.0" fill="#000000" transform="matrix(1.00, 0.00, -0.00, -1.00, 125.9, 6.9)">s</text><text xml:space="preserve" font-family="Courier,Courier" font-size="26.0" fill="#000000" transform="matrix(1.00, 0.00, -0.00, -1.00, 141.5, 6.9)">e</text><text xml:space="preserve" font-family="Courier,Courier" font-size="26.0" fill="#000000" transform="matrix(1.00, 0.00, -0.00, -1.00, 157.1, 6.9)">n</text><text xml:space="preserve" font-family="Courier,Courier" font-size="26.0" fill="#000000" transform="matrix(1.00, 0.00, -0.00, -1.00, 172.7, 6.9)">d</text><text xml:space="preserve" font-family="Courier,Courier" font-size="26.0" fill="#000000" transform="matrix(1.00, 0.00, -0.00, -1.00, 188.3, 6.9)">(</text><text xml:space="preserve" font-family="Courier,Courier" font-size="26.0" fill="#C8352B" transform="matrix(1.00, 0.00, -0.00, -1.00, 203.9, 6.9)">'</text><text xml:space="preserve" font-family="Courier,Courier" font-size="26.0" fill="#C8352B" transform="matrix(1.00, 0.00, -0.00, -1.00, 219.5, 6.9)">E</text><text xml:space="preserve" font-family="Courier,Courier" font-size="26.0" fill="#C8352B" transform="matrix(1.00, 0.00, -0.00, -1.00, 235.1, 6.9)">X</text><text xml:space="preserve" font-family="Courier,Courier" font-size="26.0" fill="#C8352B" transform="matrix(1.00, 0.00, -0.00, -1.00, 250.7, 6.9)">T</text><text xml:space="preserve" font-family="Courier,Courier" font-size="26.0" fill="#C8352B" transform="matrix(1.00, 0.00, -0.00, -1.00, 266.3, 6.9)">A</text><text xml:space="preserve" font-family="Courier,Courier" font-size="26.0" fill="#C8352B" transform="matrix(1.00, 0.00, -0.00, -1.00, 281.9, 6.9)">D</text><text xml:space="preserve" font-family="Courier,Courier" font-size="26.0" fill="#C8352B" transform="matrix(1.00, 0.00, -0.00, -1.00, 297.5, 6.9)">D</text><text xml:space="preserve" font-family="Courier,Courier" font-size="26.0" fill="#C8352B" transform="matrix(1.00, 0.00, -0.00, -1.00, 313.1, 6.9)">E</text><text xml:space="preserve" font-family="Courier,Courier" font-size="26.0" fill="#C8352B" transform="matrix(1.00, 0.00, -0.00, -1.00, 328.7, 6.9)">D</text><text xml:space="preserve" font-family="Courier,Courier" font-size="26.0" fill="#C8352B" transform="matrix(1.00, 0.00, -0.00, -1.00, 344.3, 6.9)">:</text><text xml:space="preserve" font-family="Courier,Courier" font-size="26.0" fill="#C8352B" transform="matrix(1.00, 0.00, -0.00, -1.00, 359.9, 6.9)">'</text><text xml:space="preserve" font-family="Courier,Courier" font-size="26.0" fill="#000000" transform="matrix(1.00, 0.00, -0.00, -1.00, 375.5, 6.9)"> </text><text xml:space="preserve" font-family="Courier,Courier" font-size="26.0" fill="#797979" transform="matrix(1.00, 0.00, -0.00, -1.00, 391.1, 6.9)">+</text><text xml:space="preserve" font-family="Courier,Courier" font-size="26.0" fill="#000000" transform="matrix(1.00, 0.00, -0.00, -1.00, 406.7, 6.9)"> </text><text xml:space="preserve" font-family="Courier,Courier" font-size="26.0" fill="#000000" transform="matrix(1.00, 0.00, -0.00, -1.00, 422.3, 6.9)">e</text><text xml:space="preserve" font-family="Courier,Courier" font-size="26.0" fill="#000000" transform="matrix(1.00, 0.00, -0.00, -1.00, 437.9, 6.9)">x</text><text xml:space="preserve" font-family="Courier,Courier" font-size="26.0" fill="#000000" transform="matrix(1.00, 0.00, -0.00, -1.00, 453.6, 6.9)">t</text><text xml:space="preserve" font-family="Courier,Courier" font-size="26.0" fill="#000000" transform="matrix(1.00, 0.00, -0.00, -1.00, 469.2, 6.9)">)</text><text xml:space="preserve" font-family="Courier,Courier" font-size="26.0" fill="#000000" transform="matrix(1.00, 0.00, -0.00, -1.00, 484.8, 6.9)">;</text></g></svg>