<?xml version="1.0" encoding="UTF-8" standalone="no"?><svg xmlns="http://www.w3.org/2000/svg" xmlns:xlink="http://www.w3.org/1999/xlink" clip-rule="evenodd" stroke-miterlimit="10" viewBox="0 0 1024 768"><desc>SVG generated by Keynote</desc><defs></defs><g transform="matrix(1.00, 0.00, -0.00, -1.00, 0.0, 768.0)"><path d="M 0.0 768.0 L 1024.0 768.0 L 1024.0 0.0 L 0.0 0.0 Z M 0.0 768.0 " fill="#FEFFFF"></path><g><clipPath id="clip0x7fa0c8f5bf50"><path d="M 109.3 413.7 L 1200.5 413.7 L 1200.5 713.7 L 109.3 713.7 Z M 109.3 413.7 "></path></clipPath><g clip-path="url(#clip0x7fa0c8f5bf50)"><text xml:space="preserve" font-family="Courier,Courier" font-size="26.0" fill="#C8352B" transform="matrix(1.00, 0.00, -0.00, -1.00, 116.5, 682.6)">"</text><text xml:space="preserve" font-family="Courier,Courier" font-size="26.0" fill="#C8352B" transform="matrix(1.00, 0.00, -0.00, -1.00, 132.1, 682.6)">r</text><text xml:space="preserve" font-family="Courier,Courier" font-size="26.0" fill="#C8352B" transform="matrix(1.00, 0.00, -0.00, -1.00, 147.7, 682.6)">e</text><text xml:space="preserve" font-family="Courier,Courier" font-size="26.0" fill="#C8352B" transform="matrix(1.00, 0.00, -0.00, -1.00, 163.3, 682.6)">q</text><text xml:space="preserve" font-family="Courier,Courier" font-size="26.0" fill="#C8352B" transform="matrix(1.00, 0.00, -0.00, -1.00, 178.9, 682.6)">u</text><text xml:space="preserve" font-family="Courier,Courier" font-size="26.0" fill="#C8352B" transform="matrix(1.00, 0.00, -0.00, -1.00, 194.5, 682.6)">i</text><text xml:space="preserve" font-family="Courier,Courier" font-size="26.0" fill="#C8352B" transform="matrix(1.00, 0.00, -0.00, -1.00, 210.1, 682.6)">r</text><text xml:space="preserve" font-family="Courier,Courier" font-size="26.0" fill="#C8352B" transform="matrix(1.00, 0.00, -0.00, -1.00, 225.7, 682.6)">e</text><text xml:space="preserve" font-family="Courier,Courier" font-size="26.0" fill="#C8352B" transform="matrix(1.00, 0.00, -0.00, -1.00, 241.3, 682.6)">j</text><text xml:space="preserve" font-family="Courier,Courier" font-size="26.0" fill="#C8352B" transform="matrix(1.00, 0.00, -0.00, -1.00, 256.9, 682.6)">s</text><text xml:space="preserve" font-family="Courier,Courier" font-size="26.0" fill="#C8352B" transform="matrix(1.00, 0.00, -0.00, -1.00, 272.5, 682.6)">"</text><text xml:space="preserve" font-family="Courier,Courier" font-size="26.0" fill="#797979" transform="matrix(1.00, 0.00, -0.00, -1.00, 288.1, 682.6)">:</text><text xml:space="preserve" font-family="Courier,Courier" font-size="26.0" fill="#000000" transform="matrix(1.00, 0.00, -0.00, -1.00, 303.7, 682.6)"> </text><text xml:space="preserve" font-family="Courier,Courier" font-size="26.0" fill="#000000" transform="matrix(1.00, 0.00, -0.00, -1.00, 319.3, 682.6)">{</text><text xml:space="preserve" font-family="Courier,Courier" font-size="26.0" fill="#000000" transform="matrix(1.00, 0.00, -0.00, -1.00, 116.5, 651.6)"> </text><text xml:space="preserve" font-family="Courier,Courier" font-size="26.0" fill="#000000" transform="matrix(1.00, 0.00, -0.00, -1.00, 132.1, 651.6)"> </text><text xml:space="preserve" font-family="Courier,Courier" font-size="26.0" fill="#C8352B" transform="matrix(1.00, 0.00, -0.00, -1.00, 147.7, 651.6)">"</text><text xml:space="preserve" font-family="Courier,Courier" font-size="26.0" fill="#C8352B" transform="matrix(1.00, 0.00, -0.00, -1.00, 163.3, 651.6)">b</text><text xml:space="preserve" font-family="Courier,Courier" font-size="26.0" fill="#C8352B" transform="matrix(1.00, 0.00, -0.00, -1.00, 178.9, 651.6)">u</text><text xml:space="preserve" font-family="Courier,Courier" font-size="26.0" fill="#C8352B" transform="matrix(1.00, 0.00, -0.00, -1.00, 194.5, 651.6)">n</text><text xml:space="preserve" font-family="Courier,Courier" font-size="26.0" fill="#C8352B" transform="matrix(1.00, 0.00, -0.00, -1.00, 210.1, 651.6)">d</text><text xml:space="preserve" font-family="Courier,Courier" font-size="26.0" fill="#C8352B" transform="matrix(1.00, 0.00, -0.00, -1.00, 225.7, 651.6)">l</text><text xml:space="preserve" font-family="Courier,Courier" font-size="26.0" fill="#C8352B" transform="matrix(1.00, 0.00, -0.00, -1.00, 241.3, 651.6)">e</text><text xml:space="preserve" font-family="Courier,Courier" font-size="26.0" fill="#C8352B" transform="matrix(1.00, 0.00, -0.00, -1.00, 256.9, 651.6)">"</text><text xml:space="preserve" font-family="Courier,Courier" font-size="26.0" fill="#797979" transform="matrix(1.00, 0.00, -0.00, -1.00, 272.5, 651.6)">:</text><text xml:space="preserve" font-family="Courier,Courier" font-size="26.0" fill="#000000" transform="matrix(1.00, 0.00, -0.00, -1.00, 288.1, 651.6)"> </text><text xml:space="preserve" font-family="Courier,Courier" font-size="26.0" fill="#000000" transform="matrix(1.00, 0.00, -0.00, -1.00, 303.7, 651.6)">{</text><text xml:space="preserve" font-family="Courier,Courier" font-size="26.0" fill="#000000" transform="matrix(1.00, 0.00, -0.00, -1.00, 116.5, 620.6)"> </text><text xml:space="preserve" font-family="Courier,Courier" font-size="26.0" fill="#000000" transform="matrix(1.00, 0.00, -0.00, -1.00, 132.1, 620.6)"> </text><text xml:space="preserve" font-family="Courier,Courier" font-size="26.0" fill="#000000" transform="matrix(1.00, 0.00, -0.00, -1.00, 147.7, 620.6)"> </text><text xml:space="preserve" font-family="Courier,Courier" font-size="26.0" fill="#000000" transform="matrix(1.00, 0.00, -0.00, -1.00, 163.3, 620.6)"> </text><text xml:space="preserve" font-family="Courier,Courier" font-size="26.0" fill="#C8352B" transform="matrix(1.00, 0.00, -0.00, -1.00, 178.9, 620.6)">"</text><text xml:space="preserve" font-family="Courier,Courier" font-size="26.0" fill="#C8352B" transform="matrix(1.00, 0.00, -0.00, -1.00, 194.5, 620.6)">o</text><text xml:space="preserve" font-family="Courier,Courier" font-size="26.0" fill="#C8352B" transform="matrix(1.00, 0.00, -0.00, -1.00, 210.1, 620.6)">p</text><text xml:space="preserve" font-family="Courier,Courier" font-size="26.0" fill="#C8352B" transform="matrix(1.00, 0.00, -0.00, -1.00, 225.7, 620.6)">t</text><text xml:space="preserve" font-family="Courier,Courier" font-size="26.0" fill="#C8352B" transform="matrix(1.00, 0.00, -0.00, -1.00, 241.3, 620.6)">i</text><text xml:space="preserve" font-family="Courier,Courier" font-size="26.0" fill="#C8352B" transform="matrix(1.00, 0.00, -0.00, -1.00, 256.9, 620.6)">o</text><text xml:space="preserve" font-family="Courier,Courier" font-size="26.0" fill="#C8352B" transform="matrix(1.00, 0.00, -0.00, -1.00, 272.5, 620.6)">n</text><text xml:space="preserve" font-family="Courier,Courier" font-size="26.0" fill="#C8352B" transform="matrix(1.00, 0.00, -0.00, -1.00, 288.1, 620.6)">s</text><text xml:space="preserve" font-family="Courier,Courier" font-size="26.0" fill="#C8352B" transform="matrix(1.00, 0.00, -0.00, -1.00, 303.7, 620.6)">"</text><text xml:space="preserve" font-family="Courier,Courier" font-size="26.0" fill="#797979" transform="matrix(1.00, 0.00, -0.00, -1.00, 319.3, 620.6)">:</text><text xml:space="preserve" font-family="Courier,Courier" font-size="26.0" fill="#000000" transform="matrix(1.00, 0.00, -0.00, -1.00, 334.9, 620.6)"> </text><text xml:space="preserve" font-family="Courier,Courier" font-size="26.0" fill="#000000" transform="matrix(1.00, 0.00, -0.00, -1.00, 350.5, 620.6)">{</text><text xml:space="preserve" font-family="Courier,Courier" font-size="26.0" fill="#000000" transform="matrix(1.00, 0.00, -0.00, -1.00, 116.5, 586.3)"> </text><text xml:space="preserve" font-family="Courier,Courier" font-size="26.0" fill="#000000" transform="matrix(1.00, 0.00, -0.00, -1.00, 132.1, 586.3)"> </text><text xml:space="preserve" font-family="Courier,Courier" font-size="26.0" fill="#000000" transform="matrix(1.00, 0.00, -0.00, -1.00, 147.7, 586.3)"> </text><text xml:space="preserve" font-family="Courier,Courier" font-size="26.0" fill="#000000" transform="matrix(1.00, 0.00, -0.00, -1.00, 163.3, 586.3)"> </text><text xml:space="preserve" font-family="Courier,Courier" font-size="26.0" fill="#000000" transform="matrix(1.00, 0.00, -0.00, -1.00, 178.9, 586.3)"> </text><text xml:space="preserve" font-family="Courier,Courier" font-size="26.0" fill="#000000" transform="matrix(1.00, 0.00, -0.00, -1.00, 194.5, 586.3)"> </text><text xml:space="preserve" font-family="Courier,Courier" font-size="26.0" fill="#C8352B" transform="matrix(1.00, 0.00, -0.00, -1.00, 210.1, 586.3)">"</text><text xml:space="preserve" font-family="Courier-Bold,Courier" font-weight="bold" font-size="29.0" fill="#C8352B" transform="matrix(1.00, 0.00, -0.00, -1.00, 225.7, 586.3)">i</text><text xml:space="preserve" font-family="Courier-Bold,Courier" font-weight="bold" font-size="29.0" fill="#C8352B" transform="matrix(1.00, 0.00, -0.00, -1.00, 243.1, 586.3)">n</text><text xml:space="preserve" font-family="Courier-Bold,Courier" font-weight="bold" font-size="29.0" fill="#C8352B" transform="matrix(1.00, 0.00, -0.00, -1.00, 260.5, 586.3)">c</text><text xml:space="preserve" font-family="Courier-Bold,Courier" font-weight="bold" font-size="29.0" fill="#C8352B" transform="matrix(1.00, 0.00, -0.00, -1.00, 277.9, 586.3)">l</text><text xml:space="preserve" font-family="Courier-Bold,Courier" font-weight="bold" font-size="29.0" fill="#C8352B" transform="matrix(1.00, 0.00, -0.00, -1.00, 295.3, 586.3)">u</text><text xml:space="preserve" font-family="Courier-Bold,Courier" font-weight="bold" font-size="29.0" fill="#C8352B" transform="matrix(1.00, 0.00, -0.00, -1.00, 312.7, 586.3)">d</text><text xml:space="preserve" font-family="Courier-Bold,Courier" font-weight="bold" font-size="29.0" fill="#C8352B" transform="matrix(1.00, 0.00, -0.00, -1.00, 330.1, 586.3)">e</text><text xml:space="preserve" font-family="Courier,Courier" font-size="26.0" fill="#C8352B" transform="matrix(1.00, 0.00, -0.00, -1.00, 347.5, 586.3)">"</text><text xml:space="preserve" font-family="Courier,Courier" font-size="26.0" fill="#797979" transform="matrix(1.00, 0.00, -0.00, -1.00, 363.1, 586.3)">:</text><text xml:space="preserve" font-family="Courier,Courier" font-size="26.0" fill="#000000" transform="matrix(1.00, 0.00, -0.00, -1.00, 378.7, 586.3)"> </text><text xml:space="preserve" font-family="Courier,Courier" font-size="26.0" fill="#C8352B" transform="matrix(1.00, 0.00, -0.00, -1.00, 394.4, 586.3)">“</text><text xml:space="preserve" font-family="Courier,Courier" font-size="26.0" fill="#C8352B" transform="matrix(1.00, 0.00, -0.00, -1.00, 410.0, 586.3)">s</text><text xml:space="preserve" font-family="Courier,Courier" font-size="26.0" fill="#C8352B" transform="matrix(1.00, 0.00, -0.00, -1.00, 425.6, 586.3)">r</text><text xml:space="preserve" font-family="Courier,Courier" font-size="26.0" fill="#C8352B" transform="matrix(1.00, 0.00, -0.00, -1.00, 441.2, 586.3)">c</text><text xml:space="preserve" font-family="Courier,Courier" font-size="26.0" fill="#C8352B" transform="matrix(1.00, 0.00, -0.00, -1.00, 456.8, 586.3)">/</text><text xml:space="preserve" font-family="Courier,Courier" font-size="26.0" fill="#C8352B" transform="matrix(1.00, 0.00, -0.00, -1.00, 472.4, 586.3)">j</text><text xml:space="preserve" font-family="Courier,Courier" font-size="26.0" fill="#C8352B" transform="matrix(1.00, 0.00, -0.00, -1.00, 488.0, 586.3)">s</text><text xml:space="preserve" font-family="Courier,Courier" font-size="26.0" fill="#C8352B" transform="matrix(1.00, 0.00, -0.00, -1.00, 503.6, 586.3)">/</text><text xml:space="preserve" font-family="Courier,Courier" font-size="26.0" fill="#C8352B" transform="matrix(1.00, 0.00, -0.00, -1.00, 519.2, 586.3)">a</text><text xml:space="preserve" font-family="Courier,Courier" font-size="26.0" fill="#C8352B" transform="matrix(1.00, 0.00, -0.00, -1.00, 534.8, 586.3)">p</text><text xml:space="preserve" font-family="Courier,Courier" font-size="26.0" fill="#C8352B" transform="matrix(1.00, 0.00, -0.00, -1.00, 550.4, 586.3)">p</text><text xml:space="preserve" font-family="Courier,Courier" font-size="26.0" fill="#C8352B" transform="matrix(1.00, 0.00, -0.00, -1.00, 566.0, 586.3)">.</text><text xml:space="preserve" font-family="Courier,Courier" font-size="26.0" fill="#C8352B" transform="matrix(1.00, 0.00, -0.00, -1.00, 581.6, 586.3)">j</text><text xml:space="preserve" font-family="Courier,Courier" font-size="26.0" fill="#C8352B" transform="matrix(1.00, 0.00, -0.00, -1.00, 597.2, 586.3)">s</text><text xml:space="preserve" font-family="Courier,Courier" font-size="26.0" fill="#C8352B" transform="matrix(1.00, 0.00, -0.00, -1.00, 612.8, 586.3)">”</text><text xml:space="preserve" font-family="Courier,Courier" font-size="26.0" fill="#000000" transform="matrix(1.00, 0.00, -0.00, -1.00, 628.4, 586.3)">,</text><text xml:space="preserve" font-family="Courier,Courier" font-size="26.0" fill="#000000" transform="matrix(1.00, 0.00, -0.00, -1.00, 116.5, 551.3)"> </text><text xml:space="preserve" font-family="Courier,Courier" font-size="26.0" fill="#000000" transform="matrix(1.00, 0.00, -0.00, -1.00, 132.1, 551.3)"> </text><text xml:space="preserve" font-family="Courier,Courier" font-size="26.0" fill="#000000" transform="matrix(1.00, 0.00, -0.00, -1.00, 147.7, 551.3)"> </text><text xml:space="preserve" font-family="Courier,Courier" font-size="26.0" fill="#000000" transform="matrix(1.00, 0.00, -0.00, -1.00, 163.3, 551.3)"> </text><text xml:space="preserve" font-family="Courier,Courier" font-size="26.0" fill="#000000" transform="matrix(1.00, 0.00, -0.00, -1.00, 178.9, 551.3)"> </text><text xml:space="preserve" font-family="Courier,Courier" font-size="26.0" fill="#000000" transform="matrix(1.00, 0.00, -0.00, -1.00, 194.5, 551.3)"> </text><text xml:space="preserve" font-family="Courier,Courier" font-size="26.0" fill="#C8352B" transform="matrix(1.00, 0.00, -0.00, -1.00, 210.1, 551.3)">"</text><text xml:space="preserve" font-family="Courier-Bold,Courier" font-weight="bold" font-size="29.0" fill="#C8352B" transform="matrix(1.00, 0.00, -0.00, -1.00, 225.7, 551.3)">o</text><text xml:space="preserve" font-family="Courier-Bold,Courier" font-weight="bold" font-size="29.0" fill="#C8352B" transform="matrix(1.00, 0.00, -0.00, -1.00, 243.1, 551.3)">u</text><text xml:space="preserve" font-family="Courier-Bold,Courier" font-weight="bold" font-size="29.0" fill="#C8352B" transform="matrix(1.00, 0.00, -0.00, -1.00, 260.5, 551.3)">t</text><text xml:space="preserve" font-family="Courier,Courier" font-size="26.0" fill="#C8352B" transform="matrix(1.00, 0.00, -0.00, -1.00, 277.9, 551.3)">"</text><text xml:space="preserve" font-family="Courier,Courier" font-size="26.0" fill="#797979" transform="matrix(1.00, 0.00, -0.00, -1.00, 293.5, 551.3)">:</text><text xml:space="preserve" font-family="Courier,Courier" font-size="26.0" fill="#000000" transform="matrix(1.00, 0.00, -0.00, -1.00, 309.1, 551.3)"> </text><text xml:space="preserve" font-family="Courier,Courier" font-size="26.0" fill="#C8352B" transform="matrix(1.00, 0.00, -0.00, -1.00, 324.7, 551.3)">“</text><text xml:space="preserve" font-family="Courier,Courier" font-size="26.0" fill="#C8352B" transform="matrix(1.00, 0.00, -0.00, -1.00, 340.3, 551.3)">b</text><text xml:space="preserve" font-family="Courier,Courier" font-size="26.0" fill="#C8352B" transform="matrix(1.00, 0.00, -0.00, -1.00, 355.9, 551.3)">u</text><text xml:space="preserve" font-family="Courier,Courier" font-size="26.0" fill="#C8352B" transform="matrix(1.00, 0.00, -0.00, -1.00, 371.5, 551.3)">i</text><text xml:space="preserve" font-family="Courier,Courier" font-size="26.0" fill="#C8352B" transform="matrix(1.00, 0.00, -0.00, -1.00, 387.1, 551.3)">l</text><text xml:space="preserve" font-family="Courier,Courier" font-size="26.0" fill="#C8352B" transform="matrix(1.00, 0.00, -0.00, -1.00, 402.8, 551.3)">d</text><text xml:space="preserve" font-family="Courier,Courier" font-size="26.0" fill="#C8352B" transform="matrix(1.00, 0.00, -0.00, -1.00, 418.4, 551.3)">.</text><text xml:space="preserve" font-family="Courier,Courier" font-size="26.0" fill="#C8352B" transform="matrix(1.00, 0.00, -0.00, -1.00, 434.0, 551.3)">j</text><text xml:space="preserve" font-family="Courier,Courier" font-size="26.0" fill="#C8352B" transform="matrix(1.00, 0.00, -0.00, -1.00, 449.6, 551.3)">s</text><text xml:space="preserve" font-family="Courier,Courier" font-size="26.0" fill="#C8352B" transform="matrix(1.00, 0.00, -0.00, -1.00, 465.2, 551.3)">"</text><text xml:space="preserve" font-family="Courier,Courier" font-size="26.0" fill="#000000" transform="matrix(1.00, 0.00, -0.00, -1.00, 116.5, 519.6)"> </text><text xml:space="preserve" font-family="Courier,Courier" font-size="26.0" fill="#000000" transform="matrix(1.00, 0.00, -0.00, -1.00, 132.1, 519.6)"> </text><text xml:space="preserve" font-family="Courier,Courier" font-size="26.0" fill="#000000" transform="matrix(1.00, 0.00, -0.00, -1.00, 147.7, 519.6)"> </text><text xml:space="preserve" font-family="Courier,Courier" font-size="26.0" fill="#000000" transform="matrix(1.00, 0.00, -0.00, -1.00, 163.3, 519.6)"> </text><text xml:space="preserve" font-family="Courier,Courier" font-size="26.0" fill="#000000" transform="matrix(1.00, 0.00, -0.00, -1.00, 178.9, 519.6)">}</text><text xml:space="preserve" font-family="Courier,Courier" font-size="26.0" fill="#000000" transform="matrix(1.00, 0.00, -0.00, -1.00, 116.5, 488.6)"> </text><text xml:space="preserve" font-family="Courier,Courier" font-size="26.0" fill="#000000" transform="matrix(1.00, 0.00, -0.00, -1.00, 132.1, 488.6)"> </text><text xml:space="preserve" font-family="Courier,Courier" font-size="26.0" fill="#000000" transform="matrix(1.00, 0.00, -0.00, -1.00, 147.7, 488.6)">}</text><text xml:space="preserve" font-family="Courier,Courier" font-size="26.0" fill="#000000" transform="matrix(1.00, 0.00, -0.00, -1.00, 116.5, 457.6)">}</text></g></g><g><clipPath id="clip0x7fa0c8f96750"><path d="M 688.0 527.4 L 879.1 527.4 L 879.1 718.5 L 688.0 718.5 Z M 688.0 527.4 "></path></clipPath><g clip-path="url(#clip0x7fa0c8f96750)"><image xlink:href="../../0099E750-43F4-4A1E-80C1-2076B752852F/assets/5920F148D175DE72B6F6E244C369D8BD.png" width="512.00" height="512.00" transform="matrix(0.37, 0.00, -0.00, -0.37, 688.0, 718.5)"></image></g></g><text xml:space="preserve" font-family="Helvetica-Light,Helvetica" font-size="36.0" fill="#000000" transform="matrix(1.00, 0.00, -0.00, -1.00, 156.1, 358.5)">S</text><text xml:space="preserve" font-family="Helvetica-Light,Helvetica" font-size="36.0" fill="#000000" transform="matrix(1.00, 0.00, -0.00, -1.00, 178.1, 358.5)">h</text><text xml:space="preserve" font-family="Helvetica-Light,Helvetica" font-size="36.0" fill="#000000" transform="matrix(1.00, 0.00, -0.00, -1.00, 198.1, 358.5)">o</text><text xml:space="preserve" font-family="Helvetica-Light,Helvetica" font-size="36.0" fill="#000000" transform="matrix(1.00, 0.00, -0.00, -1.00, 218.1, 358.5)">u</text><text xml:space="preserve" font-family="Helvetica-Light,Helvetica" font-size="36.0" fill="#000000" transform="matrix(1.00, 0.00, -0.00, -1.00, 238.1, 358.5)">l</text><text xml:space="preserve" font-family="Helvetica-Light,Helvetica" font-size="36.0" fill="#000000" transform="matrix(1.00, 0.00, -0.00, -1.00, 246.1, 358.5)">d</text><text xml:space="preserve" font-family="Helvetica-Light,Helvetica" font-size="36.0" fill="#000000" transform="matrix(1.00, 0.00, -0.00, -1.00, 268.1, 358.5)"> </text><text xml:space="preserve" font-family="Helvetica-Light,Helvetica" font-size="36.0" fill="#000000" transform="matrix(1.00, 0.00, -0.00, -1.00, 278.1, 358.5)">o</text><text xml:space="preserve" font-family="Helvetica-Light,Helvetica" font-size="36.0" fill="#000000" transform="matrix(1.00, 0.00, -0.00, -1.00, 298.1, 358.5)">u</text><text xml:space="preserve" font-family="Helvetica-Light,Helvetica" font-size="36.0" fill="#000000" transform="matrix(1.00, 0.00, -0.00, -1.00, 318.1, 358.5)">r</text><text xml:space="preserve" font-family="Helvetica-Light,Helvetica" font-size="36.0" fill="#000000" transform="matrix(1.00, 0.00, -0.00, -1.00, 330.1, 358.5)"> </text><text xml:space="preserve" font-family="Helvetica-Light,Helvetica" font-size="36.0" fill="#000000" transform="matrix(1.00, 0.00, -0.00, -1.00, 340.1, 358.5)">a</text><text xml:space="preserve" font-family="Helvetica-Light,Helvetica" font-size="36.0" fill="#000000" transform="matrix(1.00, 0.00, -0.00, -1.00, 360.1, 358.5)">p</text><text xml:space="preserve" font-family="Helvetica-Light,Helvetica" font-size="36.0" fill="#000000" transform="matrix(1.00, 0.00, -0.00, -1.00, 382.1, 358.5)">p</text><text xml:space="preserve" font-family="Helvetica-Light,Helvetica" font-size="36.0" fill="#000000" transform="matrix(1.00, 0.00, -0.00, -1.00, 404.1, 358.5)"> </text><text xml:space="preserve" font-family="Helvetica-Light,Helvetica" font-size="36.0" fill="#000000" transform="matrix(1.00, 0.00, -0.00, -1.00, 414.1, 358.5)">u</text><text xml:space="preserve" font-family="Helvetica-Light,Helvetica" font-size="36.0" fill="#000000" transform="matrix(1.00, 0.00, -0.00, -1.00, 434.2, 358.5)">s</text><text xml:space="preserve" font-family="Helvetica-Light,Helvetica" font-size="36.0" fill="#000000" transform="matrix(1.00, 0.00, -0.00, -1.00, 452.2, 358.5)">e</text><text xml:space="preserve" font-family="Helvetica-Light,Helvetica" font-size="36.0" fill="#000000" transform="matrix(1.00, 0.00, -0.00, -1.00, 472.2, 358.5)"> </text><text xml:space="preserve" font-family="Helvetica-Light,Helvetica" font-size="36.0" fill="#000000" transform="matrix(1.00, 0.00, -0.00, -1.00, 482.2, 358.5)">B</text><text xml:space="preserve" font-family="Helvetica-Light,Helvetica" font-size="36.0" fill="#000000" transform="matrix(1.00, 0.00, -0.00, -1.00, 506.2, 358.5)">r</text><text xml:space="preserve" font-family="Helvetica-Light,Helvetica" font-size="36.0" fill="#000000" transform="matrix(1.00, 0.00, -0.00, -1.00, 517.5, 358.5)">o</text><text xml:space="preserve" font-family="Helvetica-Light,Helvetica" font-size="36.0" fill="#000000" transform="matrix(1.00, 0.00, -0.00, -1.00, 537.5, 358.5)">w</text><text xml:space="preserve" font-family="Helvetica-Light,Helvetica" font-size="36.0" fill="#000000" transform="matrix(1.00, 0.00, -0.00, -1.00, 563.5, 358.5)">s</text><text xml:space="preserve" font-family="Helvetica-Light,Helvetica" font-size="36.0" fill="#000000" transform="matrix(1.00, 0.00, -0.00, -1.00, 581.5, 358.5)">e</text><text xml:space="preserve" font-family="Helvetica-Light,Helvetica" font-size="36.0" fill="#000000" transform="matrix(1.00, 0.00, -0.00, -1.00, 601.6, 358.5)">r</text><text xml:space="preserve" font-family="Helvetica-Light,Helvetica" font-size="36.0" fill="#000000" transform="matrix(1.00, 0.00, -0.00, -1.00, 613.5, 358.5)">i</text><text xml:space="preserve" font-family="Helvetica-Light,Helvetica" font-size="36.0" fill="#000000" transform="matrix(1.00, 0.00, -0.00, -1.00, 621.5, 358.5)">f</text><text xml:space="preserve" font-family="Helvetica-Light,Helvetica" font-size="36.0" fill="#000000" transform="matrix(1.00, 0.00, -0.00, -1.00, 631.5, 358.5)">y</text><text xml:space="preserve" font-family="Helvetica-Light,Helvetica" font-size="36.0" fill="#000000" transform="matrix(1.00, 0.00, -0.00, -1.00, 649.5, 358.5)"> </text><text xml:space="preserve" font-family="Helvetica-Light,Helvetica" font-size="36.0" fill="#000000" transform="matrix(1.00, 0.00, -0.00, -1.00, 659.6, 358.5)">o</text><text xml:space="preserve" font-family="Helvetica-Light,Helvetica" font-size="36.0" fill="#000000" transform="matrix(1.00, 0.00, -0.00, -1.00, 679.6, 358.5)">r</text><text xml:space="preserve" font-family="Helvetica-Light,Helvetica" font-size="36.0" fill="#000000" transform="matrix(1.00, 0.00, -0.00, -1.00, 691.6, 358.5)"> </text><text xml:space="preserve" font-family="Helvetica-Light,Helvetica" font-size="36.0" fill="#000000" transform="matrix(1.00, 0.00, -0.00, -1.00, 701.6, 358.5)">R</text><text xml:space="preserve" font-family="Helvetica-Light,Helvetica" font-size="36.0" fill="#000000" transform="matrix(1.00, 0.00, -0.00, -1.00, 725.6, 358.5)">e</text><text xml:space="preserve" font-family="Helvetica-Light,Helvetica" font-size="36.0" fill="#000000" transform="matrix(1.00, 0.00, -0.00, -1.00, 745.6, 358.5)">q</text><text xml:space="preserve" font-family="Helvetica-Light,Helvetica" font-size="36.0" fill="#000000" transform="matrix(1.00, 0.00, -0.00, -1.00, 767.6, 358.5)">u</text><text xml:space="preserve" font-family="Helvetica-Light,Helvetica" font-size="36.0" fill="#000000" transform="matrix(1.00, 0.00, -0.00, -1.00, 787.6, 358.5)">i</text><text xml:space="preserve" font-family="Helvetica-Light,Helvetica" font-size="36.0" fill="#000000" transform="matrix(1.00, 0.00, -0.00, -1.00, 795.6, 358.5)">r</text><text xml:space="preserve" font-family="Helvetica-Light,Helvetica" font-size="36.0" fill="#000000" transform="matrix(1.00, 0.00, -0.00, -1.00, 806.9, 358.5)">e</text><text xml:space="preserve" font-family="Helvetica-Light,Helvetica" font-size="36.0" fill="#000000" transform="matrix(1.00, 0.00, -0.00, -1.00, 827.0, 358.5)">J</text><text xml:space="preserve" font-family="Helvetica-Light,Helvetica" font-size="36.0" fill="#000000" transform="matrix(1.00, 0.00, -0.00, -1.00, 845.0, 358.5)">S</text><text xml:space="preserve" font-family="Helvetica-Light,Helvetica" font-size="36.0" fill="#000000" transform="matrix(1.00, 0.00, -0.00, -1.00, 866.9, 358.5)">?</text><text xml:space="preserve" font-family="Helvetica-Light,Helvetica" font-size="36.0" fill="#000000" transform="matrix(1.00, 0.00, -0.00, -1.00, 218.8, 267.3)">W</text><text xml:space="preserve" font-family="Helvetica-Light,Helvetica" font-size="36.0" fill="#000000" transform="matrix(1.00, 0.00, -0.00, -1.00, 250.9, 267.3)">h</text><text xml:space="preserve" font-family="Helvetica-Light,Helvetica" font-size="36.0" fill="#000000" transform="matrix(1.00, 0.00, -0.00, -1.00, 270.9, 267.3)">a</text><text xml:space="preserve" font-family="Helvetica-Light,Helvetica" font-size="36.0" fill="#000000" transform="matrix(1.00, 0.00, -0.00, -1.00, 290.9, 267.3)">t</text><text xml:space="preserve" font-family="Helvetica-Light,Helvetica" font-size="36.0" fill="#000000" transform="matrix(1.00, 0.00, -0.00, -1.00, 300.9, 267.3)"> </text><text xml:space="preserve" font-family="Helvetica-Light,Helvetica" font-size="36.0" fill="#000000" transform="matrix(1.00, 0.00, -0.00, -1.00, 310.9, 267.3)">i</text><text xml:space="preserve" font-family="Helvetica-Light,Helvetica" font-size="36.0" fill="#000000" transform="matrix(1.00, 0.00, -0.00, -1.00, 318.9, 267.3)">s</text><text xml:space="preserve" font-family="Helvetica-Light,Helvetica" font-size="36.0" fill="#000000" transform="matrix(1.00, 0.00, -0.00, -1.00, 336.9, 267.3)"> </text><text xml:space="preserve" font-family="Helvetica-Light,Helvetica" font-size="36.0" fill="#000000" transform="matrix(1.00, 0.00, -0.00, -1.00, 346.9, 267.3)">t</text><text xml:space="preserve" font-family="Helvetica-Light,Helvetica" font-size="36.0" fill="#000000" transform="matrix(1.00, 0.00, -0.00, -1.00, 356.9, 267.3)">h</text><text xml:space="preserve" font-family="Helvetica-Light,Helvetica" font-size="36.0" fill="#000000" transform="matrix(1.00, 0.00, -0.00, -1.00, 376.9, 267.3)">e</text><text xml:space="preserve" font-family="Helvetica-Light,Helvetica" font-size="36.0" fill="#000000" transform="matrix(1.00, 0.00, -0.00, -1.00, 396.9, 267.3)"> </text><text xml:space="preserve" font-family="Helvetica-Light,Helvetica" font-size="36.0" fill="#000000" transform="matrix(1.00, 0.00, -0.00, -1.00, 406.9, 267.3)">e</text><text xml:space="preserve" font-family="Helvetica-Light,Helvetica" font-size="36.0" fill="#000000" transform="matrix(1.00, 0.00, -0.00, -1.00, 427.0, 267.3)">n</text><text xml:space="preserve" font-family="Helvetica-Light,Helvetica" font-size="36.0" fill="#000000" transform="matrix(1.00, 0.00, -0.00, -1.00, 447.0, 267.3)">t</text><text xml:space="preserve" font-family="Helvetica-Light,Helvetica" font-size="36.0" fill="#000000" transform="matrix(1.00, 0.00, -0.00, -1.00, 457.0, 267.3)">r</text><text xml:space="preserve" font-family="Helvetica-Light,Helvetica" font-size="36.0" fill="#000000" transform="matrix(1.00, 0.00, -0.00, -1.00, 469.6, 267.3)">y</text><text xml:space="preserve" font-family="Helvetica-Light,Helvetica" font-size="36.0" fill="#000000" transform="matrix(1.00, 0.00, -0.00, -1.00, 487.6, 267.3)"> </text><text xml:space="preserve" font-family="Helvetica-Light,Helvetica" font-size="36.0" fill="#000000" transform="matrix(1.00, 0.00, -0.00, -1.00, 497.6, 267.3)">p</text><text xml:space="preserve" font-family="Helvetica-Light,Helvetica" font-size="36.0" fill="#000000" transform="matrix(1.00, 0.00, -0.00, -1.00, 519.6, 267.3)">o</text><text xml:space="preserve" font-family="Helvetica-Light,Helvetica" font-size="36.0" fill="#000000" transform="matrix(1.00, 0.00, -0.00, -1.00, 539.6, 267.3)">i</text><text xml:space="preserve" font-family="Helvetica-Light,Helvetica" font-size="36.0" fill="#000000" transform="matrix(1.00, 0.00, -0.00, -1.00, 547.6, 267.3)">n</text><text xml:space="preserve" font-family="Helvetica-Light,Helvetica" font-size="36.0" fill="#000000" transform="matrix(1.00, 0.00, -0.00, -1.00, 567.7, 267.3)">t</text><text xml:space="preserve" font-family="Helvetica-Light,Helvetica" font-size="36.0" fill="#000000" transform="matrix(1.00, 0.00, -0.00, -1.00, 577.7, 267.3)"> </text><text xml:space="preserve" font-family="Helvetica-Light,Helvetica" font-size="36.0" fill="#000000" transform="matrix(1.00, 0.00, -0.00, -1.00, 587.7, 267.3)">t</text><text xml:space="preserve" font-family="Helvetica-Light,Helvetica" font-size="36.0" fill="#000000" transform="matrix(1.00, 0.00, -0.00, -1.00, 597.7, 267.3)">o</text><text xml:space="preserve" font-family="Helvetica-Light,Helvetica" font-size="36.0" fill="#000000" transform="matrix(1.00, 0.00, -0.00, -1.00, 617.7, 267.3)"> </text><text xml:space="preserve" font-family="Helvetica-Light,Helvetica" font-size="36.0" fill="#000000" transform="matrix(1.00, 0.00, -0.00, -1.00, 627.7, 267.3)">o</text><text xml:space="preserve" font-family="Helvetica-Light,Helvetica" font-size="36.0" fill="#000000" transform="matrix(1.00, 0.00, -0.00, -1.00, 647.7, 267.3)">u</text><text xml:space="preserve" font-family="Helvetica-Light,Helvetica" font-size="36.0" fill="#000000" transform="matrix(1.00, 0.00, -0.00, -1.00, 667.7, 267.3)">r</text><text xml:space="preserve" font-family="Helvetica-Light,Helvetica" font-size="36.0" fill="#000000" transform="matrix(1.00, 0.00, -0.00, -1.00, 679.7, 267.3)"> </text><text xml:space="preserve" font-family="Helvetica-Light,Helvetica" font-size="36.0" fill="#000000" transform="matrix(1.00, 0.00, -0.00, -1.00, 689.7, 267.3)">a</text><text xml:space="preserve" font-family="Helvetica-Light,Helvetica" font-size="36.0" fill="#000000" transform="matrix(1.00, 0.00, -0.00, -1.00, 709.7, 267.3)">p</text><text xml:space="preserve" font-family="Helvetica-Light,Helvetica" font-size="36.0" fill="#000000" transform="matrix(1.00, 0.00, -0.00, -1.00, 731.7, 267.3)">p</text><text xml:space="preserve" font-family="Helvetica-Light,Helvetica" font-size="36.0" fill="#000000" transform="matrix(1.00, 0.00, -0.00, -1.00, 753.7, 267.3)">?</text><text xml:space="preserve" font-family="Helvetica-Light,Helvetica" font-size="36.0" fill="#000000" transform="matrix(1.00, 0.00, -0.00, -1.00, 313.2, 176.0)">W</text><text xml:space="preserve" font-family="Helvetica-Light,Helvetica" font-size="36.0" fill="#000000" transform="matrix(1.00, 0.00, -0.00, -1.00, 345.2, 176.0)">h</text><text xml:space="preserve" font-family="Helvetica-Light,Helvetica" font-size="36.0" fill="#000000" transform="matrix(1.00, 0.00, -0.00, -1.00, 365.2, 176.0)">a</text><text xml:space="preserve" font-family="Helvetica-Light,Helvetica" font-size="36.0" fill="#000000" transform="matrix(1.00, 0.00, -0.00, -1.00, 385.2, 176.0)">t</text><text xml:space="preserve" font-family="Helvetica-Light,Helvetica" font-size="36.0" fill="#000000" transform="matrix(1.00, 0.00, -0.00, -1.00, 395.2, 176.0)"> </text><text xml:space="preserve" font-family="Helvetica-Light,Helvetica" font-size="36.0" fill="#000000" transform="matrix(1.00, 0.00, -0.00, -1.00, 405.3, 176.0)">i</text><text xml:space="preserve" font-family="Helvetica-Light,Helvetica" font-size="36.0" fill="#000000" transform="matrix(1.00, 0.00, -0.00, -1.00, 413.2, 176.0)">s</text><text xml:space="preserve" font-family="Helvetica-Light,Helvetica" font-size="36.0" fill="#000000" transform="matrix(1.00, 0.00, -0.00, -1.00, 431.2, 176.0)"> </text><text xml:space="preserve" font-family="Helvetica-Light,Helvetica" font-size="36.0" fill="#000000" transform="matrix(1.00, 0.00, -0.00, -1.00, 441.3, 176.0)">t</text><text xml:space="preserve" font-family="Helvetica-Light,Helvetica" font-size="36.0" fill="#000000" transform="matrix(1.00, 0.00, -0.00, -1.00, 451.3, 176.0)">h</text><text xml:space="preserve" font-family="Helvetica-Light,Helvetica" font-size="36.0" fill="#000000" transform="matrix(1.00, 0.00, -0.00, -1.00, 471.3, 176.0)">e</text><text xml:space="preserve" font-family="Helvetica-Light,Helvetica" font-size="36.0" fill="#000000" transform="matrix(1.00, 0.00, -0.00, -1.00, 491.3, 176.0)"> </text><text xml:space="preserve" font-family="Helvetica-Light,Helvetica" font-size="36.0" fill="#000000" transform="matrix(1.00, 0.00, -0.00, -1.00, 501.3, 176.0)">o</text><text xml:space="preserve" font-family="Helvetica-Light,Helvetica" font-size="36.0" fill="#000000" transform="matrix(1.00, 0.00, -0.00, -1.00, 521.3, 176.0)">u</text><text xml:space="preserve" font-family="Helvetica-Light,Helvetica" font-size="36.0" fill="#000000" transform="matrix(1.00, 0.00, -0.00, -1.00, 541.3, 176.0)">t</text><text xml:space="preserve" font-family="Helvetica-Light,Helvetica" font-size="36.0" fill="#000000" transform="matrix(1.00, 0.00, -0.00, -1.00, 551.3, 176.0)">p</text><text xml:space="preserve" font-family="Helvetica-Light,Helvetica" font-size="36.0" fill="#000000" transform="matrix(1.00, 0.00, -0.00, -1.00, 573.3, 176.0)">u</text><text xml:space="preserve" font-family="Helvetica-Light,Helvetica" font-size="36.0" fill="#000000" transform="matrix(1.00, 0.00, -0.00, -1.00, 593.4, 176.0)">t</text><text xml:space="preserve" font-family="Helvetica-Light,Helvetica" font-size="36.0" fill="#000000" transform="matrix(1.00, 0.00, -0.00, -1.00, 603.4, 176.0)"> </text><text xml:space="preserve" font-family="Helvetica-Light,Helvetica" font-size="36.0" fill="#000000" transform="matrix(1.00, 0.00, -0.00, -1.00, 613.4, 176.0)">ﬁ</text><text xml:space="preserve" font-family="Helvetica-Light,Helvetica" font-size="36.0" fill="#000000" transform="matrix(1.00, 0.00, -0.00, -1.00, 631.4, 176.0)">l</text><text xml:space="preserve" font-family="Helvetica-Light,Helvetica" font-size="36.0" fill="#000000" transform="matrix(1.00, 0.00, -0.00, -1.00, 639.4, 176.0)">e</text><text xml:space="preserve" font-family="Helvetica-Light,Helvetica" font-size="36.0" fill="#000000" transform="matrix(1.00, 0.00, -0.00, -1.00, 659.4, 176.0)">?</text></g></svg>