<?xml version="1.0" encoding="UTF-8" standalone="no"?><svg xmlns="http://www.w3.org/2000/svg" xmlns:xlink="http://www.w3.org/1999/xlink" clip-rule="evenodd" stroke-miterlimit="10" viewBox="0 0 779 210"><desc>SVG generated by Keynote</desc><defs></defs><g transform="matrix(1.00, 0.00, -0.00, -1.00, 0.0, 210.0)"><g><clipPath id="clip0x7fa0c6f97a00"><path d="M -1.4 4.8 L 507.0 4.8 L 507.0 150.5 L -1.4 150.5 Z M -1.4 4.8 "></path></clipPath><g clip-path="url(#clip0x7fa0c6f97a00)"><text xml:space="preserve" font-family="Courier,Courier" font-size="26.0" fill="#000000" transform="matrix(1.00, 0.00, -0.00, -1.00, 5.8, 115.4)">g</text><text xml:space="preserve" font-family="Courier,Courier" font-size="26.0" fill="#000000" transform="matrix(1.00, 0.00, -0.00, -1.00, 21.4, 115.4)">u</text><text xml:space="preserve" font-family="Courier,Courier" font-size="26.0" fill="#000000" transform="matrix(1.00, 0.00, -0.00, -1.00, 37.0, 115.4)">l</text><text xml:space="preserve" font-family="Courier,Courier" font-size="26.0" fill="#000000" transform="matrix(1.00, 0.00, -0.00, -1.00, 52.6, 115.4)">p</text><text xml:space="preserve" font-family="Courier,Courier" font-size="26.0" fill="#000000" transform="matrix(1.00, 0.00, -0.00, -1.00, 68.2, 115.4)">.</text><text xml:space="preserve" font-family="Courier,Courier" font-size="26.0" fill="#000000" transform="matrix(1.00, 0.00, -0.00, -1.00, 83.8, 115.4)">s</text><text xml:space="preserve" font-family="Courier,Courier" font-size="26.0" fill="#000000" transform="matrix(1.00, 0.00, -0.00, -1.00, 99.4, 115.4)">r</text><text xml:space="preserve" font-family="Courier,Courier" font-size="26.0" fill="#000000" transform="matrix(1.00, 0.00, -0.00, -1.00, 115.0, 115.4)">c</text><text xml:space="preserve" font-family="Courier,Courier" font-size="26.0" fill="#000000" transform="matrix(1.00, 0.00, -0.00, -1.00, 130.6, 115.4)">(</text><text xml:space="preserve" font-family="Courier,Courier" font-size="26.0" fill="#C8352B" transform="matrix(1.00, 0.00, -0.00, -1.00, 146.2, 115.4)">'</text><text xml:space="preserve" font-family="Courier-Bold,Courier" font-weight="bold" font-size="29.0" fill="#C8352B" transform="matrix(1.00, 0.00, -0.00, -1.00, 161.8, 115.4)">s</text><text xml:space="preserve" font-family="Courier-Bold,Courier" font-weight="bold" font-size="29.0" fill="#C8352B" transform="matrix(1.00, 0.00, -0.00, -1.00, 179.2, 115.4)">r</text><text xml:space="preserve" font-family="Courier-Bold,Courier" font-weight="bold" font-size="29.0" fill="#C8352B" transform="matrix(1.00, 0.00, -0.00, -1.00, 196.6, 115.4)">c</text><text xml:space="preserve" font-family="Courier-Bold,Courier" font-weight="bold" font-size="29.0" fill="#C8352B" transform="matrix(1.00, 0.00, -0.00, -1.00, 214.0, 115.4)">/</text><text xml:space="preserve" font-family="Courier-Bold,Courier" font-weight="bold" font-size="29.0" fill="#C8352B" transform="matrix(1.00, 0.00, -0.00, -1.00, 231.4, 115.4)">j</text><text xml:space="preserve" font-family="Courier-Bold,Courier" font-weight="bold" font-size="29.0" fill="#C8352B" transform="matrix(1.00, 0.00, -0.00, -1.00, 248.8, 115.4)">s</text><text xml:space="preserve" font-family="Courier-Bold,Courier" font-weight="bold" font-size="29.0" fill="#C8352B" transform="matrix(1.00, 0.00, -0.00, -1.00, 266.2, 115.4)">/</text><text xml:space="preserve" font-family="Courier-Bold,Courier" font-weight="bold" font-size="29.0" fill="#C8352B" transform="matrix(1.00, 0.00, -0.00, -1.00, 283.6, 115.4)">a</text><text xml:space="preserve" font-family="Courier-Bold,Courier" font-weight="bold" font-size="29.0" fill="#C8352B" transform="matrix(1.00, 0.00, -0.00, -1.00, 301.1, 115.4)">p</text><text xml:space="preserve" font-family="Courier-Bold,Courier" font-weight="bold" font-size="29.0" fill="#C8352B" transform="matrix(1.00, 0.00, -0.00, -1.00, 318.5, 115.4)">p</text><text xml:space="preserve" font-family="Courier-Bold,Courier" font-weight="bold" font-size="29.0" fill="#C8352B" transform="matrix(1.00, 0.00, -0.00, -1.00, 335.9, 115.4)">.</text><text xml:space="preserve" font-family="Courier-Bold,Courier" font-weight="bold" font-size="29.0" fill="#C8352B" transform="matrix(1.00, 0.00, -0.00, -1.00, 353.3, 115.4)">j</text><text xml:space="preserve" font-family="Courier-Bold,Courier" font-weight="bold" font-size="29.0" fill="#C8352B" transform="matrix(1.00, 0.00, -0.00, -1.00, 370.7, 115.4)">s</text><text xml:space="preserve" font-family="Courier,Courier" font-size="26.0" fill="#C8352B" transform="matrix(1.00, 0.00, -0.00, -1.00, 388.1, 115.4)">'</text><text xml:space="preserve" font-family="Courier,Courier" font-size="26.0" fill="#000000" transform="matrix(1.00, 0.00, -0.00, -1.00, 403.7, 115.4)">)</text><text xml:space="preserve" font-family="Courier,Courier" font-size="26.0" fill="#000000" transform="matrix(1.00, 0.00, -0.00, -1.00, 5.8, 83.7)">.</text><text xml:space="preserve" font-family="Courier,Courier" font-size="26.0" fill="#000000" transform="matrix(1.00, 0.00, -0.00, -1.00, 21.4, 83.7)">p</text><text xml:space="preserve" font-family="Courier,Courier" font-size="26.0" fill="#000000" transform="matrix(1.00, 0.00, -0.00, -1.00, 37.0, 83.7)">i</text><text xml:space="preserve" font-family="Courier,Courier" font-size="26.0" fill="#000000" transform="matrix(1.00, 0.00, -0.00, -1.00, 52.6, 83.7)">p</text><text xml:space="preserve" font-family="Courier,Courier" font-size="26.0" fill="#000000" transform="matrix(1.00, 0.00, -0.00, -1.00, 68.2, 83.7)">e</text><text xml:space="preserve" font-family="Courier,Courier" font-size="26.0" fill="#000000" transform="matrix(1.00, 0.00, -0.00, -1.00, 83.8, 83.7)">(</text><text xml:space="preserve" font-family="Courier,Courier" font-size="26.0" fill="#000000" transform="matrix(1.00, 0.00, -0.00, -1.00, 99.4, 83.7)">b</text><text xml:space="preserve" font-family="Courier,Courier" font-size="26.0" fill="#000000" transform="matrix(1.00, 0.00, -0.00, -1.00, 115.0, 83.7)">r</text><text xml:space="preserve" font-family="Courier,Courier" font-size="26.0" fill="#000000" transform="matrix(1.00, 0.00, -0.00, -1.00, 130.6, 83.7)">o</text><text xml:space="preserve" font-family="Courier,Courier" font-size="26.0" fill="#000000" transform="matrix(1.00, 0.00, -0.00, -1.00, 146.2, 83.7)">w</text><text xml:space="preserve" font-family="Courier,Courier" font-size="26.0" fill="#000000" transform="matrix(1.00, 0.00, -0.00, -1.00, 161.8, 83.7)">s</text><text xml:space="preserve" font-family="Courier,Courier" font-size="26.0" fill="#000000" transform="matrix(1.00, 0.00, -0.00, -1.00, 177.4, 83.7)">e</text><text xml:space="preserve" font-family="Courier,Courier" font-size="26.0" fill="#000000" transform="matrix(1.00, 0.00, -0.00, -1.00, 193.0, 83.7)">r</text><text xml:space="preserve" font-family="Courier,Courier" font-size="26.0" fill="#000000" transform="matrix(1.00, 0.00, -0.00, -1.00, 208.6, 83.7)">i</text><text xml:space="preserve" font-family="Courier,Courier" font-size="26.0" fill="#000000" transform="matrix(1.00, 0.00, -0.00, -1.00, 224.2, 83.7)">f</text><text xml:space="preserve" font-family="Courier,Courier" font-size="26.0" fill="#000000" transform="matrix(1.00, 0.00, -0.00, -1.00, 239.8, 83.7)">y</text><text xml:space="preserve" font-family="Courier,Courier" font-size="26.0" fill="#000000" transform="matrix(1.00, 0.00, -0.00, -1.00, 255.4, 83.7)">(</text><text xml:space="preserve" font-family="Courier,Courier" font-size="26.0" fill="#000000" transform="matrix(1.00, 0.00, -0.00, -1.00, 271.0, 83.7)">)</text><text xml:space="preserve" font-family="Courier,Courier" font-size="26.0" fill="#000000" transform="matrix(1.00, 0.00, -0.00, -1.00, 286.6, 83.7)">)</text><text xml:space="preserve" font-family="Courier,Courier" font-size="26.0" fill="#000000" transform="matrix(1.00, 0.00, -0.00, -1.00, 5.8, 49.4)">.</text><text xml:space="preserve" font-family="Courier,Courier" font-size="26.0" fill="#000000" transform="matrix(1.00, 0.00, -0.00, -1.00, 21.4, 49.4)">p</text><text xml:space="preserve" font-family="Courier,Courier" font-size="26.0" fill="#000000" transform="matrix(1.00, 0.00, -0.00, -1.00, 37.0, 49.4)">i</text><text xml:space="preserve" font-family="Courier,Courier" font-size="26.0" fill="#000000" transform="matrix(1.00, 0.00, -0.00, -1.00, 52.6, 49.4)">p</text><text xml:space="preserve" font-family="Courier,Courier" font-size="26.0" fill="#000000" transform="matrix(1.00, 0.00, -0.00, -1.00, 68.2, 49.4)">e</text><text xml:space="preserve" font-family="Courier,Courier" font-size="26.0" fill="#000000" transform="matrix(1.00, 0.00, -0.00, -1.00, 83.8, 49.4)">(</text><text xml:space="preserve" font-family="Courier,Courier" font-size="26.0" fill="#000000" transform="matrix(1.00, 0.00, -0.00, -1.00, 99.4, 49.4)">g</text><text xml:space="preserve" font-family="Courier,Courier" font-size="26.0" fill="#000000" transform="matrix(1.00, 0.00, -0.00, -1.00, 115.0, 49.4)">u</text><text xml:space="preserve" font-family="Courier,Courier" font-size="26.0" fill="#000000" transform="matrix(1.00, 0.00, -0.00, -1.00, 130.6, 49.4)">l</text><text xml:space="preserve" font-family="Courier,Courier" font-size="26.0" fill="#000000" transform="matrix(1.00, 0.00, -0.00, -1.00, 146.2, 49.4)">p</text><text xml:space="preserve" font-family="Courier,Courier" font-size="26.0" fill="#000000" transform="matrix(1.00, 0.00, -0.00, -1.00, 161.8, 49.4)">.</text><text xml:space="preserve" font-family="Courier,Courier" font-size="26.0" fill="#000000" transform="matrix(1.00, 0.00, -0.00, -1.00, 177.4, 49.4)">d</text><text xml:space="preserve" font-family="Courier,Courier" font-size="26.0" fill="#000000" transform="matrix(1.00, 0.00, -0.00, -1.00, 193.0, 49.4)">e</text><text xml:space="preserve" font-family="Courier,Courier" font-size="26.0" fill="#000000" transform="matrix(1.00, 0.00, -0.00, -1.00, 208.6, 49.4)">s</text><text xml:space="preserve" font-family="Courier,Courier" font-size="26.0" fill="#000000" transform="matrix(1.00, 0.00, -0.00, -1.00, 224.2, 49.4)">t</text><text xml:space="preserve" font-family="Courier,Courier" font-size="26.0" fill="#000000" transform="matrix(1.00, 0.00, -0.00, -1.00, 239.8, 49.4)">(</text><text xml:space="preserve" font-family="Courier,Courier" font-size="26.0" fill="#C8352B" transform="matrix(1.00, 0.00, -0.00, -1.00, 255.4, 49.4)">'</text><text xml:space="preserve" font-family="Courier-Bold,Courier" font-weight="bold" font-size="29.0" fill="#C8352B" transform="matrix(1.00, 0.00, -0.00, -1.00, 271.0, 49.4)">.</text><text xml:space="preserve" font-family="Courier-Bold,Courier" font-weight="bold" font-size="29.0" fill="#C8352B" transform="matrix(1.00, 0.00, -0.00, -1.00, 288.5, 49.4)">/</text><text xml:space="preserve" font-family="Courier-Bold,Courier" font-weight="bold" font-size="29.0" fill="#C8352B" transform="matrix(1.00, 0.00, -0.00, -1.00, 305.9, 49.4)">b</text><text xml:space="preserve" font-family="Courier-Bold,Courier" font-weight="bold" font-size="29.0" fill="#C8352B" transform="matrix(1.00, 0.00, -0.00, -1.00, 323.3, 49.4)">u</text><text xml:space="preserve" font-family="Courier-Bold,Courier" font-weight="bold" font-size="29.0" fill="#C8352B" transform="matrix(1.00, 0.00, -0.00, -1.00, 340.7, 49.4)">i</text><text xml:space="preserve" font-family="Courier-Bold,Courier" font-weight="bold" font-size="29.0" fill="#C8352B" transform="matrix(1.00, 0.00, -0.00, -1.00, 358.1, 49.4)">l</text><text xml:space="preserve" font-family="Courier-Bold,Courier" font-weight="bold" font-size="29.0" fill="#C8352B" transform="matrix(1.00, 0.00, -0.00, -1.00, 375.5, 49.4)">d</text><text xml:space="preserve" font-family="Courier-Bold,Courier" font-weight="bold" font-size="29.0" fill="#C8352B" transform="matrix(1.00, 0.00, -0.00, -1.00, 392.9, 49.4)">/</text><text xml:space="preserve" font-family="Courier-Bold,Courier" font-weight="bold" font-size="29.0" fill="#C8352B" transform="matrix(1.00, 0.00, -0.00, -1.00, 410.3, 49.4)">j</text><text xml:space="preserve" font-family="Courier-Bold,Courier" font-weight="bold" font-size="29.0" fill="#C8352B" transform="matrix(1.00, 0.00, -0.00, -1.00, 427.7, 49.4)">s</text><text xml:space="preserve" font-family="Courier,Courier" font-size="26.0" fill="#C8352B" transform="matrix(1.00, 0.00, -0.00, -1.00, 445.1, 49.4)">'</text><text xml:space="preserve" font-family="Courier,Courier" font-size="26.0" fill="#000000" transform="matrix(1.00, 0.00, -0.00, -1.00, 460.7, 49.4)">)</text><text xml:space="preserve" font-family="Courier,Courier" font-size="26.0" fill="#000000" transform="matrix(1.00, 0.00, -0.00, -1.00, 476.3, 49.4)">)</text></g></g><g><clipPath id="clip0x7fa0c6fbbed0"><path d="M 570.1 0.4 L 779.0 0.4 L 779.0 209.3 L 570.1 209.3 Z M 570.1 0.4 "></path></clipPath><g clip-path="url(#clip0x7fa0c6fbbed0)"><image xlink:href="../../840E9428-97AB-42D2-965D-E1BCE53EC089/assets/CDEA4DACE3F32425B1ED33B4F70B1A39.png" width="257.00" height="257.00" transform="matrix(0.81, 0.00, -0.00, -0.81, 570.1, 209.3)"></image></g></g></g></svg>