<?xml version="1.0" encoding="UTF-8" standalone="no"?><svg xmlns="http://www.w3.org/2000/svg" xmlns:xlink="http://www.w3.org/1999/xlink" clip-rule="evenodd" stroke-miterlimit="10" viewBox="0 0 1024 768"><desc>SVG generated by Keynote</desc><defs></defs><g transform="matrix(1.00, 0.00, -0.00, -1.00, 0.0, 768.0)"><path d="M 0.0 768.0 L 1024.0 768.0 L 1024.0 0.0 L 0.0 0.0 Z M 0.0 768.0 " fill="#FEFFFF"></path><g><clipPath id="clip0x7fa0c8ec95a0"><path d="M 109.3 413.7 L 1200.5 413.7 L 1200.5 713.7 L 109.3 713.7 Z M 109.3 413.7 "></path></clipPath><g clip-path="url(#clip0x7fa0c8ec95a0)"><text xml:space="preserve" font-family="Courier,Courier" font-size="26.0" fill="#C8352B" transform="matrix(1.00, 0.00, -0.00, -1.00, 116.5, 682.6)">"</text><text xml:space="preserve" font-family="Courier,Courier" font-size="26.0" fill="#C8352B" transform="matrix(1.00, 0.00, -0.00, -1.00, 132.1, 682.6)">r</text><text xml:space="preserve" font-family="Courier,Courier" font-size="26.0" fill="#C8352B" transform="matrix(1.00, 0.00, -0.00, -1.00, 147.7, 682.6)">e</text><text xml:space="preserve" font-family="Courier,Courier" font-size="26.0" fill="#C8352B" transform="matrix(1.00, 0.00, -0.00, -1.00, 163.3, 682.6)">q</text><text xml:space="preserve" font-family="Courier,Courier" font-size="26.0" fill="#C8352B" transform="matrix(1.00, 0.00, -0.00, -1.00, 178.9, 682.6)">u</text><text xml:space="preserve" font-family="Courier,Courier" font-size="26.0" fill="#C8352B" transform="matrix(1.00, 0.00, -0.00, -1.00, 194.5, 682.6)">i</text><text xml:space="preserve" font-family="Courier,Courier" font-size="26.0" fill="#C8352B" transform="matrix(1.00, 0.00, -0.00, -1.00, 210.1, 682.6)">r</text><text xml:space="preserve" font-family="Courier,Courier" font-size="26.0" fill="#C8352B" transform="matrix(1.00, 0.00, -0.00, -1.00, 225.7, 682.6)">e</text><text xml:space="preserve" font-family="Courier,Courier" font-size="26.0" fill="#C8352B" transform="matrix(1.00, 0.00, -0.00, -1.00, 241.3, 682.6)">j</text><text xml:space="preserve" font-family="Courier,Courier" font-size="26.0" fill="#C8352B" transform="matrix(1.00, 0.00, -0.00, -1.00, 256.9, 682.6)">s</text><text xml:space="preserve" font-family="Courier,Courier" font-size="26.0" fill="#C8352B" transform="matrix(1.00, 0.00, -0.00, -1.00, 272.5, 682.6)">"</text><text xml:space="preserve" font-family="Courier,Courier" font-size="26.0" fill="#797979" transform="matrix(1.00, 0.00, -0.00, -1.00, 288.1, 682.6)">:</text><text xml:space="preserve" font-family="Courier,Courier" font-size="26.0" fill="#000000" transform="matrix(1.00, 0.00, -0.00, -1.00, 303.7, 682.6)"> </text><text xml:space="preserve" font-family="Courier,Courier" font-size="26.0" fill="#000000" transform="matrix(1.00, 0.00, -0.00, -1.00, 319.3, 682.6)">{</text><text xml:space="preserve" font-family="Courier,Courier" font-size="26.0" fill="#000000" transform="matrix(1.00, 0.00, -0.00, -1.00, 116.5, 651.6)"> </text><text xml:space="preserve" font-family="Courier,Courier" font-size="26.0" fill="#000000" transform="matrix(1.00, 0.00, -0.00, -1.00, 132.1, 651.6)"> </text><text xml:space="preserve" font-family="Courier,Courier" font-size="26.0" fill="#C8352B" transform="matrix(1.00, 0.00, -0.00, -1.00, 147.7, 651.6)">"</text><text xml:space="preserve" font-family="Courier,Courier" font-size="26.0" fill="#C8352B" transform="matrix(1.00, 0.00, -0.00, -1.00, 163.3, 651.6)">b</text><text xml:space="preserve" font-family="Courier,Courier" font-size="26.0" fill="#C8352B" transform="matrix(1.00, 0.00, -0.00, -1.00, 178.9, 651.6)">u</text><text xml:space="preserve" font-family="Courier,Courier" font-size="26.0" fill="#C8352B" transform="matrix(1.00, 0.00, -0.00, -1.00, 194.5, 651.6)">n</text><text xml:space="preserve" font-family="Courier,Courier" font-size="26.0" fill="#C8352B" transform="matrix(1.00, 0.00, -0.00, -1.00, 210.1, 651.6)">d</text><text xml:space="preserve" font-family="Courier,Courier" font-size="26.0" fill="#C8352B" transform="matrix(1.00, 0.00, -0.00, -1.00, 225.7, 651.6)">l</text><text xml:space="preserve" font-family="Courier,Courier" font-size="26.0" fill="#C8352B" transform="matrix(1.00, 0.00, -0.00, -1.00, 241.3, 651.6)">e</text><text xml:space="preserve" font-family="Courier,Courier" font-size="26.0" fill="#C8352B" transform="matrix(1.00, 0.00, -0.00, -1.00, 256.9, 651.6)">"</text><text xml:space="preserve" font-family="Courier,Courier" font-size="26.0" fill="#797979" transform="matrix(1.00, 0.00, -0.00, -1.00, 272.5, 651.6)">:</text><text xml:space="preserve" font-family="Courier,Courier" font-size="26.0" fill="#000000" transform="matrix(1.00, 0.00, -0.00, -1.00, 288.1, 651.6)"> </text><text xml:space="preserve" font-family="Courier,Courier" font-size="26.0" fill="#000000" transform="matrix(1.00, 0.00, -0.00, -1.00, 303.7, 651.6)">{</text><text xml:space="preserve" font-family="Courier,Courier" font-size="26.0" fill="#000000" transform="matrix(1.00, 0.00, -0.00, -1.00, 116.5, 620.6)"> </text><text xml:space="preserve" font-family="Courier,Courier" font-size="26.0" fill="#000000" transform="matrix(1.00, 0.00, -0.00, -1.00, 132.1, 620.6)"> </text><text xml:space="preserve" font-family="Courier,Courier" font-size="26.0" fill="#000000" transform="matrix(1.00, 0.00, -0.00, -1.00, 147.7, 620.6)"> </text><text xml:space="preserve" font-family="Courier,Courier" font-size="26.0" fill="#000000" transform="matrix(1.00, 0.00, -0.00, -1.00, 163.3, 620.6)"> </text><text xml:space="preserve" font-family="Courier,Courier" font-size="26.0" fill="#C8352B" transform="matrix(1.00, 0.00, -0.00, -1.00, 178.9, 620.6)">"</text><text xml:space="preserve" font-family="Courier,Courier" font-size="26.0" fill="#C8352B" transform="matrix(1.00, 0.00, -0.00, -1.00, 194.5, 620.6)">o</text><text xml:space="preserve" font-family="Courier,Courier" font-size="26.0" fill="#C8352B" transform="matrix(1.00, 0.00, -0.00, -1.00, 210.1, 620.6)">p</text><text xml:space="preserve" font-family="Courier,Courier" font-size="26.0" fill="#C8352B" transform="matrix(1.00, 0.00, -0.00, -1.00, 225.7, 620.6)">t</text><text xml:space="preserve" font-family="Courier,Courier" font-size="26.0" fill="#C8352B" transform="matrix(1.00, 0.00, -0.00, -1.00, 241.3, 620.6)">i</text><text xml:space="preserve" font-family="Courier,Courier" font-size="26.0" fill="#C8352B" transform="matrix(1.00, 0.00, -0.00, -1.00, 256.9, 620.6)">o</text><text xml:space="preserve" font-family="Courier,Courier" font-size="26.0" fill="#C8352B" transform="matrix(1.00, 0.00, -0.00, -1.00, 272.5, 620.6)">n</text><text xml:space="preserve" font-family="Courier,Courier" font-size="26.0" fill="#C8352B" transform="matrix(1.00, 0.00, -0.00, -1.00, 288.1, 620.6)">s</text><text xml:space="preserve" font-family="Courier,Courier" font-size="26.0" fill="#C8352B" transform="matrix(1.00, 0.00, -0.00, -1.00, 303.7, 620.6)">"</text><text xml:space="preserve" font-family="Courier,Courier" font-size="26.0" fill="#797979" transform="matrix(1.00, 0.00, -0.00, -1.00, 319.3, 620.6)">:</text><text xml:space="preserve" font-family="Courier,Courier" font-size="26.0" fill="#000000" transform="matrix(1.00, 0.00, -0.00, -1.00, 334.9, 620.6)"> </text><text xml:space="preserve" font-family="Courier,Courier" font-size="26.0" fill="#000000" transform="matrix(1.00, 0.00, -0.00, -1.00, 350.5, 620.6)">{</text><text xml:space="preserve" font-family="Courier,Courier" font-size="26.0" fill="#000000" transform="matrix(1.00, 0.00, -0.00, -1.00, 116.5, 586.3)"> </text><text xml:space="preserve" font-family="Courier,Courier" font-size="26.0" fill="#000000" transform="matrix(1.00, 0.00, -0.00, -1.00, 132.1, 586.3)"> </text><text xml:space="preserve" font-family="Courier,Courier" font-size="26.0" fill="#000000" transform="matrix(1.00, 0.00, -0.00, -1.00, 147.7, 586.3)"> </text><text xml:space="preserve" font-family="Courier,Courier" font-size="26.0" fill="#000000" transform="matrix(1.00, 0.00, -0.00, -1.00, 163.3, 586.3)"> </text><text xml:space="preserve" font-family="Courier,Courier" font-size="26.0" fill="#000000" transform="matrix(1.00, 0.00, -0.00, -1.00, 178.9, 586.3)"> </text><text xml:space="preserve" font-family="Courier,Courier" font-size="26.0" fill="#000000" transform="matrix(1.00, 0.00, -0.00, -1.00, 194.5, 586.3)"> </text><text xml:space="preserve" font-family="Courier,Courier" font-size="26.0" fill="#C8352B" transform="matrix(1.00, 0.00, -0.00, -1.00, 210.1, 586.3)">"</text><text xml:space="preserve" font-family="Courier-Bold,Courier" font-weight="bold" font-size="29.0" fill="#C8352B" transform="matrix(1.00, 0.00, -0.00, -1.00, 225.7, 586.3)">i</text><text xml:space="preserve" font-family="Courier-Bold,Courier" font-weight="bold" font-size="29.0" fill="#C8352B" transform="matrix(1.00, 0.00, -0.00, -1.00, 243.1, 586.3)">n</text><text xml:space="preserve" font-family="Courier-Bold,Courier" font-weight="bold" font-size="29.0" fill="#C8352B" transform="matrix(1.00, 0.00, -0.00, -1.00, 260.5, 586.3)">c</text><text xml:space="preserve" font-family="Courier-Bold,Courier" font-weight="bold" font-size="29.0" fill="#C8352B" transform="matrix(1.00, 0.00, -0.00, -1.00, 277.9, 586.3)">l</text><text xml:space="preserve" font-family="Courier-Bold,Courier" font-weight="bold" font-size="29.0" fill="#C8352B" transform="matrix(1.00, 0.00, -0.00, -1.00, 295.3, 586.3)">u</text><text xml:space="preserve" font-family="Courier-Bold,Courier" font-weight="bold" font-size="29.0" fill="#C8352B" transform="matrix(1.00, 0.00, -0.00, -1.00, 312.7, 586.3)">d</text><text xml:space="preserve" font-family="Courier-Bold,Courier" font-weight="bold" font-size="29.0" fill="#C8352B" transform="matrix(1.00, 0.00, -0.00, -1.00, 330.1, 586.3)">e</text><text xml:space="preserve" font-family="Courier,Courier" font-size="26.0" fill="#C8352B" transform="matrix(1.00, 0.00, -0.00, -1.00, 347.5, 586.3)">"</text><text xml:space="preserve" font-family="Courier,Courier" font-size="26.0" fill="#797979" transform="matrix(1.00, 0.00, -0.00, -1.00, 363.1, 586.3)">:</text><text xml:space="preserve" font-family="Courier,Courier" font-size="26.0" fill="#000000" transform="matrix(1.00, 0.00, -0.00, -1.00, 378.7, 586.3)"> </text><text xml:space="preserve" font-family="Courier,Courier" font-size="26.0" fill="#C8352B" transform="matrix(1.00, 0.00, -0.00, -1.00, 394.4, 586.3)">“</text><text xml:space="preserve" font-family="Courier,Courier" font-size="26.0" fill="#C8352B" transform="matrix(1.00, 0.00, -0.00, -1.00, 410.0, 586.3)">s</text><text xml:space="preserve" font-family="Courier,Courier" font-size="26.0" fill="#C8352B" transform="matrix(1.00, 0.00, -0.00, -1.00, 425.6, 586.3)">r</text><text xml:space="preserve" font-family="Courier,Courier" font-size="26.0" fill="#C8352B" transform="matrix(1.00, 0.00, -0.00, -1.00, 441.2, 586.3)">c</text><text xml:space="preserve" font-family="Courier,Courier" font-size="26.0" fill="#C8352B" transform="matrix(1.00, 0.00, -0.00, -1.00, 456.8, 586.3)">/</text><text xml:space="preserve" font-family="Courier,Courier" font-size="26.0" fill="#C8352B" transform="matrix(1.00, 0.00, -0.00, -1.00, 472.4, 586.3)">j</text><text xml:space="preserve" font-family="Courier,Courier" font-size="26.0" fill="#C8352B" transform="matrix(1.00, 0.00, -0.00, -1.00, 488.0, 586.3)">s</text><text xml:space="preserve" font-family="Courier,Courier" font-size="26.0" fill="#C8352B" transform="matrix(1.00, 0.00, -0.00, -1.00, 503.6, 586.3)">/</text><text xml:space="preserve" font-family="Courier,Courier" font-size="26.0" fill="#C8352B" transform="matrix(1.00, 0.00, -0.00, -1.00, 519.2, 586.3)">a</text><text xml:space="preserve" font-family="Courier,Courier" font-size="26.0" fill="#C8352B" transform="matrix(1.00, 0.00, -0.00, -1.00, 534.8, 586.3)">p</text><text xml:space="preserve" font-family="Courier,Courier" font-size="26.0" fill="#C8352B" transform="matrix(1.00, 0.00, -0.00, -1.00, 550.4, 586.3)">p</text><text xml:space="preserve" font-family="Courier,Courier" font-size="26.0" fill="#C8352B" transform="matrix(1.00, 0.00, -0.00, -1.00, 566.0, 586.3)">.</text><text xml:space="preserve" font-family="Courier,Courier" font-size="26.0" fill="#C8352B" transform="matrix(1.00, 0.00, -0.00, -1.00, 581.6, 586.3)">j</text><text xml:space="preserve" font-family="Courier,Courier" font-size="26.0" fill="#C8352B" transform="matrix(1.00, 0.00, -0.00, -1.00, 597.2, 586.3)">s</text><text xml:space="preserve" font-family="Courier,Courier" font-size="26.0" fill="#C8352B" transform="matrix(1.00, 0.00, -0.00, -1.00, 612.8, 586.3)">”</text><text xml:space="preserve" font-family="Courier,Courier" font-size="26.0" fill="#000000" transform="matrix(1.00, 0.00, -0.00, -1.00, 628.4, 586.3)">,</text><text xml:space="preserve" font-family="Courier,Courier" font-size="26.0" fill="#000000" transform="matrix(1.00, 0.00, -0.00, -1.00, 116.5, 551.3)"> </text><text xml:space="preserve" font-family="Courier,Courier" font-size="26.0" fill="#000000" transform="matrix(1.00, 0.00, -0.00, -1.00, 132.1, 551.3)"> </text><text xml:space="preserve" font-family="Courier,Courier" font-size="26.0" fill="#000000" transform="matrix(1.00, 0.00, -0.00, -1.00, 147.7, 551.3)"> </text><text xml:space="preserve" font-family="Courier,Courier" font-size="26.0" fill="#000000" transform="matrix(1.00, 0.00, -0.00, -1.00, 163.3, 551.3)"> </text><text xml:space="preserve" font-family="Courier,Courier" font-size="26.0" fill="#000000" transform="matrix(1.00, 0.00, -0.00, -1.00, 178.9, 551.3)"> </text><text xml:space="preserve" font-family="Courier,Courier" font-size="26.0" fill="#000000" transform="matrix(1.00, 0.00, -0.00, -1.00, 194.5, 551.3)"> </text><text xml:space="preserve" font-family="Courier,Courier" font-size="26.0" fill="#C8352B" transform="matrix(1.00, 0.00, -0.00, -1.00, 210.1, 551.3)">"</text><text xml:space="preserve" font-family="Courier-Bold,Courier" font-weight="bold" font-size="29.0" fill="#C8352B" transform="matrix(1.00, 0.00, -0.00, -1.00, 225.7, 551.3)">o</text><text xml:space="preserve" font-family="Courier-Bold,Courier" font-weight="bold" font-size="29.0" fill="#C8352B" transform="matrix(1.00, 0.00, -0.00, -1.00, 243.1, 551.3)">u</text><text xml:space="preserve" font-family="Courier-Bold,Courier" font-weight="bold" font-size="29.0" fill="#C8352B" transform="matrix(1.00, 0.00, -0.00, -1.00, 260.5, 551.3)">t</text><text xml:space="preserve" font-family="Courier,Courier" font-size="26.0" fill="#C8352B" transform="matrix(1.00, 0.00, -0.00, -1.00, 277.9, 551.3)">"</text><text xml:space="preserve" font-family="Courier,Courier" font-size="26.0" fill="#797979" transform="matrix(1.00, 0.00, -0.00, -1.00, 293.5, 551.3)">:</text><text xml:space="preserve" font-family="Courier,Courier" font-size="26.0" fill="#000000" transform="matrix(1.00, 0.00, -0.00, -1.00, 309.1, 551.3)"> </text><text xml:space="preserve" font-family="Courier,Courier" font-size="26.0" fill="#C8352B" transform="matrix(1.00, 0.00, -0.00, -1.00, 324.7, 551.3)">“</text><text xml:space="preserve" font-family="Courier,Courier" font-size="26.0" fill="#C8352B" transform="matrix(1.00, 0.00, -0.00, -1.00, 340.3, 551.3)">b</text><text xml:space="preserve" font-family="Courier,Courier" font-size="26.0" fill="#C8352B" transform="matrix(1.00, 0.00, -0.00, -1.00, 355.9, 551.3)">u</text><text xml:space="preserve" font-family="Courier,Courier" font-size="26.0" fill="#C8352B" transform="matrix(1.00, 0.00, -0.00, -1.00, 371.5, 551.3)">i</text><text xml:space="preserve" font-family="Courier,Courier" font-size="26.0" fill="#C8352B" transform="matrix(1.00, 0.00, -0.00, -1.00, 387.1, 551.3)">l</text><text xml:space="preserve" font-family="Courier,Courier" font-size="26.0" fill="#C8352B" transform="matrix(1.00, 0.00, -0.00, -1.00, 402.8, 551.3)">d</text><text xml:space="preserve" font-family="Courier,Courier" font-size="26.0" fill="#C8352B" transform="matrix(1.00, 0.00, -0.00, -1.00, 418.4, 551.3)">.</text><text xml:space="preserve" font-family="Courier,Courier" font-size="26.0" fill="#C8352B" transform="matrix(1.00, 0.00, -0.00, -1.00, 434.0, 551.3)">j</text><text xml:space="preserve" font-family="Courier,Courier" font-size="26.0" fill="#C8352B" transform="matrix(1.00, 0.00, -0.00, -1.00, 449.6, 551.3)">s</text><text xml:space="preserve" font-family="Courier,Courier" font-size="26.0" fill="#C8352B" transform="matrix(1.00, 0.00, -0.00, -1.00, 465.2, 551.3)">"</text><text xml:space="preserve" font-family="Courier,Courier" font-size="26.0" fill="#000000" transform="matrix(1.00, 0.00, -0.00, -1.00, 116.5, 519.6)"> </text><text xml:space="preserve" font-family="Courier,Courier" font-size="26.0" fill="#000000" transform="matrix(1.00, 0.00, -0.00, -1.00, 132.1, 519.6)"> </text><text xml:space="preserve" font-family="Courier,Courier" font-size="26.0" fill="#000000" transform="matrix(1.00, 0.00, -0.00, -1.00, 147.7, 519.6)"> </text><text xml:space="preserve" font-family="Courier,Courier" font-size="26.0" fill="#000000" transform="matrix(1.00, 0.00, -0.00, -1.00, 163.3, 519.6)"> </text><text xml:space="preserve" font-family="Courier,Courier" font-size="26.0" fill="#000000" transform="matrix(1.00, 0.00, -0.00, -1.00, 178.9, 519.6)">}</text><text xml:space="preserve" font-family="Courier,Courier" font-size="26.0" fill="#000000" transform="matrix(1.00, 0.00, -0.00, -1.00, 116.5, 488.6)"> </text><text xml:space="preserve" font-family="Courier,Courier" font-size="26.0" fill="#000000" transform="matrix(1.00, 0.00, -0.00, -1.00, 132.1, 488.6)"> </text><text xml:space="preserve" font-family="Courier,Courier" font-size="26.0" fill="#000000" transform="matrix(1.00, 0.00, -0.00, -1.00, 147.7, 488.6)">}</text><text xml:space="preserve" font-family="Courier,Courier" font-size="26.0" fill="#000000" transform="matrix(1.00, 0.00, -0.00, -1.00, 116.5, 457.6)">}</text></g></g><g><clipPath id="clip0x7fa0c8ee47f0"><path d="M 688.0 527.4 L 879.1 527.4 L 879.1 718.5 L 688.0 718.5 Z M 688.0 527.4 "></path></clipPath><g clip-path="url(#clip0x7fa0c8ee47f0)"><image xlink:href="../../0099E750-43F4-4A1E-80C1-2076B752852F/assets/5920F148D175DE72B6F6E244C369D8BD.png" width="512.00" height="512.00" transform="matrix(0.37, 0.00, -0.00, -0.37, 688.0, 718.5)"></image></g></g><g><clipPath id="clip0x7fa0c8ee5e50"><path d="M 107.6 277.8 L 616.0 277.8 L 616.0 423.5 L 107.6 423.5 Z M 107.6 277.8 "></path></clipPath><g clip-path="url(#clip0x7fa0c8ee5e50)"><text xml:space="preserve" font-family="Courier,Courier" font-size="26.0" fill="#000000" transform="matrix(1.00, 0.00, -0.00, -1.00, 114.8, 388.4)">g</text><text xml:space="preserve" font-family="Courier,Courier" font-size="26.0" fill="#000000" transform="matrix(1.00, 0.00, -0.00, -1.00, 130.4, 388.4)">u</text><text xml:space="preserve" font-family="Courier,Courier" font-size="26.0" fill="#000000" transform="matrix(1.00, 0.00, -0.00, -1.00, 146.0, 388.4)">l</text><text xml:space="preserve" font-family="Courier,Courier" font-size="26.0" fill="#000000" transform="matrix(1.00, 0.00, -0.00, -1.00, 161.6, 388.4)">p</text><text xml:space="preserve" font-family="Courier,Courier" font-size="26.0" fill="#000000" transform="matrix(1.00, 0.00, -0.00, -1.00, 177.2, 388.4)">.</text><text xml:space="preserve" font-family="Courier,Courier" font-size="26.0" fill="#000000" transform="matrix(1.00, 0.00, -0.00, -1.00, 192.8, 388.4)">s</text><text xml:space="preserve" font-family="Courier,Courier" font-size="26.0" fill="#000000" transform="matrix(1.00, 0.00, -0.00, -1.00, 208.4, 388.4)">r</text><text xml:space="preserve" font-family="Courier,Courier" font-size="26.0" fill="#000000" transform="matrix(1.00, 0.00, -0.00, -1.00, 224.0, 388.4)">c</text><text xml:space="preserve" font-family="Courier,Courier" font-size="26.0" fill="#000000" transform="matrix(1.00, 0.00, -0.00, -1.00, 239.6, 388.4)">(</text><text xml:space="preserve" font-family="Courier,Courier" font-size="26.0" fill="#C8352B" transform="matrix(1.00, 0.00, -0.00, -1.00, 255.2, 388.4)">'</text><text xml:space="preserve" font-family="Courier-Bold,Courier" font-weight="bold" font-size="29.0" fill="#C8352B" transform="matrix(1.00, 0.00, -0.00, -1.00, 270.8, 388.4)">s</text><text xml:space="preserve" font-family="Courier-Bold,Courier" font-weight="bold" font-size="29.0" fill="#C8352B" transform="matrix(1.00, 0.00, -0.00, -1.00, 288.2, 388.4)">r</text><text xml:space="preserve" font-family="Courier-Bold,Courier" font-weight="bold" font-size="29.0" fill="#C8352B" transform="matrix(1.00, 0.00, -0.00, -1.00, 305.6, 388.4)">c</text><text xml:space="preserve" font-family="Courier-Bold,Courier" font-weight="bold" font-size="29.0" fill="#C8352B" transform="matrix(1.00, 0.00, -0.00, -1.00, 323.0, 388.4)">/</text><text xml:space="preserve" font-family="Courier-Bold,Courier" font-weight="bold" font-size="29.0" fill="#C8352B" transform="matrix(1.00, 0.00, -0.00, -1.00, 340.4, 388.4)">j</text><text xml:space="preserve" font-family="Courier-Bold,Courier" font-weight="bold" font-size="29.0" fill="#C8352B" transform="matrix(1.00, 0.00, -0.00, -1.00, 357.8, 388.4)">s</text><text xml:space="preserve" font-family="Courier-Bold,Courier" font-weight="bold" font-size="29.0" fill="#C8352B" transform="matrix(1.00, 0.00, -0.00, -1.00, 375.2, 388.4)">/</text><text xml:space="preserve" font-family="Courier-Bold,Courier" font-weight="bold" font-size="29.0" fill="#C8352B" transform="matrix(1.00, 0.00, -0.00, -1.00, 392.6, 388.4)">a</text><text xml:space="preserve" font-family="Courier-Bold,Courier" font-weight="bold" font-size="29.0" fill="#C8352B" transform="matrix(1.00, 0.00, -0.00, -1.00, 410.1, 388.4)">p</text><text xml:space="preserve" font-family="Courier-Bold,Courier" font-weight="bold" font-size="29.0" fill="#C8352B" transform="matrix(1.00, 0.00, -0.00, -1.00, 427.5, 388.4)">p</text><text xml:space="preserve" font-family="Courier-Bold,Courier" font-weight="bold" font-size="29.0" fill="#C8352B" transform="matrix(1.00, 0.00, -0.00, -1.00, 444.9, 388.4)">.</text><text xml:space="preserve" font-family="Courier-Bold,Courier" font-weight="bold" font-size="29.0" fill="#C8352B" transform="matrix(1.00, 0.00, -0.00, -1.00, 462.3, 388.4)">j</text><text xml:space="preserve" font-family="Courier-Bold,Courier" font-weight="bold" font-size="29.0" fill="#C8352B" transform="matrix(1.00, 0.00, -0.00, -1.00, 479.7, 388.4)">s</text><text xml:space="preserve" font-family="Courier,Courier" font-size="26.0" fill="#C8352B" transform="matrix(1.00, 0.00, -0.00, -1.00, 497.1, 388.4)">'</text><text xml:space="preserve" font-family="Courier,Courier" font-size="26.0" fill="#000000" transform="matrix(1.00, 0.00, -0.00, -1.00, 512.7, 388.4)">)</text><text xml:space="preserve" font-family="Courier,Courier" font-size="26.0" fill="#000000" transform="matrix(1.00, 0.00, -0.00, -1.00, 114.8, 356.7)">.</text><text xml:space="preserve" font-family="Courier,Courier" font-size="26.0" fill="#000000" transform="matrix(1.00, 0.00, -0.00, -1.00, 130.4, 356.7)">p</text><text xml:space="preserve" font-family="Courier,Courier" font-size="26.0" fill="#000000" transform="matrix(1.00, 0.00, -0.00, -1.00, 146.0, 356.7)">i</text><text xml:space="preserve" font-family="Courier,Courier" font-size="26.0" fill="#000000" transform="matrix(1.00, 0.00, -0.00, -1.00, 161.6, 356.7)">p</text><text xml:space="preserve" font-family="Courier,Courier" font-size="26.0" fill="#000000" transform="matrix(1.00, 0.00, -0.00, -1.00, 177.2, 356.7)">e</text><text xml:space="preserve" font-family="Courier,Courier" font-size="26.0" fill="#000000" transform="matrix(1.00, 0.00, -0.00, -1.00, 192.8, 356.7)">(</text><text xml:space="preserve" font-family="Courier,Courier" font-size="26.0" fill="#000000" transform="matrix(1.00, 0.00, -0.00, -1.00, 208.4, 356.7)">b</text><text xml:space="preserve" font-family="Courier,Courier" font-size="26.0" fill="#000000" transform="matrix(1.00, 0.00, -0.00, -1.00, 224.0, 356.7)">r</text><text xml:space="preserve" font-family="Courier,Courier" font-size="26.0" fill="#000000" transform="matrix(1.00, 0.00, -0.00, -1.00, 239.6, 356.7)">o</text><text xml:space="preserve" font-family="Courier,Courier" font-size="26.0" fill="#000000" transform="matrix(1.00, 0.00, -0.00, -1.00, 255.2, 356.7)">w</text><text xml:space="preserve" font-family="Courier,Courier" font-size="26.0" fill="#000000" transform="matrix(1.00, 0.00, -0.00, -1.00, 270.8, 356.7)">s</text><text xml:space="preserve" font-family="Courier,Courier" font-size="26.0" fill="#000000" transform="matrix(1.00, 0.00, -0.00, -1.00, 286.4, 356.7)">e</text><text xml:space="preserve" font-family="Courier,Courier" font-size="26.0" fill="#000000" transform="matrix(1.00, 0.00, -0.00, -1.00, 302.0, 356.7)">r</text><text xml:space="preserve" font-family="Courier,Courier" font-size="26.0" fill="#000000" transform="matrix(1.00, 0.00, -0.00, -1.00, 317.6, 356.7)">i</text><text xml:space="preserve" font-family="Courier,Courier" font-size="26.0" fill="#000000" transform="matrix(1.00, 0.00, -0.00, -1.00, 333.2, 356.7)">f</text><text xml:space="preserve" font-family="Courier,Courier" font-size="26.0" fill="#000000" transform="matrix(1.00, 0.00, -0.00, -1.00, 348.8, 356.7)">y</text><text xml:space="preserve" font-family="Courier,Courier" font-size="26.0" fill="#000000" transform="matrix(1.00, 0.00, -0.00, -1.00, 364.4, 356.7)">(</text><text xml:space="preserve" font-family="Courier,Courier" font-size="26.0" fill="#000000" transform="matrix(1.00, 0.00, -0.00, -1.00, 380.0, 356.7)">)</text><text xml:space="preserve" font-family="Courier,Courier" font-size="26.0" fill="#000000" transform="matrix(1.00, 0.00, -0.00, -1.00, 395.6, 356.7)">)</text><text xml:space="preserve" font-family="Courier,Courier" font-size="26.0" fill="#000000" transform="matrix(1.00, 0.00, -0.00, -1.00, 114.8, 322.4)">.</text><text xml:space="preserve" font-family="Courier,Courier" font-size="26.0" fill="#000000" transform="matrix(1.00, 0.00, -0.00, -1.00, 130.4, 322.4)">p</text><text xml:space="preserve" font-family="Courier,Courier" font-size="26.0" fill="#000000" transform="matrix(1.00, 0.00, -0.00, -1.00, 146.0, 322.4)">i</text><text xml:space="preserve" font-family="Courier,Courier" font-size="26.0" fill="#000000" transform="matrix(1.00, 0.00, -0.00, -1.00, 161.6, 322.4)">p</text><text xml:space="preserve" font-family="Courier,Courier" font-size="26.0" fill="#000000" transform="matrix(1.00, 0.00, -0.00, -1.00, 177.2, 322.4)">e</text><text xml:space="preserve" font-family="Courier,Courier" font-size="26.0" fill="#000000" transform="matrix(1.00, 0.00, -0.00, -1.00, 192.8, 322.4)">(</text><text xml:space="preserve" font-family="Courier,Courier" font-size="26.0" fill="#000000" transform="matrix(1.00, 0.00, -0.00, -1.00, 208.4, 322.4)">g</text><text xml:space="preserve" font-family="Courier,Courier" font-size="26.0" fill="#000000" transform="matrix(1.00, 0.00, -0.00, -1.00, 224.0, 322.4)">u</text><text xml:space="preserve" font-family="Courier,Courier" font-size="26.0" fill="#000000" transform="matrix(1.00, 0.00, -0.00, -1.00, 239.6, 322.4)">l</text><text xml:space="preserve" font-family="Courier,Courier" font-size="26.0" fill="#000000" transform="matrix(1.00, 0.00, -0.00, -1.00, 255.2, 322.4)">p</text><text xml:space="preserve" font-family="Courier,Courier" font-size="26.0" fill="#000000" transform="matrix(1.00, 0.00, -0.00, -1.00, 270.8, 322.4)">.</text><text xml:space="preserve" font-family="Courier,Courier" font-size="26.0" fill="#000000" transform="matrix(1.00, 0.00, -0.00, -1.00, 286.4, 322.4)">d</text><text xml:space="preserve" font-family="Courier,Courier" font-size="26.0" fill="#000000" transform="matrix(1.00, 0.00, -0.00, -1.00, 302.0, 322.4)">e</text><text xml:space="preserve" font-family="Courier,Courier" font-size="26.0" fill="#000000" transform="matrix(1.00, 0.00, -0.00, -1.00, 317.6, 322.4)">s</text><text xml:space="preserve" font-family="Courier,Courier" font-size="26.0" fill="#000000" transform="matrix(1.00, 0.00, -0.00, -1.00, 333.2, 322.4)">t</text><text xml:space="preserve" font-family="Courier,Courier" font-size="26.0" fill="#000000" transform="matrix(1.00, 0.00, -0.00, -1.00, 348.8, 322.4)">(</text><text xml:space="preserve" font-family="Courier,Courier" font-size="26.0" fill="#C8352B" transform="matrix(1.00, 0.00, -0.00, -1.00, 364.4, 322.4)">'</text><text xml:space="preserve" font-family="Courier-Bold,Courier" font-weight="bold" font-size="29.0" fill="#C8352B" transform="matrix(1.00, 0.00, -0.00, -1.00, 380.0, 322.4)">.</text><text xml:space="preserve" font-family="Courier-Bold,Courier" font-weight="bold" font-size="29.0" fill="#C8352B" transform="matrix(1.00, 0.00, -0.00, -1.00, 397.5, 322.4)">/</text><text xml:space="preserve" font-family="Courier-Bold,Courier" font-weight="bold" font-size="29.0" fill="#C8352B" transform="matrix(1.00, 0.00, -0.00, -1.00, 414.9, 322.4)">b</text><text xml:space="preserve" font-family="Courier-Bold,Courier" font-weight="bold" font-size="29.0" fill="#C8352B" transform="matrix(1.00, 0.00, -0.00, -1.00, 432.3, 322.4)">u</text><text xml:space="preserve" font-family="Courier-Bold,Courier" font-weight="bold" font-size="29.0" fill="#C8352B" transform="matrix(1.00, 0.00, -0.00, -1.00, 449.7, 322.4)">i</text><text xml:space="preserve" font-family="Courier-Bold,Courier" font-weight="bold" font-size="29.0" fill="#C8352B" transform="matrix(1.00, 0.00, -0.00, -1.00, 467.1, 322.4)">l</text><text xml:space="preserve" font-family="Courier-Bold,Courier" font-weight="bold" font-size="29.0" fill="#C8352B" transform="matrix(1.00, 0.00, -0.00, -1.00, 484.5, 322.4)">d</text><text xml:space="preserve" font-family="Courier-Bold,Courier" font-weight="bold" font-size="29.0" fill="#C8352B" transform="matrix(1.00, 0.00, -0.00, -1.00, 501.9, 322.4)">/</text><text xml:space="preserve" font-family="Courier-Bold,Courier" font-weight="bold" font-size="29.0" fill="#C8352B" transform="matrix(1.00, 0.00, -0.00, -1.00, 519.3, 322.4)">j</text><text xml:space="preserve" font-family="Courier-Bold,Courier" font-weight="bold" font-size="29.0" fill="#C8352B" transform="matrix(1.00, 0.00, -0.00, -1.00, 536.7, 322.4)">s</text><text xml:space="preserve" font-family="Courier,Courier" font-size="26.0" fill="#C8352B" transform="matrix(1.00, 0.00, -0.00, -1.00, 554.1, 322.4)">'</text><text xml:space="preserve" font-family="Courier,Courier" font-size="26.0" fill="#000000" transform="matrix(1.00, 0.00, -0.00, -1.00, 569.7, 322.4)">)</text><text xml:space="preserve" font-family="Courier,Courier" font-size="26.0" fill="#000000" transform="matrix(1.00, 0.00, -0.00, -1.00, 585.3, 322.4)">)</text></g></g><g><clipPath id="clip0x7fa0c900c9e0"><path d="M 679.1 273.4 L 888.0 273.4 L 888.0 482.3 L 679.1 482.3 Z M 679.1 273.4 "></path></clipPath><g clip-path="url(#clip0x7fa0c900c9e0)"><image xlink:href="../../840E9428-97AB-42D2-965D-E1BCE53EC089/assets/CDEA4DACE3F32425B1ED33B4F70B1A39.png" width="257.00" height="257.00" transform="matrix(0.81, 0.00, -0.00, -0.81, 679.1, 482.3)"></image></g></g><g><clipPath id="clip0x7fa0c900df90"><path d="M 679.1 33.6 L 888.0 33.6 L 888.0 242.4 L 679.1 242.4 Z M 679.1 33.6 "></path></clipPath><g clip-path="url(#clip0x7fa0c900df90)"><image xlink:href="../../79BA5CA4-47AB-4C01-9BD1-27FE080DF2BA/assets/5DC8C93C2125C1497238FF6D4618B095.png" width="400.00" height="400.00" transform="matrix(0.52, 0.00, -0.00, -0.52, 679.1, 242.4)"></image></g></g><g><clipPath id="clip0x7fa0c900fbe0"><path d="M 103.2 34.7 L 1111.6 34.7 L 1111.6 210.7 L 103.2 210.7 Z M 103.2 34.7 "></path></clipPath><g clip-path="url(#clip0x7fa0c900fbe0)"><text xml:space="preserve" font-family="Courier,Courier" font-size="26.0" fill="#000000" transform="matrix(1.00, 0.00, -0.00, -1.00, 110.5, 179.6)">t</text><text xml:space="preserve" font-family="Courier,Courier" font-size="26.0" fill="#000000" transform="matrix(1.00, 0.00, -0.00, -1.00, 126.1, 179.6)">r</text><text xml:space="preserve" font-family="Courier,Courier" font-size="26.0" fill="#000000" transform="matrix(1.00, 0.00, -0.00, -1.00, 141.7, 179.6)">e</text><text xml:space="preserve" font-family="Courier,Courier" font-size="26.0" fill="#000000" transform="matrix(1.00, 0.00, -0.00, -1.00, 157.3, 179.6)">e</text><text xml:space="preserve" font-family="Courier,Courier" font-size="26.0" fill="#000000" transform="matrix(1.00, 0.00, -0.00, -1.00, 172.9, 179.6)"> </text><text xml:space="preserve" font-family="Courier,Courier" font-size="26.0" fill="#797979" transform="matrix(1.00, 0.00, -0.00, -1.00, 188.5, 179.6)">=</text><text xml:space="preserve" font-family="Courier,Courier" font-size="26.0" fill="#000000" transform="matrix(1.00, 0.00, -0.00, -1.00, 204.1, 179.6)"> </text><text xml:space="preserve" font-family="Courier,Courier" font-size="26.0" fill="#000000" transform="matrix(1.00, 0.00, -0.00, -1.00, 219.7, 179.6)">b</text><text xml:space="preserve" font-family="Courier,Courier" font-size="26.0" fill="#000000" transform="matrix(1.00, 0.00, -0.00, -1.00, 235.3, 179.6)">r</text><text xml:space="preserve" font-family="Courier,Courier" font-size="26.0" fill="#000000" transform="matrix(1.00, 0.00, -0.00, -1.00, 250.9, 179.6)">o</text><text xml:space="preserve" font-family="Courier,Courier" font-size="26.0" fill="#000000" transform="matrix(1.00, 0.00, -0.00, -1.00, 266.5, 179.6)">w</text><text xml:space="preserve" font-family="Courier,Courier" font-size="26.0" fill="#000000" transform="matrix(1.00, 0.00, -0.00, -1.00, 282.1, 179.6)">s</text><text xml:space="preserve" font-family="Courier,Courier" font-size="26.0" fill="#000000" transform="matrix(1.00, 0.00, -0.00, -1.00, 297.7, 179.6)">e</text><text xml:space="preserve" font-family="Courier,Courier" font-size="26.0" fill="#000000" transform="matrix(1.00, 0.00, -0.00, -1.00, 313.3, 179.6)">r</text><text xml:space="preserve" font-family="Courier,Courier" font-size="26.0" fill="#000000" transform="matrix(1.00, 0.00, -0.00, -1.00, 328.9, 179.6)">i</text><text xml:space="preserve" font-family="Courier,Courier" font-size="26.0" fill="#000000" transform="matrix(1.00, 0.00, -0.00, -1.00, 344.5, 179.6)">f</text><text xml:space="preserve" font-family="Courier,Courier" font-size="26.0" fill="#000000" transform="matrix(1.00, 0.00, -0.00, -1.00, 360.1, 179.6)">y</text><text xml:space="preserve" font-family="Courier,Courier" font-size="26.0" fill="#000000" transform="matrix(1.00, 0.00, -0.00, -1.00, 375.7, 179.6)">(</text><text xml:space="preserve" font-family="Courier,Courier" font-size="26.0" fill="#000000" transform="matrix(1.00, 0.00, -0.00, -1.00, 391.3, 179.6)">t</text><text xml:space="preserve" font-family="Courier,Courier" font-size="26.0" fill="#000000" transform="matrix(1.00, 0.00, -0.00, -1.00, 406.9, 179.6)">r</text><text xml:space="preserve" font-family="Courier,Courier" font-size="26.0" fill="#000000" transform="matrix(1.00, 0.00, -0.00, -1.00, 422.5, 179.6)">e</text><text xml:space="preserve" font-family="Courier,Courier" font-size="26.0" fill="#000000" transform="matrix(1.00, 0.00, -0.00, -1.00, 438.1, 179.6)">e</text><text xml:space="preserve" font-family="Courier,Courier" font-size="26.0" fill="#000000" transform="matrix(1.00, 0.00, -0.00, -1.00, 453.7, 179.6)">,</text><text xml:space="preserve" font-family="Courier,Courier" font-size="26.0" fill="#000000" transform="matrix(1.00, 0.00, -0.00, -1.00, 469.3, 179.6)"> </text><text xml:space="preserve" font-family="Courier,Courier" font-size="26.0" fill="#000000" transform="matrix(1.00, 0.00, -0.00, -1.00, 484.9, 179.6)">{</text><text xml:space="preserve" font-family="Courier,Courier" font-size="26.0" fill="#000000" transform="matrix(1.00, 0.00, -0.00, -1.00, 110.5, 145.3)"> </text><text xml:space="preserve" font-family="Courier,Courier" font-size="26.0" fill="#000000" transform="matrix(1.00, 0.00, -0.00, -1.00, 126.1, 145.3)"> </text><text xml:space="preserve" font-family="Courier-Bold,Courier" font-weight="bold" font-size="29.0" fill="#000000" transform="matrix(1.00, 0.00, -0.00, -1.00, 141.7, 145.3)">e</text><text xml:space="preserve" font-family="Courier-Bold,Courier" font-weight="bold" font-size="29.0" fill="#000000" transform="matrix(1.00, 0.00, -0.00, -1.00, 159.1, 145.3)">n</text><text xml:space="preserve" font-family="Courier-Bold,Courier" font-weight="bold" font-size="29.0" fill="#000000" transform="matrix(1.00, 0.00, -0.00, -1.00, 176.5, 145.3)">t</text><text xml:space="preserve" font-family="Courier-Bold,Courier" font-weight="bold" font-size="29.0" fill="#000000" transform="matrix(1.00, 0.00, -0.00, -1.00, 193.9, 145.3)">r</text><text xml:space="preserve" font-family="Courier-Bold,Courier" font-weight="bold" font-size="29.0" fill="#000000" transform="matrix(1.00, 0.00, -0.00, -1.00, 211.3, 145.3)">i</text><text xml:space="preserve" font-family="Courier-Bold,Courier" font-weight="bold" font-size="29.0" fill="#000000" transform="matrix(1.00, 0.00, -0.00, -1.00, 228.7, 145.3)">e</text><text xml:space="preserve" font-family="Courier-Bold,Courier" font-weight="bold" font-size="29.0" fill="#000000" transform="matrix(1.00, 0.00, -0.00, -1.00, 246.1, 145.3)">s</text><text xml:space="preserve" font-family="Courier,Courier" font-size="26.0" fill="#797979" transform="matrix(1.00, 0.00, -0.00, -1.00, 263.5, 145.3)">:</text><text xml:space="preserve" font-family="Courier,Courier" font-size="26.0" fill="#000000" transform="matrix(1.00, 0.00, -0.00, -1.00, 279.1, 145.3)"> </text><text xml:space="preserve" font-family="Courier,Courier" font-size="26.0" fill="#000000" transform="matrix(1.00, 0.00, -0.00, -1.00, 294.7, 145.3)">[</text><text xml:space="preserve" font-family="Courier,Courier" font-size="26.0" fill="#C8352B" transform="matrix(1.00, 0.00, -0.00, -1.00, 310.3, 145.3)">'</text><text xml:space="preserve" font-family="Courier,Courier" font-size="26.0" fill="#C8352B" transform="matrix(1.00, 0.00, -0.00, -1.00, 325.9, 145.3)">s</text><text xml:space="preserve" font-family="Courier,Courier" font-size="26.0" fill="#C8352B" transform="matrix(1.00, 0.00, -0.00, -1.00, 341.5, 145.3)">r</text><text xml:space="preserve" font-family="Courier,Courier" font-size="26.0" fill="#C8352B" transform="matrix(1.00, 0.00, -0.00, -1.00, 357.1, 145.3)">c</text><text xml:space="preserve" font-family="Courier,Courier" font-size="26.0" fill="#C8352B" transform="matrix(1.00, 0.00, -0.00, -1.00, 372.7, 145.3)">/</text><text xml:space="preserve" font-family="Courier,Courier" font-size="26.0" fill="#C8352B" transform="matrix(1.00, 0.00, -0.00, -1.00, 388.3, 145.3)">j</text><text xml:space="preserve" font-family="Courier,Courier" font-size="26.0" fill="#C8352B" transform="matrix(1.00, 0.00, -0.00, -1.00, 403.9, 145.3)">s</text><text xml:space="preserve" font-family="Courier,Courier" font-size="26.0" fill="#C8352B" transform="matrix(1.00, 0.00, -0.00, -1.00, 419.5, 145.3)">/</text><text xml:space="preserve" font-family="Courier,Courier" font-size="26.0" fill="#C8352B" transform="matrix(1.00, 0.00, -0.00, -1.00, 435.1, 145.3)">a</text><text xml:space="preserve" font-family="Courier,Courier" font-size="26.0" fill="#C8352B" transform="matrix(1.00, 0.00, -0.00, -1.00, 450.7, 145.3)">p</text><text xml:space="preserve" font-family="Courier,Courier" font-size="26.0" fill="#C8352B" transform="matrix(1.00, 0.00, -0.00, -1.00, 466.3, 145.3)">p</text><text xml:space="preserve" font-family="Courier,Courier" font-size="26.0" fill="#C8352B" transform="matrix(1.00, 0.00, -0.00, -1.00, 481.9, 145.3)">.</text><text xml:space="preserve" font-family="Courier,Courier" font-size="26.0" fill="#C8352B" transform="matrix(1.00, 0.00, -0.00, -1.00, 497.5, 145.3)">j</text><text xml:space="preserve" font-family="Courier,Courier" font-size="26.0" fill="#C8352B" transform="matrix(1.00, 0.00, -0.00, -1.00, 513.1, 145.3)">s</text><text xml:space="preserve" font-family="Courier,Courier" font-size="26.0" fill="#C8352B" transform="matrix(1.00, 0.00, -0.00, -1.00, 528.7, 145.3)">'</text><text xml:space="preserve" font-family="Courier,Courier" font-size="26.0" fill="#000000" transform="matrix(1.00, 0.00, -0.00, -1.00, 544.3, 145.3)">]</text><text xml:space="preserve" font-family="Courier,Courier" font-size="26.0" fill="#000000" transform="matrix(1.00, 0.00, -0.00, -1.00, 559.9, 145.3)">,</text><text xml:space="preserve" font-family="Courier,Courier" font-size="26.0" fill="#000000" transform="matrix(1.00, 0.00, -0.00, -1.00, 110.5, 110.3)"> </text><text xml:space="preserve" font-family="Courier,Courier" font-size="26.0" fill="#000000" transform="matrix(1.00, 0.00, -0.00, -1.00, 126.1, 110.3)"> </text><text xml:space="preserve" font-family="Courier-Bold,Courier" font-weight="bold" font-size="29.0" fill="#000000" transform="matrix(1.00, 0.00, -0.00, -1.00, 141.7, 110.3)">o</text><text xml:space="preserve" font-family="Courier-Bold,Courier" font-weight="bold" font-size="29.0" fill="#000000" transform="matrix(1.00, 0.00, -0.00, -1.00, 159.1, 110.3)">u</text><text xml:space="preserve" font-family="Courier-Bold,Courier" font-weight="bold" font-size="29.0" fill="#000000" transform="matrix(1.00, 0.00, -0.00, -1.00, 176.5, 110.3)">t</text><text xml:space="preserve" font-family="Courier-Bold,Courier" font-weight="bold" font-size="29.0" fill="#000000" transform="matrix(1.00, 0.00, -0.00, -1.00, 193.9, 110.3)">p</text><text xml:space="preserve" font-family="Courier-Bold,Courier" font-weight="bold" font-size="29.0" fill="#000000" transform="matrix(1.00, 0.00, -0.00, -1.00, 211.3, 110.3)">u</text><text xml:space="preserve" font-family="Courier-Bold,Courier" font-weight="bold" font-size="29.0" fill="#000000" transform="matrix(1.00, 0.00, -0.00, -1.00, 228.7, 110.3)">t</text><text xml:space="preserve" font-family="Courier-Bold,Courier" font-weight="bold" font-size="29.0" fill="#000000" transform="matrix(1.00, 0.00, -0.00, -1.00, 246.1, 110.3)">F</text><text xml:space="preserve" font-family="Courier-Bold,Courier" font-weight="bold" font-size="29.0" fill="#000000" transform="matrix(1.00, 0.00, -0.00, -1.00, 263.5, 110.3)">i</text><text xml:space="preserve" font-family="Courier-Bold,Courier" font-weight="bold" font-size="29.0" fill="#000000" transform="matrix(1.00, 0.00, -0.00, -1.00, 280.9, 110.3)">l</text><text xml:space="preserve" font-family="Courier-Bold,Courier" font-weight="bold" font-size="29.0" fill="#000000" transform="matrix(1.00, 0.00, -0.00, -1.00, 298.3, 110.3)">e</text><text xml:space="preserve" font-family="Courier,Courier" font-size="26.0" fill="#797979" transform="matrix(1.00, 0.00, -0.00, -1.00, 315.7, 110.3)">:</text><text xml:space="preserve" font-family="Courier,Courier" font-size="26.0" fill="#000000" transform="matrix(1.00, 0.00, -0.00, -1.00, 331.3, 110.3)"> </text><text xml:space="preserve" font-family="Courier,Courier" font-size="26.0" fill="#C8352B" transform="matrix(1.00, 0.00, -0.00, -1.00, 346.9, 110.3)">'</text><text xml:space="preserve" font-family="Courier,Courier" font-size="26.0" fill="#C8352B" transform="matrix(1.00, 0.00, -0.00, -1.00, 362.5, 110.3)">.</text><text xml:space="preserve" font-family="Courier,Courier" font-size="26.0" fill="#C8352B" transform="matrix(1.00, 0.00, -0.00, -1.00, 378.1, 110.3)">/</text><text xml:space="preserve" font-family="Courier,Courier" font-size="26.0" fill="#C8352B" transform="matrix(1.00, 0.00, -0.00, -1.00, 393.7, 110.3)">b</text><text xml:space="preserve" font-family="Courier,Courier" font-size="26.0" fill="#C8352B" transform="matrix(1.00, 0.00, -0.00, -1.00, 409.3, 110.3)">u</text><text xml:space="preserve" font-family="Courier,Courier" font-size="26.0" fill="#C8352B" transform="matrix(1.00, 0.00, -0.00, -1.00, 424.9, 110.3)">i</text><text xml:space="preserve" font-family="Courier,Courier" font-size="26.0" fill="#C8352B" transform="matrix(1.00, 0.00, -0.00, -1.00, 440.5, 110.3)">l</text><text xml:space="preserve" font-family="Courier,Courier" font-size="26.0" fill="#C8352B" transform="matrix(1.00, 0.00, -0.00, -1.00, 456.1, 110.3)">d</text><text xml:space="preserve" font-family="Courier,Courier" font-size="26.0" fill="#C8352B" transform="matrix(1.00, 0.00, -0.00, -1.00, 471.7, 110.3)">/</text><text xml:space="preserve" font-family="Courier,Courier" font-size="26.0" fill="#C8352B" transform="matrix(1.00, 0.00, -0.00, -1.00, 487.3, 110.3)">a</text><text xml:space="preserve" font-family="Courier,Courier" font-size="26.0" fill="#C8352B" transform="matrix(1.00, 0.00, -0.00, -1.00, 502.9, 110.3)">p</text><text xml:space="preserve" font-family="Courier,Courier" font-size="26.0" fill="#C8352B" transform="matrix(1.00, 0.00, -0.00, -1.00, 518.5, 110.3)">p</text><text xml:space="preserve" font-family="Courier,Courier" font-size="26.0" fill="#C8352B" transform="matrix(1.00, 0.00, -0.00, -1.00, 534.1, 110.3)">.</text><text xml:space="preserve" font-family="Courier,Courier" font-size="26.0" fill="#C8352B" transform="matrix(1.00, 0.00, -0.00, -1.00, 549.7, 110.3)">j</text><text xml:space="preserve" font-family="Courier,Courier" font-size="26.0" fill="#C8352B" transform="matrix(1.00, 0.00, -0.00, -1.00, 565.3, 110.3)">s</text><text xml:space="preserve" font-family="Courier,Courier" font-size="26.0" fill="#C8352B" transform="matrix(1.00, 0.00, -0.00, -1.00, 580.9, 110.3)">'</text><text xml:space="preserve" font-family="Courier,Courier" font-size="26.0" fill="#000000" transform="matrix(1.00, 0.00, -0.00, -1.00, 110.5, 78.6)">}</text><text xml:space="preserve" font-family="Courier,Courier" font-size="26.0" fill="#000000" transform="matrix(1.00, 0.00, -0.00, -1.00, 126.1, 78.6)">)</text><text xml:space="preserve" font-family="Courier,Courier" font-size="26.0" fill="#000000" transform="matrix(1.00, 0.00, -0.00, -1.00, 141.7, 78.6)">;</text></g></g></g></svg>