<?xml version="1.0" encoding="UTF-8" standalone="no"?><svg xmlns="http://www.w3.org/2000/svg" xmlns:xlink="http://www.w3.org/1999/xlink" clip-rule="evenodd" stroke-miterlimit="10" viewBox="0 0 769 304"><desc>SVG generated by Keynote</desc><defs></defs><g transform="matrix(1.00, 0.00, -0.00, -1.00, 0.0, 304.0)"><g><clipPath id="clip0x7fa0c8e80310"><path d="M -1.7 -1.3 L 1089.5 -1.3 L 1089.5 298.7 L -1.7 298.7 Z M -1.7 -1.3 "></path></clipPath><g clip-path="url(#clip0x7fa0c8e80310)"><text xml:space="preserve" font-family="Courier,Courier" font-size="26.0" fill="#C8352B" transform="matrix(1.00, 0.00, -0.00, -1.00, 5.5, 267.6)">"</text><text xml:space="preserve" font-family="Courier,Courier" font-size="26.0" fill="#C8352B" transform="matrix(1.00, 0.00, -0.00, -1.00, 21.1, 267.6)">r</text><text xml:space="preserve" font-family="Courier,Courier" font-size="26.0" fill="#C8352B" transform="matrix(1.00, 0.00, -0.00, -1.00, 36.7, 267.6)">e</text><text xml:space="preserve" font-family="Courier,Courier" font-size="26.0" fill="#C8352B" transform="matrix(1.00, 0.00, -0.00, -1.00, 52.3, 267.6)">q</text><text xml:space="preserve" font-family="Courier,Courier" font-size="26.0" fill="#C8352B" transform="matrix(1.00, 0.00, -0.00, -1.00, 67.9, 267.6)">u</text><text xml:space="preserve" font-family="Courier,Courier" font-size="26.0" fill="#C8352B" transform="matrix(1.00, 0.00, -0.00, -1.00, 83.5, 267.6)">i</text><text xml:space="preserve" font-family="Courier,Courier" font-size="26.0" fill="#C8352B" transform="matrix(1.00, 0.00, -0.00, -1.00, 99.1, 267.6)">r</text><text xml:space="preserve" font-family="Courier,Courier" font-size="26.0" fill="#C8352B" transform="matrix(1.00, 0.00, -0.00, -1.00, 114.7, 267.6)">e</text><text xml:space="preserve" font-family="Courier,Courier" font-size="26.0" fill="#C8352B" transform="matrix(1.00, 0.00, -0.00, -1.00, 130.3, 267.6)">j</text><text xml:space="preserve" font-family="Courier,Courier" font-size="26.0" fill="#C8352B" transform="matrix(1.00, 0.00, -0.00, -1.00, 145.9, 267.6)">s</text><text xml:space="preserve" font-family="Courier,Courier" font-size="26.0" fill="#C8352B" transform="matrix(1.00, 0.00, -0.00, -1.00, 161.5, 267.6)">"</text><text xml:space="preserve" font-family="Courier,Courier" font-size="26.0" fill="#797979" transform="matrix(1.00, 0.00, -0.00, -1.00, 177.1, 267.6)">:</text><text xml:space="preserve" font-family="Courier,Courier" font-size="26.0" fill="#000000" transform="matrix(1.00, 0.00, -0.00, -1.00, 192.7, 267.6)"> </text><text xml:space="preserve" font-family="Courier,Courier" font-size="26.0" fill="#000000" transform="matrix(1.00, 0.00, -0.00, -1.00, 208.3, 267.6)">{</text><text xml:space="preserve" font-family="Courier,Courier" font-size="26.0" fill="#000000" transform="matrix(1.00, 0.00, -0.00, -1.00, 5.5, 236.6)"> </text><text xml:space="preserve" font-family="Courier,Courier" font-size="26.0" fill="#000000" transform="matrix(1.00, 0.00, -0.00, -1.00, 21.1, 236.6)"> </text><text xml:space="preserve" font-family="Courier,Courier" font-size="26.0" fill="#C8352B" transform="matrix(1.00, 0.00, -0.00, -1.00, 36.7, 236.6)">"</text><text xml:space="preserve" font-family="Courier,Courier" font-size="26.0" fill="#C8352B" transform="matrix(1.00, 0.00, -0.00, -1.00, 52.3, 236.6)">b</text><text xml:space="preserve" font-family="Courier,Courier" font-size="26.0" fill="#C8352B" transform="matrix(1.00, 0.00, -0.00, -1.00, 67.9, 236.6)">u</text><text xml:space="preserve" font-family="Courier,Courier" font-size="26.0" fill="#C8352B" transform="matrix(1.00, 0.00, -0.00, -1.00, 83.5, 236.6)">n</text><text xml:space="preserve" font-family="Courier,Courier" font-size="26.0" fill="#C8352B" transform="matrix(1.00, 0.00, -0.00, -1.00, 99.1, 236.6)">d</text><text xml:space="preserve" font-family="Courier,Courier" font-size="26.0" fill="#C8352B" transform="matrix(1.00, 0.00, -0.00, -1.00, 114.7, 236.6)">l</text><text xml:space="preserve" font-family="Courier,Courier" font-size="26.0" fill="#C8352B" transform="matrix(1.00, 0.00, -0.00, -1.00, 130.3, 236.6)">e</text><text xml:space="preserve" font-family="Courier,Courier" font-size="26.0" fill="#C8352B" transform="matrix(1.00, 0.00, -0.00, -1.00, 145.9, 236.6)">"</text><text xml:space="preserve" font-family="Courier,Courier" font-size="26.0" fill="#797979" transform="matrix(1.00, 0.00, -0.00, -1.00, 161.5, 236.6)">:</text><text xml:space="preserve" font-family="Courier,Courier" font-size="26.0" fill="#000000" transform="matrix(1.00, 0.00, -0.00, -1.00, 177.1, 236.6)"> </text><text xml:space="preserve" font-family="Courier,Courier" font-size="26.0" fill="#000000" transform="matrix(1.00, 0.00, -0.00, -1.00, 192.7, 236.6)">{</text><text xml:space="preserve" font-family="Courier,Courier" font-size="26.0" fill="#000000" transform="matrix(1.00, 0.00, -0.00, -1.00, 5.5, 205.6)"> </text><text xml:space="preserve" font-family="Courier,Courier" font-size="26.0" fill="#000000" transform="matrix(1.00, 0.00, -0.00, -1.00, 21.1, 205.6)"> </text><text xml:space="preserve" font-family="Courier,Courier" font-size="26.0" fill="#000000" transform="matrix(1.00, 0.00, -0.00, -1.00, 36.7, 205.6)"> </text><text xml:space="preserve" font-family="Courier,Courier" font-size="26.0" fill="#000000" transform="matrix(1.00, 0.00, -0.00, -1.00, 52.3, 205.6)"> </text><text xml:space="preserve" font-family="Courier,Courier" font-size="26.0" fill="#C8352B" transform="matrix(1.00, 0.00, -0.00, -1.00, 67.9, 205.6)">"</text><text xml:space="preserve" font-family="Courier,Courier" font-size="26.0" fill="#C8352B" transform="matrix(1.00, 0.00, -0.00, -1.00, 83.5, 205.6)">o</text><text xml:space="preserve" font-family="Courier,Courier" font-size="26.0" fill="#C8352B" transform="matrix(1.00, 0.00, -0.00, -1.00, 99.1, 205.6)">p</text><text xml:space="preserve" font-family="Courier,Courier" font-size="26.0" fill="#C8352B" transform="matrix(1.00, 0.00, -0.00, -1.00, 114.7, 205.6)">t</text><text xml:space="preserve" font-family="Courier,Courier" font-size="26.0" fill="#C8352B" transform="matrix(1.00, 0.00, -0.00, -1.00, 130.3, 205.6)">i</text><text xml:space="preserve" font-family="Courier,Courier" font-size="26.0" fill="#C8352B" transform="matrix(1.00, 0.00, -0.00, -1.00, 145.9, 205.6)">o</text><text xml:space="preserve" font-family="Courier,Courier" font-size="26.0" fill="#C8352B" transform="matrix(1.00, 0.00, -0.00, -1.00, 161.5, 205.6)">n</text><text xml:space="preserve" font-family="Courier,Courier" font-size="26.0" fill="#C8352B" transform="matrix(1.00, 0.00, -0.00, -1.00, 177.1, 205.6)">s</text><text xml:space="preserve" font-family="Courier,Courier" font-size="26.0" fill="#C8352B" transform="matrix(1.00, 0.00, -0.00, -1.00, 192.7, 205.6)">"</text><text xml:space="preserve" font-family="Courier,Courier" font-size="26.0" fill="#797979" transform="matrix(1.00, 0.00, -0.00, -1.00, 208.3, 205.6)">:</text><text xml:space="preserve" font-family="Courier,Courier" font-size="26.0" fill="#000000" transform="matrix(1.00, 0.00, -0.00, -1.00, 223.9, 205.6)"> </text><text xml:space="preserve" font-family="Courier,Courier" font-size="26.0" fill="#000000" transform="matrix(1.00, 0.00, -0.00, -1.00, 239.5, 205.6)">{</text><text xml:space="preserve" font-family="Courier,Courier" font-size="26.0" fill="#000000" transform="matrix(1.00, 0.00, -0.00, -1.00, 5.5, 171.3)"> </text><text xml:space="preserve" font-family="Courier,Courier" font-size="26.0" fill="#000000" transform="matrix(1.00, 0.00, -0.00, -1.00, 21.1, 171.3)"> </text><text xml:space="preserve" font-family="Courier,Courier" font-size="26.0" fill="#000000" transform="matrix(1.00, 0.00, -0.00, -1.00, 36.7, 171.3)"> </text><text xml:space="preserve" font-family="Courier,Courier" font-size="26.0" fill="#000000" transform="matrix(1.00, 0.00, -0.00, -1.00, 52.3, 171.3)"> </text><text xml:space="preserve" font-family="Courier,Courier" font-size="26.0" fill="#000000" transform="matrix(1.00, 0.00, -0.00, -1.00, 67.9, 171.3)"> </text><text xml:space="preserve" font-family="Courier,Courier" font-size="26.0" fill="#000000" transform="matrix(1.00, 0.00, -0.00, -1.00, 83.5, 171.3)"> </text><text xml:space="preserve" font-family="Courier,Courier" font-size="26.0" fill="#C8352B" transform="matrix(1.00, 0.00, -0.00, -1.00, 99.1, 171.3)">"</text><text xml:space="preserve" font-family="Courier-Bold,Courier" font-weight="bold" font-size="29.0" fill="#C8352B" transform="matrix(1.00, 0.00, -0.00, -1.00, 114.7, 171.3)">i</text><text xml:space="preserve" font-family="Courier-Bold,Courier" font-weight="bold" font-size="29.0" fill="#C8352B" transform="matrix(1.00, 0.00, -0.00, -1.00, 132.1, 171.3)">n</text><text xml:space="preserve" font-family="Courier-Bold,Courier" font-weight="bold" font-size="29.0" fill="#C8352B" transform="matrix(1.00, 0.00, -0.00, -1.00, 149.5, 171.3)">c</text><text xml:space="preserve" font-family="Courier-Bold,Courier" font-weight="bold" font-size="29.0" fill="#C8352B" transform="matrix(1.00, 0.00, -0.00, -1.00, 166.9, 171.3)">l</text><text xml:space="preserve" font-family="Courier-Bold,Courier" font-weight="bold" font-size="29.0" fill="#C8352B" transform="matrix(1.00, 0.00, -0.00, -1.00, 184.3, 171.3)">u</text><text xml:space="preserve" font-family="Courier-Bold,Courier" font-weight="bold" font-size="29.0" fill="#C8352B" transform="matrix(1.00, 0.00, -0.00, -1.00, 201.7, 171.3)">d</text><text xml:space="preserve" font-family="Courier-Bold,Courier" font-weight="bold" font-size="29.0" fill="#C8352B" transform="matrix(1.00, 0.00, -0.00, -1.00, 219.1, 171.3)">e</text><text xml:space="preserve" font-family="Courier,Courier" font-size="26.0" fill="#C8352B" transform="matrix(1.00, 0.00, -0.00, -1.00, 236.5, 171.3)">"</text><text xml:space="preserve" font-family="Courier,Courier" font-size="26.0" fill="#797979" transform="matrix(1.00, 0.00, -0.00, -1.00, 252.1, 171.3)">:</text><text xml:space="preserve" font-family="Courier,Courier" font-size="26.0" fill="#000000" transform="matrix(1.00, 0.00, -0.00, -1.00, 267.7, 171.3)"> </text><text xml:space="preserve" font-family="Courier,Courier" font-size="26.0" fill="#C8352B" transform="matrix(1.00, 0.00, -0.00, -1.00, 283.4, 171.3)">“</text><text xml:space="preserve" font-family="Courier,Courier" font-size="26.0" fill="#C8352B" transform="matrix(1.00, 0.00, -0.00, -1.00, 299.0, 171.3)">s</text><text xml:space="preserve" font-family="Courier,Courier" font-size="26.0" fill="#C8352B" transform="matrix(1.00, 0.00, -0.00, -1.00, 314.6, 171.3)">r</text><text xml:space="preserve" font-family="Courier,Courier" font-size="26.0" fill="#C8352B" transform="matrix(1.00, 0.00, -0.00, -1.00, 330.2, 171.3)">c</text><text xml:space="preserve" font-family="Courier,Courier" font-size="26.0" fill="#C8352B" transform="matrix(1.00, 0.00, -0.00, -1.00, 345.8, 171.3)">/</text><text xml:space="preserve" font-family="Courier,Courier" font-size="26.0" fill="#C8352B" transform="matrix(1.00, 0.00, -0.00, -1.00, 361.4, 171.3)">j</text><text xml:space="preserve" font-family="Courier,Courier" font-size="26.0" fill="#C8352B" transform="matrix(1.00, 0.00, -0.00, -1.00, 377.0, 171.3)">s</text><text xml:space="preserve" font-family="Courier,Courier" font-size="26.0" fill="#C8352B" transform="matrix(1.00, 0.00, -0.00, -1.00, 392.6, 171.3)">/</text><text xml:space="preserve" font-family="Courier,Courier" font-size="26.0" fill="#C8352B" transform="matrix(1.00, 0.00, -0.00, -1.00, 408.2, 171.3)">a</text><text xml:space="preserve" font-family="Courier,Courier" font-size="26.0" fill="#C8352B" transform="matrix(1.00, 0.00, -0.00, -1.00, 423.8, 171.3)">p</text><text xml:space="preserve" font-family="Courier,Courier" font-size="26.0" fill="#C8352B" transform="matrix(1.00, 0.00, -0.00, -1.00, 439.4, 171.3)">p</text><text xml:space="preserve" font-family="Courier,Courier" font-size="26.0" fill="#C8352B" transform="matrix(1.00, 0.00, -0.00, -1.00, 455.0, 171.3)">.</text><text xml:space="preserve" font-family="Courier,Courier" font-size="26.0" fill="#C8352B" transform="matrix(1.00, 0.00, -0.00, -1.00, 470.6, 171.3)">j</text><text xml:space="preserve" font-family="Courier,Courier" font-size="26.0" fill="#C8352B" transform="matrix(1.00, 0.00, -0.00, -1.00, 486.2, 171.3)">s</text><text xml:space="preserve" font-family="Courier,Courier" font-size="26.0" fill="#C8352B" transform="matrix(1.00, 0.00, -0.00, -1.00, 501.8, 171.3)">”</text><text xml:space="preserve" font-family="Courier,Courier" font-size="26.0" fill="#000000" transform="matrix(1.00, 0.00, -0.00, -1.00, 517.4, 171.3)">,</text><text xml:space="preserve" font-family="Courier,Courier" font-size="26.0" fill="#000000" transform="matrix(1.00, 0.00, -0.00, -1.00, 5.5, 136.3)"> </text><text xml:space="preserve" font-family="Courier,Courier" font-size="26.0" fill="#000000" transform="matrix(1.00, 0.00, -0.00, -1.00, 21.1, 136.3)"> </text><text xml:space="preserve" font-family="Courier,Courier" font-size="26.0" fill="#000000" transform="matrix(1.00, 0.00, -0.00, -1.00, 36.7, 136.3)"> </text><text xml:space="preserve" font-family="Courier,Courier" font-size="26.0" fill="#000000" transform="matrix(1.00, 0.00, -0.00, -1.00, 52.3, 136.3)"> </text><text xml:space="preserve" font-family="Courier,Courier" font-size="26.0" fill="#000000" transform="matrix(1.00, 0.00, -0.00, -1.00, 67.9, 136.3)"> </text><text xml:space="preserve" font-family="Courier,Courier" font-size="26.0" fill="#000000" transform="matrix(1.00, 0.00, -0.00, -1.00, 83.5, 136.3)"> </text><text xml:space="preserve" font-family="Courier,Courier" font-size="26.0" fill="#C8352B" transform="matrix(1.00, 0.00, -0.00, -1.00, 99.1, 136.3)">"</text><text xml:space="preserve" font-family="Courier-Bold,Courier" font-weight="bold" font-size="29.0" fill="#C8352B" transform="matrix(1.00, 0.00, -0.00, -1.00, 114.7, 136.3)">o</text><text xml:space="preserve" font-family="Courier-Bold,Courier" font-weight="bold" font-size="29.0" fill="#C8352B" transform="matrix(1.00, 0.00, -0.00, -1.00, 132.1, 136.3)">u</text><text xml:space="preserve" font-family="Courier-Bold,Courier" font-weight="bold" font-size="29.0" fill="#C8352B" transform="matrix(1.00, 0.00, -0.00, -1.00, 149.5, 136.3)">t</text><text xml:space="preserve" font-family="Courier,Courier" font-size="26.0" fill="#C8352B" transform="matrix(1.00, 0.00, -0.00, -1.00, 166.9, 136.3)">"</text><text xml:space="preserve" font-family="Courier,Courier" font-size="26.0" fill="#797979" transform="matrix(1.00, 0.00, -0.00, -1.00, 182.5, 136.3)">:</text><text xml:space="preserve" font-family="Courier,Courier" font-size="26.0" fill="#000000" transform="matrix(1.00, 0.00, -0.00, -1.00, 198.1, 136.3)"> </text><text xml:space="preserve" font-family="Courier,Courier" font-size="26.0" fill="#C8352B" transform="matrix(1.00, 0.00, -0.00, -1.00, 213.7, 136.3)">“</text><text xml:space="preserve" font-family="Courier,Courier" font-size="26.0" fill="#C8352B" transform="matrix(1.00, 0.00, -0.00, -1.00, 229.3, 136.3)">b</text><text xml:space="preserve" font-family="Courier,Courier" font-size="26.0" fill="#C8352B" transform="matrix(1.00, 0.00, -0.00, -1.00, 244.9, 136.3)">u</text><text xml:space="preserve" font-family="Courier,Courier" font-size="26.0" fill="#C8352B" transform="matrix(1.00, 0.00, -0.00, -1.00, 260.5, 136.3)">i</text><text xml:space="preserve" font-family="Courier,Courier" font-size="26.0" fill="#C8352B" transform="matrix(1.00, 0.00, -0.00, -1.00, 276.1, 136.3)">l</text><text xml:space="preserve" font-family="Courier,Courier" font-size="26.0" fill="#C8352B" transform="matrix(1.00, 0.00, -0.00, -1.00, 291.8, 136.3)">d</text><text xml:space="preserve" font-family="Courier,Courier" font-size="26.0" fill="#C8352B" transform="matrix(1.00, 0.00, -0.00, -1.00, 307.4, 136.3)">.</text><text xml:space="preserve" font-family="Courier,Courier" font-size="26.0" fill="#C8352B" transform="matrix(1.00, 0.00, -0.00, -1.00, 323.0, 136.3)">j</text><text xml:space="preserve" font-family="Courier,Courier" font-size="26.0" fill="#C8352B" transform="matrix(1.00, 0.00, -0.00, -1.00, 338.6, 136.3)">s</text><text xml:space="preserve" font-family="Courier,Courier" font-size="26.0" fill="#C8352B" transform="matrix(1.00, 0.00, -0.00, -1.00, 354.2, 136.3)">"</text><text xml:space="preserve" font-family="Courier,Courier" font-size="26.0" fill="#000000" transform="matrix(1.00, 0.00, -0.00, -1.00, 5.5, 104.6)"> </text><text xml:space="preserve" font-family="Courier,Courier" font-size="26.0" fill="#000000" transform="matrix(1.00, 0.00, -0.00, -1.00, 21.1, 104.6)"> </text><text xml:space="preserve" font-family="Courier,Courier" font-size="26.0" fill="#000000" transform="matrix(1.00, 0.00, -0.00, -1.00, 36.7, 104.6)"> </text><text xml:space="preserve" font-family="Courier,Courier" font-size="26.0" fill="#000000" transform="matrix(1.00, 0.00, -0.00, -1.00, 52.3, 104.6)"> </text><text xml:space="preserve" font-family="Courier,Courier" font-size="26.0" fill="#000000" transform="matrix(1.00, 0.00, -0.00, -1.00, 67.9, 104.6)">}</text><text xml:space="preserve" font-family="Courier,Courier" font-size="26.0" fill="#000000" transform="matrix(1.00, 0.00, -0.00, -1.00, 5.5, 73.6)"> </text><text xml:space="preserve" font-family="Courier,Courier" font-size="26.0" fill="#000000" transform="matrix(1.00, 0.00, -0.00, -1.00, 21.1, 73.6)"> </text><text xml:space="preserve" font-family="Courier,Courier" font-size="26.0" fill="#000000" transform="matrix(1.00, 0.00, -0.00, -1.00, 36.7, 73.6)">}</text><text xml:space="preserve" font-family="Courier,Courier" font-size="26.0" fill="#000000" transform="matrix(1.00, 0.00, -0.00, -1.00, 5.5, 42.6)">}</text></g></g><g><clipPath id="clip0x7fa0c6f94070"><path d="M 577.0 112.4 L 768.1 112.4 L 768.1 303.5 L 577.0 303.5 Z M 577.0 112.4 "></path></clipPath><g clip-path="url(#clip0x7fa0c6f94070)"><image xlink:href="../../0099E750-43F4-4A1E-80C1-2076B752852F/assets/5920F148D175DE72B6F6E244C369D8BD.png" width="512.00" height="512.00" transform="matrix(0.37, 0.00, -0.00, -0.37, 577.0, 303.5)"></image></g></g></g></svg>