<?xml version="1.0" encoding="UTF-8" standalone="no"?><svg xmlns="http://www.w3.org/2000/svg" xmlns:xlink="http://www.w3.org/1999/xlink" clip-rule="evenodd" stroke-miterlimit="10" viewBox="0 0 414 28"><desc>SVG generated by Keynote</desc><defs></defs><g transform="matrix(1.00, 0.00, -0.00, -1.00, 0.0, 28.0)"><text xml:space="preserve" font-family="Courier,Courier" font-size="28.0" fill="#C8352B" transform="matrix(1.00, 0.00, -0.00, -1.00, -2.3, 7.8)">"</text><text xml:space="preserve" font-family="Courier,Courier" font-size="28.0" fill="#C8352B" transform="matrix(1.00, 0.00, -0.00, -1.00, 14.5, 7.8)">t</text><text xml:space="preserve" font-family="Courier,Courier" font-size="28.0" fill="#C8352B" transform="matrix(1.00, 0.00, -0.00, -1.00, 31.3, 7.8)">y</text><text xml:space="preserve" font-family="Courier,Courier" font-size="28.0" fill="#C8352B" transform="matrix(1.00, 0.00, -0.00, -1.00, 48.1, 7.8)">p</text><text xml:space="preserve" font-family="Courier,Courier" font-size="28.0" fill="#C8352B" transform="matrix(1.00, 0.00, -0.00, -1.00, 64.9, 7.8)">e</text><text xml:space="preserve" font-family="Courier,Courier" font-size="28.0" fill="#C8352B" transform="matrix(1.00, 0.00, -0.00, -1.00, 81.7, 7.8)">"</text><text xml:space="preserve" font-family="Courier,Courier" font-size="28.0" fill="#797979" transform="matrix(1.00, 0.00, -0.00, -1.00, 98.5, 7.8)">:</text><text xml:space="preserve" font-family="Courier,Courier" font-size="28.0" fill="#000000" transform="matrix(1.00, 0.00, -0.00, -1.00, 115.3, 7.8)"> </text><text xml:space="preserve" font-family="Courier,Courier" font-size="28.0" fill="#C8352B" transform="matrix(1.00, 0.00, -0.00, -1.00, 132.1, 7.8)">"</text><text xml:space="preserve" font-family="Courier,Courier" font-size="28.0" fill="#C8352B" transform="matrix(1.00, 0.00, -0.00, -1.00, 148.9, 7.8)">C</text><text xml:space="preserve" font-family="Courier,Courier" font-size="28.0" fill="#C8352B" transform="matrix(1.00, 0.00, -0.00, -1.00, 165.7, 7.8)">a</text><text xml:space="preserve" font-family="Courier,Courier" font-size="28.0" fill="#C8352B" transform="matrix(1.00, 0.00, -0.00, -1.00, 182.5, 7.8)">l</text><text xml:space="preserve" font-family="Courier,Courier" font-size="28.0" fill="#C8352B" transform="matrix(1.00, 0.00, -0.00, -1.00, 199.3, 7.8)">l</text><text xml:space="preserve" font-family="Courier,Courier" font-size="28.0" fill="#C8352B" transform="matrix(1.00, 0.00, -0.00, -1.00, 216.1, 7.8)">E</text><text xml:space="preserve" font-family="Courier,Courier" font-size="28.0" fill="#C8352B" transform="matrix(1.00, 0.00, -0.00, -1.00, 232.9, 7.8)">x</text><text xml:space="preserve" font-family="Courier,Courier" font-size="28.0" fill="#C8352B" transform="matrix(1.00, 0.00, -0.00, -1.00, 249.7, 7.8)">p</text><text xml:space="preserve" font-family="Courier,Courier" font-size="28.0" fill="#C8352B" transform="matrix(1.00, 0.00, -0.00, -1.00, 266.5, 7.8)">r</text><text xml:space="preserve" font-family="Courier,Courier" font-size="28.0" fill="#C8352B" transform="matrix(1.00, 0.00, -0.00, -1.00, 283.3, 7.8)">e</text><text xml:space="preserve" font-family="Courier,Courier" font-size="28.0" fill="#C8352B" transform="matrix(1.00, 0.00, -0.00, -1.00, 300.1, 7.8)">s</text><text xml:space="preserve" font-family="Courier,Courier" font-size="28.0" fill="#C8352B" transform="matrix(1.00, 0.00, -0.00, -1.00, 316.9, 7.8)">s</text><text xml:space="preserve" font-family="Courier,Courier" font-size="28.0" fill="#C8352B" transform="matrix(1.00, 0.00, -0.00, -1.00, 333.7, 7.8)">i</text><text xml:space="preserve" font-family="Courier,Courier" font-size="28.0" fill="#C8352B" transform="matrix(1.00, 0.00, -0.00, -1.00, 350.5, 7.8)">o</text><text xml:space="preserve" font-family="Courier,Courier" font-size="28.0" fill="#C8352B" transform="matrix(1.00, 0.00, -0.00, -1.00, 367.3, 7.8)">n</text><text xml:space="preserve" font-family="Courier,Courier" font-size="28.0" fill="#C8352B" transform="matrix(1.00, 0.00, -0.00, -1.00, 384.1, 7.8)">"</text><text xml:space="preserve" font-family="Courier,Courier" font-size="28.0" fill="#000000" transform="matrix(1.00, 0.00, -0.00, -1.00, 400.9, 7.8)">,</text></g></svg>