<?xml version="1.0" encoding="UTF-8" standalone="no"?><svg xmlns="http://www.w3.org/2000/svg" xmlns:xlink="http://www.w3.org/1999/xlink" clip-rule="evenodd" stroke-miterlimit="10" viewBox="0 0 263 23"><desc>SVG generated by Keynote</desc><defs></defs><g transform="matrix(1.00, 0.00, -0.00, -1.00, 0.0, 23.0)"><text xml:space="preserve" font-family="Courier,Courier" font-size="28.0" fill="#C8352B" transform="matrix(1.00, 0.00, -0.00, -1.00, -2.7, 2.8)">"</text><text xml:space="preserve" font-family="Courier,Courier" font-size="28.0" fill="#C8352B" transform="matrix(1.00, 0.00, -0.00, -1.00, 14.1, 2.8)">n</text><text xml:space="preserve" font-family="Courier,Courier" font-size="28.0" fill="#C8352B" transform="matrix(1.00, 0.00, -0.00, -1.00, 30.9, 2.8)">a</text><text xml:space="preserve" font-family="Courier,Courier" font-size="28.0" fill="#C8352B" transform="matrix(1.00, 0.00, -0.00, -1.00, 47.7, 2.8)">m</text><text xml:space="preserve" font-family="Courier,Courier" font-size="28.0" fill="#C8352B" transform="matrix(1.00, 0.00, -0.00, -1.00, 64.5, 2.8)">e</text><text xml:space="preserve" font-family="Courier,Courier" font-size="28.0" fill="#C8352B" transform="matrix(1.00, 0.00, -0.00, -1.00, 81.3, 2.8)">"</text><text xml:space="preserve" font-family="Courier,Courier" font-size="28.0" fill="#797979" transform="matrix(1.00, 0.00, -0.00, -1.00, 98.1, 2.8)">:</text><text xml:space="preserve" font-family="Courier,Courier" font-size="28.0" fill="#000000" transform="matrix(1.00, 0.00, -0.00, -1.00, 114.9, 2.8)"> </text><text xml:space="preserve" font-family="Courier,Courier" font-size="28.0" fill="#C8352B" transform="matrix(1.00, 0.00, -0.00, -1.00, 131.7, 2.8)">"</text><text xml:space="preserve" font-family="Courier,Courier" font-size="28.0" fill="#C8352B" transform="matrix(1.00, 0.00, -0.00, -1.00, 148.5, 2.8)">d</text><text xml:space="preserve" font-family="Courier,Courier" font-size="28.0" fill="#C8352B" transform="matrix(1.00, 0.00, -0.00, -1.00, 165.3, 2.8)">e</text><text xml:space="preserve" font-family="Courier,Courier" font-size="28.0" fill="#C8352B" transform="matrix(1.00, 0.00, -0.00, -1.00, 182.1, 2.8)">f</text><text xml:space="preserve" font-family="Courier,Courier" font-size="28.0" fill="#C8352B" transform="matrix(1.00, 0.00, -0.00, -1.00, 198.9, 2.8)">i</text><text xml:space="preserve" font-family="Courier,Courier" font-size="28.0" fill="#C8352B" transform="matrix(1.00, 0.00, -0.00, -1.00, 215.7, 2.8)">n</text><text xml:space="preserve" font-family="Courier,Courier" font-size="28.0" fill="#C8352B" transform="matrix(1.00, 0.00, -0.00, -1.00, 232.5, 2.8)">e</text><text xml:space="preserve" font-family="Courier,Courier" font-size="28.0" fill="#C8352B" transform="matrix(1.00, 0.00, -0.00, -1.00, 249.3, 2.8)">"</text></g></svg>