<?xml version="1.0" encoding="UTF-8" standalone="no"?><svg xmlns="http://www.w3.org/2000/svg" xmlns:xlink="http://www.w3.org/1999/xlink" clip-rule="evenodd" stroke-miterlimit="10" viewBox="0 0 362 72"><desc>SVG generated by Keynote</desc><defs></defs><g transform="matrix(1.00, 0.00, -0.00, -1.00, 0.0, 72.0)"><g><clipPath id="clip0x7fa0c93c8fd0"><path d="M 0.4 67.6 L 109.3 67.6 L 109.3 71.6 L 0.4 71.6 Z M 0.4 67.6 "></path></clipPath><g clip-path="url(#clip0x7fa0c93c8fd0)"><path d="M -0.4 -0.4 L 106.6 -0.4 " fill="none" stroke="#000000" stroke-width="2.00" transform="matrix(1.00, 0.00, 0.00, -1.00, 1.4, 69.6)"></path></g></g><g><clipPath id="clip0x7fa0c93ca300"><path d="M 52.8 3.7 L 52.8 69.2 L 56.8 69.2 L 56.8 3.7 Z M 52.8 3.7 "></path></clipPath><g clip-path="url(#clip0x7fa0c93ca300)"><path d="M 0.3 0.2 L 63.3 0.2 " fill="none" stroke="#000000" stroke-width="2.00" transform="matrix(0.00, 1.00, 1.00, 0.00, 54.8, 4.7)"></path></g></g><g><clipPath id="clip0x7fa0c93cb3a0"><path d="M 54.2 0.8 L 361.3 0.8 L 361.3 3.8 L 54.2 3.8 Z M 54.2 0.8 "></path></clipPath><g clip-path="url(#clip0x7fa0c93cb3a0)"><path d="M -0.2 -0.2 L 304.8 -0.2 " fill="none" stroke="#000000" stroke-width="1.00" transform="matrix(1.00, 0.00, 0.00, -1.00, 55.2, 2.3)"></path></g></g></g></svg>