<?xml version="1.0" encoding="UTF-8" standalone="no"?><svg xmlns="http://www.w3.org/2000/svg" xmlns:xlink="http://www.w3.org/1999/xlink" clip-rule="evenodd" stroke-miterlimit="10" viewBox="0 0 1024 768"><desc>SVG generated by Keynote</desc><defs></defs><g transform="matrix(1.00, 0.00, -0.00, -1.00, 0.0, 768.0)"><path d="M 0.0 768.0 L 1024.0 768.0 L 1024.0 0.0 L 0.0 0.0 Z M 0.0 768.0 " fill="#FEFFFF"></path><text xml:space="preserve" font-family="Courier,Courier" font-size="38.0" fill="#000000" transform="matrix(1.00, 0.00, -0.00, -1.00, 148.2, 437.2)">d</text><text xml:space="preserve" font-family="Courier,Courier" font-size="38.0" fill="#000000" transform="matrix(1.00, 0.00, -0.00, -1.00, 171.0, 437.2)">e</text><text xml:space="preserve" font-family="Courier,Courier" font-size="38.0" fill="#000000" transform="matrix(1.00, 0.00, -0.00, -1.00, 193.8, 437.2)">f</text><text xml:space="preserve" font-family="Courier,Courier" font-size="38.0" fill="#000000" transform="matrix(1.00, 0.00, -0.00, -1.00, 216.6, 437.2)">i</text><text xml:space="preserve" font-family="Courier,Courier" font-size="38.0" fill="#000000" transform="matrix(1.00, 0.00, -0.00, -1.00, 239.4, 437.2)">n</text><text xml:space="preserve" font-family="Courier,Courier" font-size="38.0" fill="#000000" transform="matrix(1.00, 0.00, -0.00, -1.00, 262.2, 437.2)">e</text><text xml:space="preserve" font-family="Courier,Courier" font-size="38.0" fill="#000000" transform="matrix(1.00, 0.00, -0.00, -1.00, 285.0, 437.2)">(</text><text xml:space="preserve" font-family="Courier,Courier" font-size="38.0" fill="#000000" transform="matrix(1.00, 0.00, -0.00, -1.00, 307.8, 437.2)">)</text><text xml:space="preserve" font-family="Courier,Courier" font-size="28.0" fill="#000000" transform="matrix(1.00, 0.00, -0.00, -1.00, 433.5, 509.8)">{</text><text xml:space="preserve" font-family="Courier,Courier" font-size="28.0" fill="#000000" transform="matrix(1.00, 0.00, -0.00, -1.00, 433.5, 475.8)"> </text><text xml:space="preserve" font-family="Courier,Courier" font-size="28.0" fill="#C8352B" transform="matrix(1.00, 0.00, -0.00, -1.00, 450.3, 475.8)">"</text><text xml:space="preserve" font-family="Courier,Courier" font-size="28.0" fill="#C8352B" transform="matrix(1.00, 0.00, -0.00, -1.00, 467.1, 475.8)">e</text><text xml:space="preserve" font-family="Courier,Courier" font-size="28.0" fill="#C8352B" transform="matrix(1.00, 0.00, -0.00, -1.00, 483.9, 475.8)">x</text><text xml:space="preserve" font-family="Courier,Courier" font-size="28.0" fill="#C8352B" transform="matrix(1.00, 0.00, -0.00, -1.00, 500.7, 475.8)">p</text><text xml:space="preserve" font-family="Courier,Courier" font-size="28.0" fill="#C8352B" transform="matrix(1.00, 0.00, -0.00, -1.00, 517.5, 475.8)">r</text><text xml:space="preserve" font-family="Courier,Courier" font-size="28.0" fill="#C8352B" transform="matrix(1.00, 0.00, -0.00, -1.00, 534.3, 475.8)">e</text><text xml:space="preserve" font-family="Courier,Courier" font-size="28.0" fill="#C8352B" transform="matrix(1.00, 0.00, -0.00, -1.00, 551.1, 475.8)">s</text><text xml:space="preserve" font-family="Courier,Courier" font-size="28.0" fill="#C8352B" transform="matrix(1.00, 0.00, -0.00, -1.00, 567.9, 475.8)">s</text><text xml:space="preserve" font-family="Courier,Courier" font-size="28.0" fill="#C8352B" transform="matrix(1.00, 0.00, -0.00, -1.00, 584.7, 475.8)">i</text><text xml:space="preserve" font-family="Courier,Courier" font-size="28.0" fill="#C8352B" transform="matrix(1.00, 0.00, -0.00, -1.00, 601.5, 475.8)">o</text><text xml:space="preserve" font-family="Courier,Courier" font-size="28.0" fill="#C8352B" transform="matrix(1.00, 0.00, -0.00, -1.00, 618.3, 475.8)">n</text><text xml:space="preserve" font-family="Courier,Courier" font-size="28.0" fill="#C8352B" transform="matrix(1.00, 0.00, -0.00, -1.00, 635.1, 475.8)">"</text><text xml:space="preserve" font-family="Courier,Courier" font-size="28.0" fill="#797979" transform="matrix(1.00, 0.00, -0.00, -1.00, 651.9, 475.8)">:</text><text xml:space="preserve" font-family="Courier,Courier" font-size="28.0" fill="#000000" transform="matrix(1.00, 0.00, -0.00, -1.00, 668.7, 475.8)"> </text><text xml:space="preserve" font-family="Courier,Courier" font-size="28.0" fill="#000000" transform="matrix(1.00, 0.00, -0.00, -1.00, 685.5, 475.8)">{</text><text xml:space="preserve" font-family="Courier,Courier" font-size="28.0" fill="#000000" transform="matrix(1.00, 0.00, -0.00, -1.00, 433.5, 441.8)"> </text><text xml:space="preserve" font-family="Courier,Courier" font-size="28.0" fill="#000000" transform="matrix(1.00, 0.00, -0.00, -1.00, 450.3, 441.8)"> </text><text xml:space="preserve" font-family="Courier,Courier" font-size="28.0" fill="#000000" transform="matrix(1.00, 0.00, -0.00, -1.00, 467.1, 441.8)"> </text><text xml:space="preserve" font-family="Courier,Courier" font-size="28.0" fill="#000000" transform="matrix(1.00, 0.00, -0.00, -1.00, 483.9, 441.8)"> </text><text xml:space="preserve" font-family="Courier,Courier" font-size="28.0" fill="#C8352B" transform="matrix(1.00, 0.00, -0.00, -1.00, 500.7, 441.8)">"</text><text xml:space="preserve" font-family="Courier,Courier" font-size="28.0" fill="#C8352B" transform="matrix(1.00, 0.00, -0.00, -1.00, 517.5, 441.8)">t</text><text xml:space="preserve" font-family="Courier,Courier" font-size="28.0" fill="#C8352B" transform="matrix(1.00, 0.00, -0.00, -1.00, 534.3, 441.8)">y</text><text xml:space="preserve" font-family="Courier,Courier" font-size="28.0" fill="#C8352B" transform="matrix(1.00, 0.00, -0.00, -1.00, 551.1, 441.8)">p</text><text xml:space="preserve" font-family="Courier,Courier" font-size="28.0" fill="#C8352B" transform="matrix(1.00, 0.00, -0.00, -1.00, 567.9, 441.8)">e</text><text xml:space="preserve" font-family="Courier,Courier" font-size="28.0" fill="#C8352B" transform="matrix(1.00, 0.00, -0.00, -1.00, 584.7, 441.8)">"</text><text xml:space="preserve" font-family="Courier,Courier" font-size="28.0" fill="#797979" transform="matrix(1.00, 0.00, -0.00, -1.00, 601.5, 441.8)">:</text><text xml:space="preserve" font-family="Courier,Courier" font-size="28.0" fill="#000000" transform="matrix(1.00, 0.00, -0.00, -1.00, 618.3, 441.8)"> </text><text xml:space="preserve" font-family="Courier,Courier" font-size="28.0" fill="#C8352B" transform="matrix(1.00, 0.00, -0.00, -1.00, 635.1, 441.8)">"</text><text xml:space="preserve" font-family="Courier,Courier" font-size="28.0" fill="#C8352B" transform="matrix(1.00, 0.00, -0.00, -1.00, 651.9, 441.8)">C</text><text xml:space="preserve" font-family="Courier,Courier" font-size="28.0" fill="#C8352B" transform="matrix(1.00, 0.00, -0.00, -1.00, 668.7, 441.8)">a</text><text xml:space="preserve" font-family="Courier,Courier" font-size="28.0" fill="#C8352B" transform="matrix(1.00, 0.00, -0.00, -1.00, 685.5, 441.8)">l</text><text xml:space="preserve" font-family="Courier,Courier" font-size="28.0" fill="#C8352B" transform="matrix(1.00, 0.00, -0.00, -1.00, 702.3, 441.8)">l</text><text xml:space="preserve" font-family="Courier,Courier" font-size="28.0" fill="#C8352B" transform="matrix(1.00, 0.00, -0.00, -1.00, 719.1, 441.8)">E</text><text xml:space="preserve" font-family="Courier,Courier" font-size="28.0" fill="#C8352B" transform="matrix(1.00, 0.00, -0.00, -1.00, 735.9, 441.8)">x</text><text xml:space="preserve" font-family="Courier,Courier" font-size="28.0" fill="#C8352B" transform="matrix(1.00, 0.00, -0.00, -1.00, 752.7, 441.8)">p</text><text xml:space="preserve" font-family="Courier,Courier" font-size="28.0" fill="#C8352B" transform="matrix(1.00, 0.00, -0.00, -1.00, 769.5, 441.8)">r</text><text xml:space="preserve" font-family="Courier,Courier" font-size="28.0" fill="#C8352B" transform="matrix(1.00, 0.00, -0.00, -1.00, 786.3, 441.8)">e</text><text xml:space="preserve" font-family="Courier,Courier" font-size="28.0" fill="#C8352B" transform="matrix(1.00, 0.00, -0.00, -1.00, 803.1, 441.8)">s</text><text xml:space="preserve" font-family="Courier,Courier" font-size="28.0" fill="#C8352B" transform="matrix(1.00, 0.00, -0.00, -1.00, 819.9, 441.8)">s</text><text xml:space="preserve" font-family="Courier,Courier" font-size="28.0" fill="#C8352B" transform="matrix(1.00, 0.00, -0.00, -1.00, 836.7, 441.8)">i</text><text xml:space="preserve" font-family="Courier,Courier" font-size="28.0" fill="#C8352B" transform="matrix(1.00, 0.00, -0.00, -1.00, 853.5, 441.8)">o</text><text xml:space="preserve" font-family="Courier,Courier" font-size="28.0" fill="#C8352B" transform="matrix(1.00, 0.00, -0.00, -1.00, 870.3, 441.8)">n</text><text xml:space="preserve" font-family="Courier,Courier" font-size="28.0" fill="#C8352B" transform="matrix(1.00, 0.00, -0.00, -1.00, 887.1, 441.8)">"</text><text xml:space="preserve" font-family="Courier,Courier" font-size="28.0" fill="#000000" transform="matrix(1.00, 0.00, -0.00, -1.00, 903.9, 441.8)">,</text><text xml:space="preserve" font-family="Courier,Courier" font-size="28.0" fill="#000000" transform="matrix(1.00, 0.00, -0.00, -1.00, 433.5, 407.8)"> </text><text xml:space="preserve" font-family="Courier,Courier" font-size="28.0" fill="#000000" transform="matrix(1.00, 0.00, -0.00, -1.00, 450.3, 407.8)"> </text><text xml:space="preserve" font-family="Courier,Courier" font-size="28.0" fill="#000000" transform="matrix(1.00, 0.00, -0.00, -1.00, 467.1, 407.8)"> </text><text xml:space="preserve" font-family="Courier,Courier" font-size="28.0" fill="#000000" transform="matrix(1.00, 0.00, -0.00, -1.00, 483.9, 407.8)"> </text><text xml:space="preserve" font-family="Courier,Courier" font-size="28.0" fill="#C8352B" transform="matrix(1.00, 0.00, -0.00, -1.00, 500.7, 407.8)">"</text><text xml:space="preserve" font-family="Courier,Courier" font-size="28.0" fill="#C8352B" transform="matrix(1.00, 0.00, -0.00, -1.00, 517.5, 407.8)">c</text><text xml:space="preserve" font-family="Courier,Courier" font-size="28.0" fill="#C8352B" transform="matrix(1.00, 0.00, -0.00, -1.00, 534.3, 407.8)">a</text><text xml:space="preserve" font-family="Courier,Courier" font-size="28.0" fill="#C8352B" transform="matrix(1.00, 0.00, -0.00, -1.00, 551.1, 407.8)">l</text><text xml:space="preserve" font-family="Courier,Courier" font-size="28.0" fill="#C8352B" transform="matrix(1.00, 0.00, -0.00, -1.00, 567.9, 407.8)">l</text><text xml:space="preserve" font-family="Courier,Courier" font-size="28.0" fill="#C8352B" transform="matrix(1.00, 0.00, -0.00, -1.00, 584.7, 407.8)">e</text><text xml:space="preserve" font-family="Courier,Courier" font-size="28.0" fill="#C8352B" transform="matrix(1.00, 0.00, -0.00, -1.00, 601.5, 407.8)">e</text><text xml:space="preserve" font-family="Courier,Courier" font-size="28.0" fill="#C8352B" transform="matrix(1.00, 0.00, -0.00, -1.00, 618.3, 407.8)">"</text><text xml:space="preserve" font-family="Courier,Courier" font-size="28.0" fill="#797979" transform="matrix(1.00, 0.00, -0.00, -1.00, 635.1, 407.8)">:</text><text xml:space="preserve" font-family="Courier,Courier" font-size="28.0" fill="#000000" transform="matrix(1.00, 0.00, -0.00, -1.00, 651.9, 407.8)"> </text><text xml:space="preserve" font-family="Courier,Courier" font-size="28.0" fill="#000000" transform="matrix(1.00, 0.00, -0.00, -1.00, 668.7, 407.8)">{</text><text xml:space="preserve" font-family="Courier,Courier" font-size="28.0" fill="#000000" transform="matrix(1.00, 0.00, -0.00, -1.00, 433.5, 373.8)"> </text><text xml:space="preserve" font-family="Courier,Courier" font-size="28.0" fill="#000000" transform="matrix(1.00, 0.00, -0.00, -1.00, 450.3, 373.8)"> </text><text xml:space="preserve" font-family="Courier,Courier" font-size="28.0" fill="#000000" transform="matrix(1.00, 0.00, -0.00, -1.00, 467.1, 373.8)"> </text><text xml:space="preserve" font-family="Courier,Courier" font-size="28.0" fill="#000000" transform="matrix(1.00, 0.00, -0.00, -1.00, 483.9, 373.8)"> </text><text xml:space="preserve" font-family="Courier,Courier" font-size="28.0" fill="#000000" transform="matrix(1.00, 0.00, -0.00, -1.00, 500.7, 373.8)"> </text><text xml:space="preserve" font-family="Courier,Courier" font-size="28.0" fill="#000000" transform="matrix(1.00, 0.00, -0.00, -1.00, 517.5, 373.8)"> </text><text xml:space="preserve" font-family="Courier,Courier" font-size="28.0" fill="#C8352B" transform="matrix(1.00, 0.00, -0.00, -1.00, 534.3, 373.8)">"</text><text xml:space="preserve" font-family="Courier,Courier" font-size="28.0" fill="#C8352B" transform="matrix(1.00, 0.00, -0.00, -1.00, 551.1, 373.8)">t</text><text xml:space="preserve" font-family="Courier,Courier" font-size="28.0" fill="#C8352B" transform="matrix(1.00, 0.00, -0.00, -1.00, 567.9, 373.8)">y</text><text xml:space="preserve" font-family="Courier,Courier" font-size="28.0" fill="#C8352B" transform="matrix(1.00, 0.00, -0.00, -1.00, 584.7, 373.8)">p</text><text xml:space="preserve" font-family="Courier,Courier" font-size="28.0" fill="#C8352B" transform="matrix(1.00, 0.00, -0.00, -1.00, 601.5, 373.8)">e</text><text xml:space="preserve" font-family="Courier,Courier" font-size="28.0" fill="#C8352B" transform="matrix(1.00, 0.00, -0.00, -1.00, 618.3, 373.8)">"</text><text xml:space="preserve" font-family="Courier,Courier" font-size="28.0" fill="#797979" transform="matrix(1.00, 0.00, -0.00, -1.00, 635.1, 373.8)">:</text><text xml:space="preserve" font-family="Courier,Courier" font-size="28.0" fill="#000000" transform="matrix(1.00, 0.00, -0.00, -1.00, 651.9, 373.8)"> </text><text xml:space="preserve" font-family="Courier,Courier" font-size="28.0" fill="#C8352B" transform="matrix(1.00, 0.00, -0.00, -1.00, 668.7, 373.8)">"</text><text xml:space="preserve" font-family="Courier,Courier" font-size="28.0" fill="#C8352B" transform="matrix(1.00, 0.00, -0.00, -1.00, 685.5, 373.8)">I</text><text xml:space="preserve" font-family="Courier,Courier" font-size="28.0" fill="#C8352B" transform="matrix(1.00, 0.00, -0.00, -1.00, 702.3, 373.8)">d</text><text xml:space="preserve" font-family="Courier,Courier" font-size="28.0" fill="#C8352B" transform="matrix(1.00, 0.00, -0.00, -1.00, 719.1, 373.8)">e</text><text xml:space="preserve" font-family="Courier,Courier" font-size="28.0" fill="#C8352B" transform="matrix(1.00, 0.00, -0.00, -1.00, 735.9, 373.8)">n</text><text xml:space="preserve" font-family="Courier,Courier" font-size="28.0" fill="#C8352B" transform="matrix(1.00, 0.00, -0.00, -1.00, 752.7, 373.8)">t</text><text xml:space="preserve" font-family="Courier,Courier" font-size="28.0" fill="#C8352B" transform="matrix(1.00, 0.00, -0.00, -1.00, 769.5, 373.8)">i</text><text xml:space="preserve" font-family="Courier,Courier" font-size="28.0" fill="#C8352B" transform="matrix(1.00, 0.00, -0.00, -1.00, 786.3, 373.8)">f</text><text xml:space="preserve" font-family="Courier,Courier" font-size="28.0" fill="#C8352B" transform="matrix(1.00, 0.00, -0.00, -1.00, 803.1, 373.8)">i</text><text xml:space="preserve" font-family="Courier,Courier" font-size="28.0" fill="#C8352B" transform="matrix(1.00, 0.00, -0.00, -1.00, 819.9, 373.8)">e</text><text xml:space="preserve" font-family="Courier,Courier" font-size="28.0" fill="#C8352B" transform="matrix(1.00, 0.00, -0.00, -1.00, 836.7, 373.8)">r</text><text xml:space="preserve" font-family="Courier,Courier" font-size="28.0" fill="#C8352B" transform="matrix(1.00, 0.00, -0.00, -1.00, 853.5, 373.8)">"</text><text xml:space="preserve" font-family="Courier,Courier" font-size="28.0" fill="#000000" transform="matrix(1.00, 0.00, -0.00, -1.00, 870.3, 373.8)">,</text><text xml:space="preserve" font-family="Courier,Courier" font-size="28.0" fill="#000000" transform="matrix(1.00, 0.00, -0.00, -1.00, 433.5, 339.8)"> </text><text xml:space="preserve" font-family="Courier,Courier" font-size="28.0" fill="#000000" transform="matrix(1.00, 0.00, -0.00, -1.00, 450.3, 339.8)"> </text><text xml:space="preserve" font-family="Courier,Courier" font-size="28.0" fill="#000000" transform="matrix(1.00, 0.00, -0.00, -1.00, 467.1, 339.8)"> </text><text xml:space="preserve" font-family="Courier,Courier" font-size="28.0" fill="#000000" transform="matrix(1.00, 0.00, -0.00, -1.00, 483.9, 339.8)"> </text><text xml:space="preserve" font-family="Courier,Courier" font-size="28.0" fill="#000000" transform="matrix(1.00, 0.00, -0.00, -1.00, 500.7, 339.8)"> </text><text xml:space="preserve" font-family="Courier,Courier" font-size="28.0" fill="#000000" transform="matrix(1.00, 0.00, -0.00, -1.00, 517.5, 339.8)"> </text><text xml:space="preserve" font-family="Courier,Courier" font-size="28.0" fill="#C8352B" transform="matrix(1.00, 0.00, -0.00, -1.00, 534.3, 339.8)">"</text><text xml:space="preserve" font-family="Courier,Courier" font-size="28.0" fill="#C8352B" transform="matrix(1.00, 0.00, -0.00, -1.00, 551.1, 339.8)">n</text><text xml:space="preserve" font-family="Courier,Courier" font-size="28.0" fill="#C8352B" transform="matrix(1.00, 0.00, -0.00, -1.00, 567.9, 339.8)">a</text><text xml:space="preserve" font-family="Courier,Courier" font-size="28.0" fill="#C8352B" transform="matrix(1.00, 0.00, -0.00, -1.00, 584.7, 339.8)">m</text><text xml:space="preserve" font-family="Courier,Courier" font-size="28.0" fill="#C8352B" transform="matrix(1.00, 0.00, -0.00, -1.00, 601.5, 339.8)">e</text><text xml:space="preserve" font-family="Courier,Courier" font-size="28.0" fill="#C8352B" transform="matrix(1.00, 0.00, -0.00, -1.00, 618.3, 339.8)">"</text><text xml:space="preserve" font-family="Courier,Courier" font-size="28.0" fill="#797979" transform="matrix(1.00, 0.00, -0.00, -1.00, 635.1, 339.8)">:</text><text xml:space="preserve" font-family="Courier,Courier" font-size="28.0" fill="#000000" transform="matrix(1.00, 0.00, -0.00, -1.00, 651.9, 339.8)"> </text><text xml:space="preserve" font-family="Courier,Courier" font-size="28.0" fill="#C8352B" transform="matrix(1.00, 0.00, -0.00, -1.00, 668.7, 339.8)">"</text><text xml:space="preserve" font-family="Courier,Courier" font-size="28.0" fill="#C8352B" transform="matrix(1.00, 0.00, -0.00, -1.00, 685.5, 339.8)">d</text><text xml:space="preserve" font-family="Courier,Courier" font-size="28.0" fill="#C8352B" transform="matrix(1.00, 0.00, -0.00, -1.00, 702.3, 339.8)">e</text><text xml:space="preserve" font-family="Courier,Courier" font-size="28.0" fill="#C8352B" transform="matrix(1.00, 0.00, -0.00, -1.00, 719.1, 339.8)">f</text><text xml:space="preserve" font-family="Courier,Courier" font-size="28.0" fill="#C8352B" transform="matrix(1.00, 0.00, -0.00, -1.00, 735.9, 339.8)">i</text><text xml:space="preserve" font-family="Courier,Courier" font-size="28.0" fill="#C8352B" transform="matrix(1.00, 0.00, -0.00, -1.00, 752.7, 339.8)">n</text><text xml:space="preserve" font-family="Courier,Courier" font-size="28.0" fill="#C8352B" transform="matrix(1.00, 0.00, -0.00, -1.00, 769.5, 339.8)">e</text><text xml:space="preserve" font-family="Courier,Courier" font-size="28.0" fill="#C8352B" transform="matrix(1.00, 0.00, -0.00, -1.00, 786.3, 339.8)">"</text><text xml:space="preserve" font-family="Courier,Courier" font-size="28.0" fill="#000000" transform="matrix(1.00, 0.00, -0.00, -1.00, 433.5, 305.8)"> </text><text xml:space="preserve" font-family="Courier,Courier" font-size="28.0" fill="#000000" transform="matrix(1.00, 0.00, -0.00, -1.00, 450.3, 305.8)"> </text><text xml:space="preserve" font-family="Courier,Courier" font-size="28.0" fill="#000000" transform="matrix(1.00, 0.00, -0.00, -1.00, 467.1, 305.8)"> </text><text xml:space="preserve" font-family="Courier,Courier" font-size="28.0" fill="#000000" transform="matrix(1.00, 0.00, -0.00, -1.00, 483.9, 305.8)"> </text><text xml:space="preserve" font-family="Courier,Courier" font-size="28.0" fill="#000000" transform="matrix(1.00, 0.00, -0.00, -1.00, 500.7, 305.8)">}</text><text xml:space="preserve" font-family="Courier,Courier" font-size="28.0" fill="#000000" transform="matrix(1.00, 0.00, -0.00, -1.00, 433.5, 271.8)"> </text><text xml:space="preserve" font-family="Courier,Courier" font-size="28.0" fill="#000000" transform="matrix(1.00, 0.00, -0.00, -1.00, 450.3, 271.8)"> </text><text xml:space="preserve" font-family="Courier,Courier" font-size="28.0" fill="#000000" transform="matrix(1.00, 0.00, -0.00, -1.00, 467.1, 271.8)">}</text><text xml:space="preserve" font-family="Courier,Courier" font-size="28.0" fill="#000000" transform="matrix(1.00, 0.00, -0.00, -1.00, 433.5, 237.8)">}</text><path d="M 0.4 -0.3 L 145.4 -0.3 " fill="none" stroke="#000000" stroke-width="1.00" transform="matrix(1.00, 0.00, 0.00, -1.00, 334.6, 443.2)"></path><g><clipPath id="clip0x7fa0c96440d0"><path d="M 158.4 412.6 L 267.3 412.6 L 267.3 416.6 L 158.4 416.6 Z M 158.4 412.6 "></path></clipPath><g clip-path="url(#clip0x7fa0c96440d0)"><path d="M -0.4 -0.4 L 106.6 -0.4 " fill="none" stroke="#000000" stroke-width="2.00" transform="matrix(1.00, 0.00, 0.00, -1.00, 159.4, 414.6)"></path></g></g><g><clipPath id="clip0x7fa0c9645140"><path d="M 210.8 348.7 L 210.8 414.2 L 214.8 414.2 L 214.8 348.7 Z M 210.8 348.7 "></path></clipPath><g clip-path="url(#clip0x7fa0c9645140)"><path d="M 0.3 0.2 L 63.3 0.2 " fill="none" stroke="#000000" stroke-width="2.00" transform="matrix(0.00, 1.00, 1.00, 0.00, 212.8, 349.7)"></path></g></g><g><clipPath id="clip0x7fa0c9646180"><path d="M 212.2 345.8 L 519.3 345.8 L 519.3 348.8 L 212.2 348.8 Z M 212.2 345.8 "></path></clipPath><g clip-path="url(#clip0x7fa0c9646180)"><path d="M -0.2 -0.2 L 304.8 -0.2 " fill="none" stroke="#000000" stroke-width="1.00" transform="matrix(1.00, 0.00, 0.00, -1.00, 213.2, 347.3)"></path></g></g><g><clipPath id="clip0x7fa0c96471e0"><path d="M 111.4 648.9 L 197.9 648.9 L 197.9 716.6 L 111.4 716.6 Z M 111.4 648.9 "></path></clipPath><g clip-path="url(#clip0x7fa0c96471e0)"><image xlink:href="../../0099E750-43F4-4A1E-80C1-2076B752852F/assets/FF7649F6400E4A84E351B98983CB9446.png" width="528.00" height="413.00" transform="matrix(0.16, 0.00, -0.00, -0.16, 111.4, 716.6)"></image></g></g><g><clipPath id="clip0x7fa0c9648f20"><path d="M 233.4 635.2 L 900.4 635.2 L 900.4 730.2 L 233.4 730.2 Z M 233.4 635.2 "></path></clipPath><g clip-path="url(#clip0x7fa0c9648f20)"><text xml:space="preserve" font-family="Helvetica-Light,Helvetica" font-size="56.0" fill="#000000" transform="matrix(1.00, 0.00, -0.00, -1.00, 247.4, 662.1)">D</text><text xml:space="preserve" font-family="Helvetica-Light,Helvetica" font-size="56.0" fill="#000000" transform="matrix(1.00, 0.00, -0.00, -1.00, 287.8, 662.1)">e</text><text xml:space="preserve" font-family="Helvetica-Light,Helvetica" font-size="56.0" fill="#000000" transform="matrix(1.00, 0.00, -0.00, -1.00, 318.9, 662.1)">t</text><text xml:space="preserve" font-family="Helvetica-Light,Helvetica" font-size="56.0" fill="#000000" transform="matrix(1.00, 0.00, -0.00, -1.00, 334.5, 662.1)">e</text><text xml:space="preserve" font-family="Helvetica-Light,Helvetica" font-size="56.0" fill="#000000" transform="matrix(1.00, 0.00, -0.00, -1.00, 365.6, 662.1)">c</text><text xml:space="preserve" font-family="Helvetica-Light,Helvetica" font-size="56.0" fill="#000000" transform="matrix(1.00, 0.00, -0.00, -1.00, 396.8, 662.1)">t</text><text xml:space="preserve" font-family="Helvetica-Light,Helvetica" font-size="56.0" fill="#000000" transform="matrix(1.00, 0.00, -0.00, -1.00, 412.3, 662.1)"> </text><text xml:space="preserve" font-family="Helvetica-Light,Helvetica" font-size="56.0" fill="#000000" transform="matrix(1.00, 0.00, -0.00, -1.00, 427.9, 662.1)">t</text><text xml:space="preserve" font-family="Helvetica-Light,Helvetica" font-size="56.0" fill="#000000" transform="matrix(1.00, 0.00, -0.00, -1.00, 443.5, 662.1)">h</text><text xml:space="preserve" font-family="Helvetica-Light,Helvetica" font-size="56.0" fill="#000000" transform="matrix(1.00, 0.00, -0.00, -1.00, 474.6, 662.1)">e</text><text xml:space="preserve" font-family="Helvetica-Light,Helvetica" font-size="56.0" fill="#000000" transform="matrix(1.00, 0.00, -0.00, -1.00, 505.8, 662.1)"> </text><text xml:space="preserve" font-family="Helvetica-Light,Helvetica" font-size="56.0" fill="#000000" transform="matrix(1.00, 0.00, -0.00, -1.00, 521.3, 662.1)">m</text><text xml:space="preserve" font-family="Helvetica-Light,Helvetica" font-size="56.0" fill="#000000" transform="matrix(1.00, 0.00, -0.00, -1.00, 568.0, 662.1)">o</text><text xml:space="preserve" font-family="Helvetica-Light,Helvetica" font-size="56.0" fill="#000000" transform="matrix(1.00, 0.00, -0.00, -1.00, 599.1, 662.1)">d</text><text xml:space="preserve" font-family="Helvetica-Light,Helvetica" font-size="56.0" fill="#000000" transform="matrix(1.00, 0.00, -0.00, -1.00, 633.3, 662.1)">u</text><text xml:space="preserve" font-family="Helvetica-Light,Helvetica" font-size="56.0" fill="#000000" transform="matrix(1.00, 0.00, -0.00, -1.00, 664.5, 662.1)">l</text><text xml:space="preserve" font-family="Helvetica-Light,Helvetica" font-size="56.0" fill="#000000" transform="matrix(1.00, 0.00, -0.00, -1.00, 676.9, 662.1)">e</text><text xml:space="preserve" font-family="Helvetica-Light,Helvetica" font-size="56.0" fill="#000000" transform="matrix(1.00, 0.00, -0.00, -1.00, 708.0, 662.1)"> </text><text xml:space="preserve" font-family="Helvetica-Light,Helvetica" font-size="56.0" fill="#000000" transform="matrix(1.00, 0.00, -0.00, -1.00, 723.6, 662.1)">s</text><text xml:space="preserve" font-family="Helvetica-Light,Helvetica" font-size="56.0" fill="#000000" transform="matrix(1.00, 0.00, -0.00, -1.00, 751.6, 662.1)">y</text><text xml:space="preserve" font-family="Helvetica-Light,Helvetica" font-size="56.0" fill="#000000" transform="matrix(1.00, 0.00, -0.00, -1.00, 779.6, 662.1)">n</text><text xml:space="preserve" font-family="Helvetica-Light,Helvetica" font-size="56.0" fill="#000000" transform="matrix(1.00, 0.00, -0.00, -1.00, 810.7, 662.1)">t</text><text xml:space="preserve" font-family="Helvetica-Light,Helvetica" font-size="56.0" fill="#000000" transform="matrix(1.00, 0.00, -0.00, -1.00, 826.3, 662.1)">a</text><text xml:space="preserve" font-family="Helvetica-Light,Helvetica" font-size="56.0" fill="#000000" transform="matrix(1.00, 0.00, -0.00, -1.00, 857.4, 662.1)">x</text></g></g></g></svg>