<?xml version="1.0" encoding="UTF-8" standalone="no"?><svg xmlns="http://www.w3.org/2000/svg" xmlns:xlink="http://www.w3.org/1999/xlink" clip-rule="evenodd" stroke-miterlimit="10" viewBox="0 0 766 289"><desc>SVG generated by Keynote</desc><defs></defs><g transform="matrix(1.00, 0.00, -0.00, -1.00, 0.0, 289.0)"><g><clipPath id="clip0x7fa0c8c7c090"><path d="M 0.8 130.8 L 429.8 130.8 L 429.8 211.8 L 0.8 211.8 Z M 0.8 130.8 "></path></clipPath><g clip-path="url(#clip0x7fa0c8c7c090)"><image xlink:href="B3C4C9B42454B19F0F0C63FFE7AF41A3.png" width="858.00" height="162.00" transform="matrix(0.50, 0.00, -0.00, -0.50, 0.8, 211.8)"></image></g></g><g><clipPath id="clip0x7fa0c8c7d1b0"><path d="M 530.0 53.8 L 765.2 53.8 L 765.2 288.9 L 530.0 288.9 Z M 530.0 53.8 "></path></clipPath><g clip-path="url(#clip0x7fa0c8c7d1b0)"><image xlink:href="29C1010B0E7F375F0999B124ACD456BB.png" width="350.00" height="350.00" transform="matrix(0.67, 0.00, -0.00, -0.67, 530.0, 288.9)"></image></g></g><g><clipPath id="clip0x7fa0c8c7ea40"><path d="M 553.2 -3.4 L 762.3 -3.4 L 762.3 57.6 L 553.2 57.6 Z M 553.2 -3.4 "></path></clipPath><g clip-path="url(#clip0x7fa0c8c7ea40)"><text xml:space="preserve" font-family="Helvetica-Light,Helvetica" font-size="36.0" fill="#000000" transform="matrix(1.00, 0.00, -0.00, -1.00, 562.7, 13.9)">L</text><text xml:space="preserve" font-family="Helvetica-Light,Helvetica" font-size="36.0" fill="#000000" transform="matrix(1.00, 0.00, -0.00, -1.00, 582.8, 13.9)">i</text><text xml:space="preserve" font-family="Helvetica-Light,Helvetica" font-size="36.0" fill="#000000" transform="matrix(1.00, 0.00, -0.00, -1.00, 590.7, 13.9)">v</text><text xml:space="preserve" font-family="Helvetica-Light,Helvetica" font-size="36.0" fill="#000000" transform="matrix(1.00, 0.00, -0.00, -1.00, 608.7, 13.9)">e</text><text xml:space="preserve" font-family="Helvetica-Light,Helvetica" font-size="36.0" fill="#000000" transform="matrix(1.00, 0.00, -0.00, -1.00, 628.8, 13.9)"> </text><text xml:space="preserve" font-family="Helvetica-Light,Helvetica" font-size="36.0" fill="#000000" transform="matrix(1.00, 0.00, -0.00, -1.00, 638.8, 13.9)">R</text><text xml:space="preserve" font-family="Helvetica-Light,Helvetica" font-size="36.0" fill="#000000" transform="matrix(1.00, 0.00, -0.00, -1.00, 662.8, 13.9)">e</text><text xml:space="preserve" font-family="Helvetica-Light,Helvetica" font-size="36.0" fill="#000000" transform="matrix(1.00, 0.00, -0.00, -1.00, 682.8, 13.9)">l</text><text xml:space="preserve" font-family="Helvetica-Light,Helvetica" font-size="36.0" fill="#000000" transform="matrix(1.00, 0.00, -0.00, -1.00, 690.8, 13.9)">o</text><text xml:space="preserve" font-family="Helvetica-Light,Helvetica" font-size="36.0" fill="#000000" transform="matrix(1.00, 0.00, -0.00, -1.00, 710.8, 13.9)">a</text><text xml:space="preserve" font-family="Helvetica-Light,Helvetica" font-size="36.0" fill="#000000" transform="matrix(1.00, 0.00, -0.00, -1.00, 730.8, 13.9)">d</text></g></g></g></svg>