<?xml version="1.0" encoding="UTF-8" standalone="no"?><svg xmlns="http://www.w3.org/2000/svg" xmlns:xlink="http://www.w3.org/1999/xlink" clip-rule="evenodd" stroke-miterlimit="10" viewBox="0 0 1024 768"><desc>SVG generated by Keynote</desc><defs></defs><g transform="matrix(1.00, 0.00, -0.00, -1.00, 0.0, 768.0)"><path d="M 0.0 768.0 L 1024.0 768.0 L 1024.0 0.0 L 0.0 0.0 Z M 0.0 768.0 " fill="#FEFFFF"></path><image xlink:href="../../5E179B95-83C0-41C4-B99A-BAC86EB1F407/assets/0591518019C4C4074AB0C5E5803B1DF3.png" width="374.00" height="324.00" transform="matrix(1.08, 0.00, -0.00, -1.08, 309.2, 711.4)"></image><g><clipPath id="clip0x7fa0c896e1b0"><path d="M 129.8 171.8 L 558.8 171.8 L 558.8 252.8 L 129.8 252.8 Z M 129.8 171.8 "></path></clipPath><g clip-path="url(#clip0x7fa0c896e1b0)"><image xlink:href="../../13A61E41-8124-40D8-99B0-6EFF00467D3B/assets/B3C4C9B42454B19F0F0C63FFE7AF41A3.png" width="858.00" height="162.00" transform="matrix(0.50, 0.00, -0.00, -0.50, 129.8, 252.8)"></image></g></g><g><clipPath id="clip0x7fa0c89704e0"><path d="M 659.0 94.8 L 894.2 94.8 L 894.2 329.9 L 659.0 329.9 Z M 659.0 94.8 "></path></clipPath><g clip-path="url(#clip0x7fa0c89704e0)"><image xlink:href="../../13A61E41-8124-40D8-99B0-6EFF00467D3B/assets/29C1010B0E7F375F0999B124ACD456BB.png" width="350.00" height="350.00" transform="matrix(0.67, 0.00, -0.00, -0.67, 659.0, 329.9)"></image></g></g><g><clipPath id="clip0x7fa0c8c7c700"><path d="M 682.2 37.6 L 891.3 37.6 L 891.3 98.6 L 682.2 98.6 Z M 682.2 37.6 "></path></clipPath><g clip-path="url(#clip0x7fa0c8c7c700)"><text xml:space="preserve" font-family="Helvetica-Light,Helvetica" font-size="36.0" fill="#000000" transform="matrix(1.00, 0.00, -0.00, -1.00, 691.7, 54.9)">L</text><text xml:space="preserve" font-family="Helvetica-Light,Helvetica" font-size="36.0" fill="#000000" transform="matrix(1.00, 0.00, -0.00, -1.00, 711.8, 54.9)">i</text><text xml:space="preserve" font-family="Helvetica-Light,Helvetica" font-size="36.0" fill="#000000" transform="matrix(1.00, 0.00, -0.00, -1.00, 719.7, 54.9)">v</text><text xml:space="preserve" font-family="Helvetica-Light,Helvetica" font-size="36.0" fill="#000000" transform="matrix(1.00, 0.00, -0.00, -1.00, 737.7, 54.9)">e</text><text xml:space="preserve" font-family="Helvetica-Light,Helvetica" font-size="36.0" fill="#000000" transform="matrix(1.00, 0.00, -0.00, -1.00, 757.8, 54.9)"> </text><text xml:space="preserve" font-family="Helvetica-Light,Helvetica" font-size="36.0" fill="#000000" transform="matrix(1.00, 0.00, -0.00, -1.00, 767.8, 54.9)">R</text><text xml:space="preserve" font-family="Helvetica-Light,Helvetica" font-size="36.0" fill="#000000" transform="matrix(1.00, 0.00, -0.00, -1.00, 791.8, 54.9)">e</text><text xml:space="preserve" font-family="Helvetica-Light,Helvetica" font-size="36.0" fill="#000000" transform="matrix(1.00, 0.00, -0.00, -1.00, 811.8, 54.9)">l</text><text xml:space="preserve" font-family="Helvetica-Light,Helvetica" font-size="36.0" fill="#000000" transform="matrix(1.00, 0.00, -0.00, -1.00, 819.8, 54.9)">o</text><text xml:space="preserve" font-family="Helvetica-Light,Helvetica" font-size="36.0" fill="#000000" transform="matrix(1.00, 0.00, -0.00, -1.00, 839.8, 54.9)">a</text><text xml:space="preserve" font-family="Helvetica-Light,Helvetica" font-size="36.0" fill="#000000" transform="matrix(1.00, 0.00, -0.00, -1.00, 859.8, 54.9)">d</text></g></g></g></svg>