<?xml version="1.0" encoding="UTF-8" standalone="no"?><svg xmlns="http://www.w3.org/2000/svg" xmlns:xlink="http://www.w3.org/1999/xlink" clip-rule="evenodd" stroke-miterlimit="10" viewBox="0 0 1024 768"><desc>SVG generated by Keynote</desc><defs></defs><g transform="matrix(1.00, 0.00, -0.00, -1.00, 0.0, 768.0)"><path d="M 0.0 768.0 L 1024.0 768.0 L 1024.0 0.0 L 0.0 0.0 Z M 0.0 768.0 " fill="#FEFFFF"></path><path d="M 38.4 493.5 L 909.4 493.5 " fill="none" stroke="#919191" stroke-width="1.00" stroke-dasharray="2.0, 2.0" transform="matrix(1.00, 0.00, 0.00, -1.00, 76.6, 699.0)"></path><path d="M 38.4 336.5 L 909.4 336.5 " fill="none" stroke="#919191" stroke-width="1.00" stroke-dasharray="2.0, 2.0" transform="matrix(1.00, 0.00, 0.00, -1.00, 76.6, 699.0)"></path><path d="M 38.4 180.5 L 909.4 180.5 " fill="none" stroke="#919191" stroke-width="1.00" stroke-dasharray="2.0, 2.0" transform="matrix(1.00, 0.00, 0.00, -1.00, 76.6, 699.0)"></path><path d="M 38.4 24.5 L 909.4 24.5 " fill="none" stroke="#919191" stroke-width="1.00" stroke-dasharray="2.0, 2.0" transform="matrix(1.00, 0.00, 0.00, -1.00, 76.6, 699.0)"></path><g><clipPath id="clip0x7fa0c8c29280"><path d="M 86.7 36.2 L 100.9 36.2 L 100.9 62.2 L 86.7 62.2 Z M 86.7 36.2 "></path></clipPath><g clip-path="url(#clip0x7fa0c8c29280)"><text xml:space="preserve" font-family="Helvetica-Light,Helvetica" font-size="20.0" fill="#000000" transform="matrix(1.00, 0.00, -0.00, -1.00, 88.2, 41.8)">0</text></g></g><g><clipPath id="clip0x7fa0c8c2b3b0"><path d="M 86.7 192.6 L 100.9 192.6 L 100.9 218.6 L 86.7 218.6 Z M 86.7 192.6 "></path></clipPath><g clip-path="url(#clip0x7fa0c8c2b3b0)"><text xml:space="preserve" font-family="Helvetica-Light,Helvetica" font-size="20.0" fill="#000000" transform="matrix(1.00, 0.00, -0.00, -1.00, 88.2, 198.2)">5</text></g></g><g><clipPath id="clip0x7fa0c8c2c6e0"><path d="M 75.6 349.1 L 100.9 349.1 L 100.9 375.1 L 75.6 375.1 Z M 75.6 349.1 "></path></clipPath><g clip-path="url(#clip0x7fa0c8c2c6e0)"><text xml:space="preserve" font-family="Helvetica-Light,Helvetica" font-size="20.0" fill="#000000" transform="matrix(1.00, 0.00, -0.00, -1.00, 77.1, 354.7)">1</text><text xml:space="preserve" font-family="Helvetica-Light,Helvetica" font-size="20.0" fill="#000000" transform="matrix(1.00, 0.00, -0.00, -1.00, 88.2, 354.7)">0</text></g></g><g><clipPath id="clip0x7fa0c8c2e080"><path d="M 75.6 505.5 L 100.9 505.5 L 100.9 531.5 L 75.6 531.5 Z M 75.6 505.5 "></path></clipPath><g clip-path="url(#clip0x7fa0c8c2e080)"><text xml:space="preserve" font-family="Helvetica-Light,Helvetica" font-size="20.0" fill="#000000" transform="matrix(1.00, 0.00, -0.00, -1.00, 77.1, 511.1)">1</text><text xml:space="preserve" font-family="Helvetica-Light,Helvetica" font-size="20.0" fill="#000000" transform="matrix(1.00, 0.00, -0.00, -1.00, 88.2, 511.1)">5</text></g></g><g><clipPath id="clip0x7fa0c8c2fa20"><path d="M 75.6 662.0 L 100.9 662.0 L 100.9 688.0 L 75.6 688.0 Z M 75.6 662.0 "></path></clipPath><g clip-path="url(#clip0x7fa0c8c2fa20)"><text xml:space="preserve" font-family="Helvetica-Light,Helvetica" font-size="20.0" fill="#000000" transform="matrix(1.00, 0.00, -0.00, -1.00, 77.1, 667.6)">2</text><text xml:space="preserve" font-family="Helvetica-Light,Helvetica" font-size="20.0" fill="#000000" transform="matrix(1.00, 0.00, -0.00, -1.00, 88.2, 667.6)">0</text></g></g><path d="M 37.9 649.5 L 909.9 649.5 " fill="none" stroke="#000000" stroke-width="1.00" stroke-linecap="square" transform="matrix(1.00, 0.00, 0.00, -1.00, 76.6, 699.0)"></path><g><g><clipPath id="clip0x7fa0c8c33170"><path d="M 121.9 675.0 C 121.9 671.1 118.7 668.0 114.9 668.0 C 111.0 668.0 107.9 671.1 107.9 675.0 C 107.9 678.8 111.0 682.0 114.9 682.0 C 118.7 682.0 121.9 678.8 121.9 675.0 Z M 121.9 675.0 "></path></clipPath><g clip-path="url(#clip0x7fa0c8c33170)"><g><clipPath id="clip0x7fa0c8c33a00"><path d="M 76.0 16.0 L 994.0 16.0 L 994.0 699.0 L 76.0 699.0 Z M 76.0 16.0 "></path></clipPath><g clip-path="url(#clip0x7fa0c8c33a00)"><path d="M 105.0 684.0 L 124.0 684.0 L 124.0 665.0 L 105.0 665.0 Z M 105.0 684.0 " fill="#FEFFFE"></path></g></g></g></g><g><clipPath id="clip0x7fa0c8c34850"><path d="M 412.3 518.5 C 412.3 514.7 409.2 511.5 405.3 511.5 C 401.5 511.5 398.3 514.7 398.3 518.5 C 398.3 522.4 401.5 525.5 405.3 525.5 C 409.2 525.5 412.3 522.4 412.3 518.5 Z M 412.3 518.5 "></path></clipPath><g clip-path="url(#clip0x7fa0c8c34850)"><g><clipPath id="clip0x7fa0c8c35130"><path d="M 76.0 16.0 L 994.0 16.0 L 994.0 699.0 L 76.0 699.0 Z M 76.0 16.0 "></path></clipPath><g clip-path="url(#clip0x7fa0c8c35130)"><path d="M 396.0 528.0 L 415.0 528.0 L 415.0 509.0 L 396.0 509.0 Z M 396.0 528.0 " fill="#FEFFFE"></path></g></g></g></g><g><clipPath id="clip0x7fa0c8c31780"><path d="M 702.8 362.1 C 702.8 358.2 699.7 355.1 695.8 355.1 C 691.9 355.1 688.8 358.2 688.8 362.1 C 688.8 365.9 691.9 369.1 695.8 369.1 C 699.7 369.1 702.8 365.9 702.8 362.1 Z M 702.8 362.1 "></path></clipPath><g clip-path="url(#clip0x7fa0c8c31780)"><g><clipPath id="clip0x7fa0c8c368a0"><path d="M 76.0 16.0 L 994.0 16.0 L 994.0 699.0 L 76.0 699.0 Z M 76.0 16.0 "></path></clipPath><g clip-path="url(#clip0x7fa0c8c368a0)"><path d="M 686.0 372.0 L 705.0 372.0 L 705.0 353.0 L 686.0 353.0 Z M 686.0 372.0 " fill="#FEFFFE"></path></g></g></g></g><g><clipPath id="clip0x7fa0c8c376f0"><path d="M 993.3 205.6 C 993.3 201.8 990.1 198.6 986.3 198.6 C 982.4 198.6 979.3 201.8 979.3 205.6 C 979.3 209.5 982.4 212.6 986.3 212.6 C 990.1 212.6 993.3 209.5 993.3 205.6 Z M 993.3 205.6 "></path></clipPath><g clip-path="url(#clip0x7fa0c8c376f0)"><g><clipPath id="clip0x7fa0c8c37f80"><path d="M 76.0 16.0 L 994.0 16.0 L 994.0 699.0 L 76.0 699.0 Z M 76.0 16.0 "></path></clipPath><g clip-path="url(#clip0x7fa0c8c37f80)"><path d="M 977.0 215.0 L 996.0 215.0 L 996.0 196.0 L 977.0 196.0 Z M 977.0 215.0 " fill="#FEFFFE"></path></g></g></g></g></g><image xlink:href="../../0099E750-43F4-4A1E-80C1-2076B752852F/assets/5920F148D175DE72B6F6E244C369D8BD.png" width="512.00" height="512.00" transform="matrix(0.24, 0.00, -0.00, -0.24, 139.0, 729.4)"></image><image xlink:href="../../79BA5CA4-47AB-4C01-9BD1-27FE080DF2BA/assets/5DC8C93C2125C1497238FF6D4618B095.png" width="400.00" height="400.00" transform="matrix(0.41, 0.00, -0.00, -0.41, 481.1, 468.0)"></image><image xlink:href="CDEA4DACE3F32425B1ED33B4F70B1A39.png" width="257.00" height="257.00" transform="matrix(0.64, 0.00, -0.00, -0.64, 279.5, 633.6)"></image><image xlink:href="../../79BA5CA4-47AB-4C01-9BD1-27FE080DF2BA/assets/22A8DE221ED396AC7EC63FC948416E25.png" width="200.00" height="200.00" transform="matrix(0.90, 0.00, -0.00, -0.90, 682.8, 329.8)"></image><text xml:space="preserve" font-family="Helvetica-Light,Helvetica" font-size="36.0" fill="#000000" transform="matrix(1.00, 0.00, -0.00, -1.00, 45.3, 719.1)">L</text><text xml:space="preserve" font-family="Helvetica-Light,Helvetica" font-size="36.0" fill="#000000" transform="matrix(1.00, 0.00, -0.00, -1.00, 65.4, 719.1)">O</text><text xml:space="preserve" font-family="Helvetica-Light,Helvetica" font-size="36.0" fill="#000000" transform="matrix(1.00, 0.00, -0.00, -1.00, 93.4, 719.1)">C</text><text xml:space="preserve" font-family="Helvetica-Bold,Helvetica" font-weight="bold" font-size="101.0" fill="#000000" transform="matrix(1.00, 0.00, -0.00, -1.00, 889.2, 26.1)">?</text></g></svg>